<?xml version="1.0" encoding="UTF-8"?>
<svg id="Layer_1" data-name="Layer 1" xmlns="http://www.w3.org/2000/svg" viewBox="0 0 334.73 354.82">
  <defs>
    <style>
      .cls-1 {
        fill: #7bad10;
      }

      .cls-2 {
        fill: #c1382b;
      }

      .cls-3 {
        fill: #96dd5e;
      }

      .cls-4 {
        fill: #dd2f22;
      }

      .cls-5 {
        fill: #6c8c09;
      }

      .cls-6 {
        fill: #5a6807;
      }
    </style>
  </defs>
  <path class="cls-3" d="m174.8,312.26l-64.35-63.37s-30.7-29.92-20.48-79.56c4.15-25.18,23.41-45.62,50.71-70.98l7.43-7.19.73-.74c15.32-15.55,40.01-16.07,55.16-1.16l-.06.06,30.98,30.51c5.46,5.67,33.39,27.21,27.16,79.58-2.83,27.96-25.36,49.96-25.36,49.96l-61.93,62.89Z"/>
  <ellipse class="cls-4" cx="173.96" cy="73.58" rx="34.52" ry="34.87" transform="translate(-.53 145.9) rotate(-45.44)"/>
  <path class="cls-2" d="m198.72,97.97c2.4-2.43,4.35-5.14,5.87-8.02l-.73-.71.06-.06c-15.15-14.92-39.84-14.4-55.16,1.16l-.73.74-2.38,2.31c1.18,1.65,2.5,3.23,4,4.71,13.72,13.51,35.69,13.46,49.07-.13Z"/>
  <g>
    <path class="cls-6" d="m208.21,199.98c6.18.42,3.94-5.01-1.35-7.45,11.5-.41,5.27-8.65-1.45-9.85,3.88-1.74,1.22-4.83-2.35-6.09.87-.99,1.79-2.15,2.01-3.42.27-1.57-1.94-.97-2.69-.66-.9.37-1.74.93-2.53,1.58,1.96-6.55-1.16-3.93-1.16-3.93-1.08-.51-3.05.74-3.05.74,0,0,3.2-3.89,1.66-4.42-4.24-1.34-7.81.47-9.07,1.25,1.25-.87,4.31-3.25,2.48-4.69-4.1-3.43-12.93,1.28-12.93,1.28,0,0,2.88-6.27-.48-6.94-3.35-.66-6.67,5.68-6.67,5.68.22-7.76-4.01-7.6-4.01-7.6,0,0,.46,2.09.57,9.27-1.07-7.95-10.11,2.38-10.11,2.38,0,0,1.82-4.14.53-5.28-2.11-1.34-9.62,1.24-10.98,7.47-.3-3.6-5.61-10.06-5.33-5.14.29,4.92-.5,8.57-.5,8.57,0,0-.61-6.31-2.14-4.81-1.53,1.5-3.12,10.31-3.12,10.31,0,0-2.97-8.35-4.74-5.33-1.75,3.01,2.97,9.1,2.97,9.1,0,0-8.9.43-9.14,2.45-.12.99,1.43,2.29,3.04,3.36-.73.02-1.45.16-2.02.52-1.48.94-1.07,2.38-.09,3.63-2.33-.08-4.52.32-5.71,2.8-.89,1.86,1.59,3.87,2.67,4.95.19.19.4.4.62.6-3.23.94-7.12,3.76-5.86,6.77,1.7,4.05,9.12.08,9.12.08,0,0-2.86,4.26-1.14,5.79,1.42,1.26,4.05-.73,4.93-1.47-.33.32-.67.73-.93,1.18-1.01.89-2,1.84-2.35,3.14-.6,2.2,2.61,3.35,4.12,3.66,2.54.53,5.31-.39,7.71-1.15,1.41-.44,2.76-1.02,4.04-1.71-1.25,1.23-1.77,2.54.95,2.7,2.66.15,5.72-1.12,8.2-1.92,1.73-.56,3.45-1.27,5.09-2.12-.46.5-.81,1.06-.95,1.7-.51,2.33,5.36,1.94,6.22,1.88,3.1-.21,6.26-1.04,9.26-2-.19.51-.21,1.02.07,1.47,1.01,1.64,4.54-.54,6.61-2.11-.71,1.36-.53,3.06,1.51,3.2,1.89.13,3.92-.57,5.17-1.98,1.04,1.12,2.21,1.97,3.84,2.59,1.8.68,3.88,1.07,5.78.67,1.91-.41,2.45-1.93,2.28-3.55,1.75,1.77,4.2,3.03,6.32,2.74.88-.12,1.21-1.02,1.26-2.08,1.81,1.03,2.86.11,2.7-1.89,2.26,1.39,4.12.65,1.99-3.4,3.34,2.04,4.23-.47.24-3.15,4.55.04,4.92-5-1.12-9.34Z"/>
    <path class="cls-6" d="m192.93,221.3c-1.34,0-2.84-.3-4.33-.86-1.46-.56-2.61-1.29-3.67-2.35-1.31,1.22-3.27,1.9-5.2,1.77-1.23-.08-1.8-.66-2.06-1.12-.22-.39-.31-.85-.27-1.35-1.4.95-3.22,1.97-4.59,1.97-.9,0-1.36-.44-1.59-.81-.19-.31-.29-.65-.28-1.02-3.36,1.04-6.11,1.61-8.6,1.79-.25.01-.92.06-1.74.06-2.48,0-4.06-.4-4.7-1.2-.3-.37-.4-.83-.29-1.33.03-.15.07-.29.13-.43-1.19.54-2.41,1.02-3.65,1.42-.42.14-.85.29-1.29.44-2.23.77-4.79,1.64-7.09,1.51-1.33-.08-2.1-.43-2.35-1.08-.1-.26-.1-.55,0-.86-.81.36-1.64.67-2.47.94l-.25.08c-1.85.59-3.95,1.25-6,1.25-.59,0-1.16-.06-1.69-.17-.53-.11-3.23-.75-4.22-2.36-.36-.59-.45-1.23-.27-1.9.22-.8.64-1.46,1.15-2.06-.98.34-1.98.28-2.64-.31-1.36-1.21-.5-3.56.27-5.07-1.23.52-3.08,1.14-4.76,1.14-1.79,0-3.04-.73-3.62-2.12-.41-.98-.38-2,.11-3.01.9-1.89,3.18-3.38,5.28-4.15-.02-.02-.04-.04-.06-.06-.12-.12-.27-.26-.42-.41-1.23-1.17-3.27-3.13-2.34-5.09,1.23-2.57,3.5-3.02,5.24-3.08-.38-.7-.53-1.36-.43-1.95.11-.64.5-1.18,1.16-1.6.29-.19.63-.33,1-.43-1.61-1.22-2.35-2.23-2.25-3.1.24-2.01,5.93-2.64,8.72-2.83-1.22-1.76-4.02-6.28-2.48-8.91.35-.59.78-.9,1.29-.9,1.45,0,2.87,2.76,3.7,4.75.55-2.7,1.72-7.73,2.94-8.93.25-.24.52-.37.79-.37.78,0,1.29,1.02,1.63,2.28.12-1.43.19-3.26.07-5.3-.05-.96.08-1.6.43-1.96.2-.21.46-.33.76-.33,1.48,0,3.73,3.08,4.67,5.64,2.24-5.27,8.97-7.52,11.18-6.11.9.79.74,2.41.39,3.77,1.69-1.64,4.45-3.95,6.56-3.95.59,0,1.27.18,1.83.79-.16-4.87-.49-6.45-.5-6.47-.03-.14,0-.28.09-.4.09-.11.22-.18.36-.19h0c.28,0,1.51.06,2.63,1.21,1.08,1.11,1.7,2.84,1.84,5.17,1.26-1.92,3.74-4.96,6.31-4.46.77.15,1.33.56,1.67,1.22.74,1.45.12,3.81-.38,5.22,1.68-.76,4.97-2.05,8-2.05,1.8,0,3.26.46,4.34,1.36.63.5.76,1.09.74,1.49-.02.62-.35,1.25-.84,1.85,1.82-.54,4.3-.69,6.53.01.36.12.61.38.7.72.22.77-.39,1.98-1.04,2.96.51-.15,1.06-.2,1.49-.09.28-.19.75-.46,1.21-.46.35,0,.65.15.85.42.27.36.53,1.09,0,3.31.52-.34,1.02-.61,1.53-.82.46-.19,1.23-.41,1.88-.41.56,0,.97.16,1.23.47.24.28.32.67.24,1.14-.2,1.14-.89,2.18-1.68,3.13,2,.85,3.87,2.34,3.94,4.03.03.59-.18,1.37-1.11,2.08,3.88,1.15,7.22,4.32,7.04,6.91-.08,1.13-.9,2.97-5.19,3.49,2.59,1.62,4.22,3.92,3.84,5.65-.14.66-.7,1.71-2.77,1.91,2.78,2.35,4.13,5.05,3.47,7.11-.35,1.09-1.22,1.83-2.46,2.11,1.39,1.16,2.07,2.34,1.8,3.21-.23.76-1.14,1.03-2.31.62.49,1.25.55,2.19.17,2.81-.45.75-1.48.88-2.68.35-.05.62-.25,1.11-.57,1.47-.51.55-1.3.68-2.2.35-.26,1.43-1.09,1.77-1.6,1.84-1.87.25-4.03-.56-5.9-2.12-.17,1.55-1.1,2.59-2.66,2.93-.54.11-1.12.17-1.71.17Zm-8-4.38c.13,0,.26.05.35.15,1.06,1.15,2.18,1.91,3.66,2.46,1.98.75,3.93.98,5.5.65,1.8-.39,2.03-1.86,1.9-3.03-.02-.2.09-.4.27-.49.19-.09.41-.05.55.1,1.79,1.81,4.08,2.86,5.92,2.6.64-.09.81-.93.84-1.63,0-.17.1-.32.25-.4.14-.08.32-.08.47,0,.74.42,1.34.49,1.66.14.27-.29.38-.85.32-1.57-.02-.18.07-.35.23-.45.15-.09.35-.1.5,0,.6.37,1.16.57,1.59.57.37,0,.47-.16.5-.22.11-.18.37-.93-.78-3.12-.1-.19-.06-.43.1-.57s.39-.17.58-.06c.96.59,1.54.68,1.79.68.14,0,.32-.03.35-.14.11-.34-.35-1.49-2.42-2.88-.18-.12-.25-.34-.19-.54.06-.2.25-.37.46-.34h0c1.51,0,2.49-.56,2.81-1.58.5-1.56-.61-4.3-4.22-6.89-.17-.13-.24-.35-.17-.55.07-.2.26-.33.48-.32.22.01.43.02.62.02.86,0,2.34-.15,2.56-1.19.3-1.36-1.59-3.9-4.77-5.36-.2-.09-.31-.31-.27-.53.05-.22.23-.38.45-.39,3.71-.13,5.81-1.1,5.93-2.72.17-2.33-3.66-5.5-7.44-6.18-.21-.04-.36-.2-.39-.41-.03-.21.09-.41.28-.5.76-.34,1.66-.93,1.63-1.79-.05-1.17-1.74-2.63-3.94-3.41-.15-.05-.26-.18-.31-.33-.04-.15,0-.32.1-.44.87-1,1.7-2.07,1.9-3.19.03-.16.02-.29-.03-.35-.03-.03-.13-.12-.49-.12-.48,0-1.12.17-1.51.34-.78.32-1.57.82-2.42,1.51-.17.13-.4.14-.57.03-.17-.12-.25-.34-.19-.54.91-3.04.58-3.7.51-3.8-.31-.03-.7.21-.9.37-.14.12-.35.14-.51.06-.11-.05-.24-.08-.41-.08-.77,0-1.83.57-2.18.79-.2.13-.46.09-.62-.09-.16-.18-.16-.44-.01-.62,1.06-1.29,2.12-3.03,1.96-3.58,0-.03-.01-.05-.08-.07-.95-.3-1.94-.45-2.94-.45-2.74,0-4.91,1.16-5.72,1.65-.22.14-.51.07-.66-.14-.14-.22-.09-.51.13-.66,1.76-1.22,2.82-2.42,2.84-3.21,0-.17-.03-.43-.39-.71-.91-.76-2.17-1.15-3.73-1.15-3.98,0-8.63,2.45-8.68,2.48-.18.1-.41.07-.56-.08-.15-.14-.19-.36-.11-.55.49-1.06,1.59-4.13.86-5.55-.2-.39-.52-.62-1-.72-2.49-.49-5.31,3.83-6.15,5.44-.1.2-.33.3-.55.24-.22-.06-.37-.25-.36-.48.08-2.88-.47-5.02-1.6-6.18-.48-.5-.98-.72-1.35-.83.15,1.09.39,3.63.48,8.69,0,.25-.19.47-.44.49-.25.02-.48-.16-.51-.42-.35-2.59-1.52-2.59-1.9-2.59-2.3,0-6.11,3.77-7.38,5.22-.16.18-.42.22-.62.09-.2-.13-.28-.38-.18-.6.7-1.59,1.36-4.1.65-4.73-.22-.13-.65-.23-1.19-.23-3.02,0-7.96,2.65-9,7.44-.05.23-.27.39-.5.38-.24-.02-.43-.2-.45-.44-.22-2.57-3.09-6.48-4.14-6.48-.1.06-.29.31-.23,1.27.29,4.92-.48,8.55-.51,8.7-.05.23-.26.4-.5.38-.24-.01-.43-.2-.45-.43-.22-2.25-.79-4.43-1.21-4.61,0,0-.04.03-.11.09-1.04,1.02-2.36,6.57-2.98,10.06-.04.22-.22.38-.43.39-.22.02-.42-.11-.49-.32-.97-2.73-2.55-5.68-3.41-5.68-.18,0-.35.23-.46.42-1.3,2.24,1.68,6.94,2.94,8.56.11.14.13.33.06.5-.08.16-.24.27-.41.28-4.1.2-8.57,1.06-8.69,2.03-.03.22.1,1.08,2.83,2.9.17.12.25.33.2.53-.06.2-.24.34-.45.35-.74.02-1.34.17-1.78.45-.42.27-.66.58-.73.95-.12.67.35,1.45.76,1.98.12.15.13.35.05.51-.08.17-.25.28-.45.26-.17,0-.34,0-.51,0-2.48,0-3.9.76-4.75,2.53-.63,1.33,1.03,2.92,2.14,3.98.16.15.31.3.44.43.19.19.4.39.61.59.13.12.18.3.14.46-.04.17-.17.3-.33.35-2.01.58-4.57,2.05-5.46,3.89-.36.76-.39,1.51-.09,2.23.43,1.03,1.33,1.53,2.73,1.53,2.54,0,5.69-1.67,5.72-1.69.19-.1.43-.06.58.1.15.16.16.41.04.59-.68,1.01-2.36,4.15-1.22,5.16.22.19.49.28.82.28,1.28,0,2.99-1.35,3.48-1.76.2-.17.49-.15.67.05.17.19.16.49-.03.67-.31.29-.62.69-.85,1.07-.03.04-.06.08-.1.12-.98.86-1.89,1.73-2.21,2.91-.11.41-.06.78.16,1.14.65,1.06,2.57,1.71,3.6,1.92.47.1.97.15,1.5.15,1.91,0,3.93-.64,5.71-1.21l.25-.08c1.35-.42,2.68-.99,3.96-1.67.21-.11.47-.05.61.14.14.19.12.46-.05.63-.75.74-.93,1.22-.86,1.41.02.07.21.39,1.5.46,2.12.12,4.57-.72,6.72-1.46.45-.15.89-.3,1.31-.44,1.71-.56,3.4-1.26,5.02-2.09.21-.11.46-.05.6.14.14.19.13.45-.03.62-.45.49-.73.98-.84,1.47-.05.21-.02.37.1.52.43.53,1.87.84,3.95.84.79,0,1.43-.04,1.67-.06,2.6-.18,5.51-.81,9.15-1.98.18-.05.37,0,.49.12.13.13.17.33.1.5-.21.57-.09.87.03,1.05.09.15.28.35.77.35,1.08,0,3-.97,5.14-2.59.18-.14.43-.13.6.01.17.15.22.39.12.59-.36.69-.42,1.4-.16,1.86.21.38.64.59,1.28.63,1.83.13,3.68-.58,4.78-1.82.09-.1.22-.16.35-.16h0Z"/>
  </g>
  <path class="cls-5" d="m208.21,199.98c6.18.42,3.94-5.01-1.35-7.45,11.5-.41,5.27-8.65-1.45-9.85,3.88-1.74,1.22-4.83-2.35-6.09.87-.99,1.79-2.15,2.01-3.42.27-1.57-1.94-.97-2.69-.66-.9.37-1.74.93-2.53,1.58,1.96-6.55-1.16-3.93-1.16-3.93-1.08-.51-3.05.74-3.05.74,0,0,3.2-3.89,1.66-4.42-4.24-1.34-7.81.47-9.07,1.25,1.25-.87,4.31-3.25,2.48-4.69-4.1-3.43-12.93,1.28-12.93,1.28,0,0,2.88-6.27-.48-6.94-3.35-.66-6.67,5.68-6.67,5.68.22-7.76-4.01-7.6-4.01-7.6,0,0,.46,2.09.57,9.27-1.07-7.95-10.11,2.38-10.11,2.38,0,0,1.82-4.14.53-5.28-2.11-1.34-9.62,1.24-10.98,7.47-.3-3.6-5.61-10.06-5.33-5.14.29,4.92-.5,8.57-.5,8.57,0,0-.61-6.31-2.14-4.81-1.53,1.5-3.12,10.31-3.12,10.31,0,0-2.97-8.35-4.74-5.33-1.75,3.01,2.97,9.1,2.97,9.1,0,0-8.9.43-9.14,2.45-.12.99,1.43,2.29,3.04,3.36-.73.02-1.45.16-2.02.52-1.48.94-1.07,2.38-.09,3.63-2.33-.08-4.52.32-5.71,2.8-.89,1.86,1.59,3.87,2.67,4.95.19.19.4.4.62.6-3.23.94-7.12,3.76-5.86,6.77,1.7,4.05,9.12.08,9.12.08,0,0-2.86,4.26-1.14,5.79,1.42,1.26,4.05-.73,4.93-1.47-.33.32-.67.73-.93,1.18-1.01.89-2,1.84-2.35,3.14-.6,2.2,2.61,3.35,4.12,3.66,2.54.53,5.31-.39,7.71-1.15,1.41-.44,2.76-1.02,4.04-1.71-1.25,1.23-1.77,2.54.95,2.7,2.66.15,5.72-1.12,8.2-1.92,1.73-.56,3.45-1.27,5.09-2.12-.46.5-.81,1.06-.95,1.7-.51,2.33,5.36,1.94,6.22,1.88,3.1-.21,6.26-1.04,9.26-2-.19.51-.21,1.02.07,1.47,1.01,1.64,4.54-.54,6.61-2.11-.71,1.36-.53,3.06,1.51,3.2,1.89.13,3.92-.57,5.17-1.98,1.04,1.12,2.21,1.97,3.84,2.59,1.8.68,3.88,1.07,5.78.67,1.91-.41,2.45-1.93,2.28-3.55,1.75,1.77,4.2,3.03,6.32,2.74.88-.12,1.21-1.02,1.26-2.08,1.81,1.03,2.86.11,2.7-1.89,2.26,1.39,4.12.65,1.99-3.4,3.34,2.04,4.23-.47.24-3.15,4.55.04,4.92-5-1.12-9.34Z"/>
  <path class="cls-6" d="m200.81,186.67c-1.57,2.94-5.39,4.38-8.38,5.34-.07.02-.13.04-.2.06,1.17.38,1.98,1.1,2,2.34.05,2.63-2.67,3.77-5.66,4.12.21.15.41.31.59.49,1.78,1.75,1.83,4.22-.02,6-5.04,4.86-12.03,1.59-17.35-1.18.25,1.54.51,3.34-.23,4.7-.78,1.42-2.47,2.1-4.06,1.74-3.43-.76-4.73-4.54-5.85-7.64-.19,1.61-.22,3.31-1,4.72-.58,1.06-1.87,2.03-3.11,1.32-.7-.4-1.2-1.08-1.55-1.89-3.89,2.91-8.67,5.95-13.47,5.87-1.38-.02-3.99-.28-4.26-2.09-.22-1.47.69-2.85,1.57-3.95.88-1.09,1.87-2.08,2.92-3-1.71.64-3.46,1.16-5.2,1.65-2.28.64-5.92,1.84-8.17.56-2.07-1.18-1.12-3.27.44-4.42,1.25-.92,2.79-1.74,4.37-2.3-1.38-.05-2.75-.16-4.11-.38-1.91-.32-4.76-.8-5.64-2.82-1.3-2.96,2.74-4.45,6.92-5.09-.9-.51-1.7-1.16-2.12-2.02-.99-2.02,2.28-3.12,3.64-3.3,2.34-.32,5.13-.18,7.28,1.02-1.09-2.5-1.77-5.21-2.25-7.87-.18-.97-1.01-4.21.52-4.61,1.43-.37,2.42,1.83,2.89,2.8.49,1,.92,2.02,1.32,3.05-.13-2.26-.13-4.55-.09-6.79.02-1.1-.21-4.03,1.4-4.27,1.17-.17,1.8,1.55,2.14,3.52.49-1.25,1.27-2.15,2.55-2.23,2.23-.14,2.91,2.43,3.15,5.09.2-1.12.47-2.21.83-3.26.69-1.98,1.95-4.72,4.39-4.87,2.76-.17,3.39,2.52,3.26,5.48.86-1.59,2-2.92,3.42-3.46,2.2-.84,2.54.35,2.24,1.86,1.3-1.51,2.95-2.77,4.64-3.45,1.94-.77,4.79-.79,5.33,1.72.36,1.72-.55,3.69-1.58,5.36,1.12-1.01,2.29-1.96,3.53-2.82,1.8-1.25,6.8-4.57,8.87-1.94,1.53,1.95-.57,4.9-1.73,6.49-.36.5-.74.99-1.13,1.48,1.3-.8,3.18-1.8,4.59-.75.13.1.22.24.17.41-.47,1.7-1.71,2.93-3.05,4.03,3.44-1.51,7.34-3.02,10.87-1.96,2.75.82,6.02,4.01,4.36,7.11Z"/>
  <g>
    <path class="cls-1" d="m227.17,206.46c4.54.31,2.9-3.69-.99-5.48,8.46-.3,3.87-6.36-1.07-7.24,2.85-1.27.9-3.55-1.73-4.48.64-.73,1.31-1.58,1.48-2.51.2-1.15-1.42-.72-1.98-.49-.66.27-1.28.68-1.86,1.16,1.44-4.81-.85-2.89-.85-2.89-.79-.37-2.24.54-2.24.54,0,0,2.35-2.86,1.22-3.25-3.12-.98-5.74.35-6.67.92.92-.64,3.17-2.39,1.82-3.45-3.01-2.52-9.51.95-9.51.95,0,0,2.12-4.61-.35-5.1-2.46-.48-4.9,4.18-4.9,4.18.16-5.7-2.94-5.58-2.94-5.58,0,0,.34,1.54.42,6.81-.79-5.84-7.44,1.75-7.44,1.75,0,0,1.34-3.04.39-3.88-1.55-.99-7.07.91-8.07,5.49-.22-2.64-4.12-7.4-3.92-3.78.21,3.61-.37,6.3-.37,6.3,0,0-.44-4.64-1.57-3.54-1.13,1.1-2.29,7.58-2.29,7.58,0,0-2.19-6.14-3.48-3.92-1.29,2.21,2.19,6.69,2.19,6.69,0,0-6.55.31-6.72,1.8-.08.72,1.05,1.68,2.24,2.47-.53.02-1.06.12-1.48.38-1.09.69-.78,1.75-.07,2.67-1.71-.06-3.32.23-4.2,2.06-.65,1.37,1.17,2.84,1.96,3.64.14.14.3.29.46.44-2.38.69-5.24,2.76-4.31,4.98,1.25,2.98,6.71.06,6.71.06,0,0-2.1,3.13-.84,4.26,1.05.92,2.98-.54,3.62-1.08-.24.23-.49.54-.68.87-.74.65-1.47,1.35-1.73,2.31-.44,1.62,1.92,2.46,3.03,2.69,1.87.39,3.91-.29,5.66-.84,1.03-.33,2.03-.75,2.97-1.26-.92.9-1.3,1.87.7,1.98,1.95.11,4.21-.82,6.03-1.41,1.27-.41,2.53-.94,3.74-1.56-.34.37-.6.78-.7,1.25-.38,1.72,3.95,1.42,4.58,1.38,2.28-.16,4.61-.76,6.81-1.48-.14.38-.15.75.05,1.08.74,1.2,3.34-.39,4.86-1.55-.52,1-.39,2.25,1.11,2.35,1.39.09,2.88-.42,3.8-1.46.76.83,1.63,1.45,2.82,1.9,1.32.5,2.85.79,4.24.49,1.4-.3,1.8-1.42,1.68-2.61,1.29,1.3,3.09,2.23,4.65,2.02.64-.09.89-.75.93-1.53,1.33.76,2.11.08,1.98-1.39,1.66,1.02,3.03.48,1.46-2.5,2.46,1.5,3.11-.35.18-2.32,3.34.02,3.62-3.68-.83-6.87Z"/>
    <path class="cls-1" d="m215.94,222.27c-1,0-2.12-.22-3.23-.64-1.05-.4-1.89-.92-2.66-1.67-.98.87-2.41,1.35-3.83,1.26-.96-.07-1.41-.52-1.61-.89-.14-.24-.21-.52-.22-.82-1.01.67-2.27,1.34-3.24,1.34-.72,0-1.09-.36-1.27-.66-.13-.2-.2-.42-.22-.65-2.41.74-4.39,1.14-6.2,1.27-.19.01-.68.05-1.29.05-1.89,0-3.05-.3-3.55-.93-.25-.31-.33-.68-.24-1.08,0-.02,0-.04.01-.06-.8.35-1.62.66-2.44.93-.3.1-.62.21-.95.32-1.65.57-3.55,1.21-5.26,1.11-.38-.02-1.54-.09-1.84-.88-.05-.15-.08-.3-.06-.47-.53.23-1.06.42-1.6.59l-.19.06c-1.37.43-2.92.92-4.45.92-.44,0-.87-.04-1.27-.13-.4-.08-2.43-.56-3.18-1.79-.28-.46-.35-.97-.21-1.49.13-.47.35-.88.62-1.25-.64.14-1.25.02-1.68-.36-.97-.86-.51-2.45.02-3.58-.9.35-2.12.72-3.24.72-1.73,0-2.46-.89-2.78-1.63-.31-.75-.28-1.55.08-2.32.65-1.37,2.25-2.45,3.77-3.05-.07-.06-.14-.13-.21-.2-.93-.88-2.48-2.37-1.75-3.89.89-1.85,2.48-2.26,3.77-2.32-.23-.47-.31-.92-.24-1.34.09-.51.4-.93.91-1.26.16-.11.34-.19.53-.26-1.1-.87-1.58-1.59-1.5-2.25.18-1.5,3.96-2.01,6.3-2.18-.98-1.44-2.82-4.57-1.7-6.5.35-.6.77-.72,1.06-.72,1.04,0,2.02,1.71,2.68,3.19.44-2.06,1.25-5.39,2.11-6.23.21-.2.43-.3.67-.3.49,0,.85.46,1.12,1.14.05-.93.07-2.02,0-3.23-.04-.75.07-1.24.35-1.54.17-.18.4-.28.65-.28,1.1,0,2.69,2.07,3.45,3.94,1.8-3.76,6.62-5.32,8.27-4.27.62.55.62,1.56.43,2.49,1.27-1.19,3.12-2.64,4.61-2.64.39,0,.82.09,1.2.4-.12-3.32-.35-4.41-.35-4.42-.03-.14,0-.28.09-.4.09-.11.22-.18.36-.18.19,0,1.17.04,2.04.93.75.78,1.21,1.95,1.36,3.5.99-1.44,2.72-3.38,4.56-3.02.6.12,1.05.45,1.32.97.52,1.02.18,2.59-.17,3.66,1.31-.57,3.56-1.4,5.66-1.4,1.35,0,2.45.35,3.27,1.03.5.4.6.87.59,1.2-.01.38-.18.76-.43,1.14,1.3-.33,3-.37,4.52.11.31.11.52.32.6.62.15.54-.19,1.32-.61,2.02.27-.05.56-.06.8,0,.22-.14.56-.33.92-.33.29,0,.55.13.73.36.21.29.39.81.09,2.23.3-.18.59-.32.88-.45.35-.14.93-.31,1.43-.31.45,0,.78.13,1,.39.14.16.29.46.21.94-.14.82-.61,1.55-1.15,2.23,1.45.65,2.77,1.75,2.82,3,.02.43-.11.97-.68,1.48,2.8.92,5.17,3.23,5.04,5.14-.06.84-.63,2.19-3.59,2.64,1.78,1.21,2.86,2.85,2.59,4.1-.11.48-.49,1.25-1.86,1.47,1.94,1.72,2.86,3.67,2.37,5.17-.25.78-.84,1.32-1.67,1.58.94.84,1.38,1.69,1.18,2.34-.18.57-.8.83-1.61.61.29.84.3,1.49.03,1.94-.34.57-1.09.71-1.98.38-.06.4-.2.73-.43.98-.38.41-.96.54-1.62.34-.24,1.01-.86,1.26-1.25,1.31-1.35.18-2.9-.37-4.27-1.45-.2,1.07-.91,1.8-2.02,2.04-.41.09-.84.13-1.29.13Zm-5.88-3.48c.13,0,.26.05.35.16.76.82,1.58,1.37,2.64,1.78,1.44.54,2.84.71,3.97.47.98-.21,1.42-.92,1.3-2.09-.02-.2.09-.4.27-.48.18-.09.4-.05.55.1,1.29,1.3,2.93,2.06,4.24,1.88.38-.05.49-.61.51-1.08,0-.17.1-.32.25-.4.15-.08.33-.08.47,0,.83.47.98.22,1.06.12.17-.18.24-.57.2-1.06-.01-.18.07-.36.23-.45.15-.09.35-.1.5,0,.42.26.82.4,1.1.4.2,0,.25-.07.26-.1.14-.23.07-.94-.57-2.17-.1-.19-.06-.43.1-.57.16-.15.39-.17.58-.06.71.43,1.11.48,1.25.48.11,0,.15-.02.15-.02.04-.13-.23-.95-1.74-1.97-.18-.12-.25-.34-.19-.54.06-.2.21-.35.46-.34h0c1.04,0,1.73-.38,1.95-1.07.36-1.11-.45-3.06-3.06-4.93-.17-.13-.25-.35-.17-.55.07-.2.27-.33.49-.32.16,0,.31.02.45.02.6,0,1.61-.1,1.76-.77.21-.95-1.15-2.75-3.43-3.8-.2-.1-.31-.31-.27-.53.04-.22.23-.38.45-.39,2.62-.09,4.16-.78,4.23-1.88.11-1.5-2.4-3.88-5.37-4.41-.21-.04-.37-.21-.39-.41-.03-.21.09-.41.28-.5.52-.23,1.14-.63,1.12-1.2-.03-.81-1.25-1.84-2.81-2.39-.15-.05-.27-.18-.31-.33-.04-.15,0-.32.1-.44.63-.72,1.23-1.49,1.37-2.28.02-.11,0-.15,0-.16h0s-.07-.04-.26-.04c-.34,0-.79.12-1.07.24-.56.23-1.13.59-1.74,1.09-.17.13-.4.14-.57.03-.18-.12-.25-.34-.2-.54.68-2.27.41-2.66.4-2.68-.07.03-.32.17-.48.3-.14.12-.35.15-.51.06-.06-.03-.14-.04-.24-.04-.54,0-1.29.4-1.53.56-.2.13-.46.09-.62-.09-.15-.18-.16-.44,0-.62.84-1.02,1.51-2.22,1.42-2.52-.66-.18-1.38-.29-2.1-.29-1.98,0-3.55.84-4.14,1.2-.22.14-.51.07-.66-.15-.14-.22-.09-.51.13-.66,1.24-.86,2.02-1.73,2.04-2.26,0-.11-.02-.25-.24-.42-.65-.55-1.54-.82-2.67-.82-2.89,0-6.28,1.79-6.32,1.81-.18.1-.41.07-.56-.08-.15-.14-.19-.36-.11-.55.35-.77,1.15-2.97.64-3.97-.13-.25-.33-.4-.65-.46-1.75-.34-3.78,2.77-4.38,3.93-.1.2-.33.3-.55.24-.22-.06-.36-.25-.36-.48.06-2.08-.34-3.62-1.14-4.45-.26-.27-.53-.42-.75-.52.11.9.27,2.77.33,6.2,0,.26-.19.47-.45.49-.25.02-.48-.16-.51-.41-.24-1.79-1.01-1.79-1.27-1.79-1.64,0-4.4,2.74-5.33,3.8-.15.18-.42.22-.62.09-.2-.13-.28-.38-.18-.6.5-1.14.96-2.93.51-3.33-.12-.07-.42-.13-.79-.13-1.8,0-5.68,1.62-6.49,5.36-.05.23-.27.39-.5.38-.24-.02-.43-.2-.45-.44-.16-1.9-2.25-4.62-2.91-4.65,0,.02-.09.21-.05.8.21,3.64-.35,6.32-.38,6.43-.05.23-.27.39-.5.38-.24-.01-.43-.2-.45-.43-.14-1.44-.48-2.87-.76-3.22-.78.9-1.72,4.92-2.15,7.31-.04.21-.22.38-.43.39-.21.03-.42-.11-.49-.32-.76-2.14-1.9-4.09-2.38-4.09-.04,0-.13.08-.23.25-.92,1.58,1.24,4.98,2.15,6.15.11.14.13.33.06.49-.07.17-.23.27-.41.28-3.46.17-6.21.88-6.27,1.38,0,.06-.01.66,2.03,2.01.17.12.25.33.19.53-.06.2-.24.34-.45.35-.52.02-.94.12-1.24.31-.28.18-.44.38-.48.61-.06.35.13.83.53,1.35.11.15.13.35.05.51-.08.17-.25.28-.44.26-.12,0-.25,0-.37,0-1.77,0-2.78.54-3.38,1.79-.43.89.76,2.03,1.55,2.78.12.12.23.22.33.32.14.14.29.28.45.43.13.12.18.3.14.47-.04.17-.17.3-.34.35-1.45.42-3.3,1.47-3.93,2.8-.25.53-.27,1.03-.06,1.53.3.7.91,1.05,1.89,1.05,1.83,0,4.12-1.21,4.15-1.22.19-.11.43-.06.58.1.15.16.17.41.04.59-.61.91-1.63,2.99-.92,3.63.14.12.31.18.52.18.9,0,2.12-.97,2.48-1.27.2-.17.49-.14.67.05.17.19.16.49-.03.67-.22.21-.44.49-.6.76-.03.04-.06.08-.1.12-.7.62-1.36,1.24-1.58,2.07-.07.27-.04.5.1.74.4.65,1.57,1.15,2.56,1.36.33.07.7.1,1.07.1,1.38,0,2.86-.47,4.16-.88l.19-.06c.99-.31,1.96-.72,2.89-1.22.21-.11.47-.05.61.14.14.19.12.46-.05.63-.57.56-.62.85-.6.9.02.04.23.21.99.26,1.54.09,3.33-.53,4.89-1.06.33-.11.65-.22.96-.32,1.26-.41,2.49-.92,3.67-1.53.21-.1.46-.05.6.14.14.19.13.44-.03.62-.32.35-.51.68-.58,1.03-.03.15,0,.22.05.27.11.13.63.57,2.8.57.57,0,1.04-.03,1.22-.04,1.9-.13,4.03-.59,6.69-1.45.17-.06.37,0,.49.13.13.13.17.33.11.5-.14.36-.06.55,0,.66.06.09.16.2.46.2.76,0,2.18-.72,3.71-1.88.18-.14.43-.13.6.01.17.14.22.39.12.59-.24.47-.29.95-.12,1.25.13.24.42.37.84.4,1.31.09,2.62-.41,3.41-1.3.09-.1.22-.16.35-.16h0Z"/>
  </g>
  <path class="cls-5" d="m227.17,206.46c4.54.31,2.9-3.69-.99-5.48,8.46-.3,3.87-6.36-1.07-7.24,2.85-1.27.9-3.55-1.73-4.48.64-.73,1.31-1.58,1.48-2.51.2-1.15-1.42-.72-1.98-.49-.66.27-1.28.68-1.86,1.16,1.44-4.81-.85-2.89-.85-2.89-.79-.37-2.24.54-2.24.54,0,0,2.35-2.86,1.22-3.25-3.12-.98-5.74.35-6.67.92.92-.64,3.17-2.39,1.82-3.45-3.01-2.52-9.51.95-9.51.95,0,0,2.12-4.61-.35-5.1-2.46-.48-4.9,4.18-4.9,4.18.16-5.7-2.94-5.58-2.94-5.58,0,0,.34,1.54.42,6.81-.79-5.84-7.44,1.75-7.44,1.75,0,0,1.34-3.04.39-3.88-1.55-.99-7.07.91-8.07,5.49-.22-2.64-4.12-7.4-3.92-3.78.21,3.61-.37,6.3-.37,6.3,0,0-.44-4.64-1.57-3.54-1.13,1.1-2.29,7.58-2.29,7.58,0,0-2.19-6.14-3.48-3.92-1.29,2.21,2.19,6.69,2.19,6.69,0,0-6.55.31-6.72,1.8-.08.72,1.05,1.68,2.24,2.47-.53.02-1.06.12-1.48.38-1.09.69-.78,1.75-.07,2.67-1.71-.06-3.32.23-4.2,2.06-.65,1.37,1.17,2.84,1.96,3.64.14.14.3.29.46.44-2.38.69-5.24,2.76-4.31,4.98,1.25,2.98,6.71.06,6.71.06,0,0-2.1,3.13-.84,4.26,1.05.92,2.98-.54,3.62-1.08-.24.23-.49.54-.68.87-.74.65-1.47,1.35-1.73,2.31-.44,1.62,1.92,2.46,3.03,2.69,1.87.39,3.91-.29,5.66-.84,1.03-.33,2.03-.75,2.97-1.26-.92.9-1.3,1.87.7,1.98,1.95.11,4.21-.82,6.03-1.41,1.27-.41,2.53-.94,3.74-1.56-.34.37-.6.78-.7,1.25-.38,1.72,3.95,1.42,4.58,1.38,2.28-.16,4.61-.76,6.81-1.48-.14.38-.15.75.05,1.08.74,1.2,3.34-.39,4.86-1.55-.52,1-.39,2.25,1.11,2.35,1.39.09,2.88-.42,3.8-1.46.76.83,1.63,1.45,2.82,1.9,1.32.5,2.85.79,4.24.49,1.4-.3,1.8-1.42,1.68-2.61,1.29,1.3,3.09,2.23,4.65,2.02.64-.09.89-.75.93-1.53,1.33.76,2.11.08,1.98-1.39,1.66,1.02,3.03.48,1.46-2.5,2.46,1.5,3.11-.35.18-2.32,3.34.02,3.62-3.68-.83-6.87Zm-5.44-9.78c-1.16,2.16-3.97,3.22-6.16,3.92-.05.01-.1.03-.15.05.86.28,1.45.81,1.47,1.72.04,1.94-1.96,2.77-4.16,3.03.15.11.3.23.43.36,1.31,1.29,1.35,3.1-.02,4.41-3.7,3.57-8.85,1.17-12.75-.87.18,1.14.38,2.46-.17,3.46-.57,1.04-1.81,1.54-2.98,1.28-2.52-.55-3.48-3.34-4.3-5.61-.14,1.18-.16,2.43-.74,3.47-.43.77-1.37,1.49-2.29.97-.51-.3-.88-.79-1.14-1.39-2.86,2.13-6.37,4.37-9.9,4.32-1.01-.02-2.93-.21-3.13-1.54-.16-1.08.51-2.1,1.15-2.9.64-.8,1.37-1.53,2.15-2.21-1.26.47-2.55.86-3.82,1.22-1.67.47-4.35,1.35-6,.41-1.52-.87-.83-2.41.32-3.25.92-.68,2.05-1.28,3.21-1.69-1.01-.04-2.02-.12-3.02-.28-1.4-.23-3.5-.59-4.14-2.07-.95-2.18,2.01-3.27,5.09-3.74-.66-.38-1.25-.85-1.56-1.48-.73-1.48,1.68-2.3,2.68-2.43,1.72-.23,3.77-.13,5.35.75-.8-1.84-1.3-3.83-1.66-5.79-.13-.71-.74-3.09.39-3.39,1.05-.27,1.78,1.35,2.13,2.06.36.73.67,1.48.97,2.24-.1-1.66-.1-3.35-.06-4.99.01-.81-.16-2.96,1.03-3.14.86-.13,1.32,1.14,1.57,2.59.36-.92.93-1.58,1.88-1.64,1.64-.1,2.14,1.79,2.31,3.74.15-.82.35-1.62.61-2.39.51-1.46,1.43-3.47,3.23-3.58,2.03-.13,2.49,1.85,2.39,4.02.63-1.17,1.47-2.14,2.51-2.54,1.62-.62,1.86.26,1.65,1.37.96-1.11,2.17-2.04,3.41-2.54,1.43-.57,3.53-.58,3.92,1.26.27,1.27-.41,2.71-1.16,3.94.82-.74,1.68-1.44,2.59-2.07,1.33-.92,5-3.36,6.52-1.42,1.13,1.43-.42,3.6-1.27,4.77-.26.36-.54.73-.83,1.09.96-.58,2.34-1.32,3.37-.55.1.07.16.18.12.3-.35,1.25-1.25,2.15-2.24,2.96,2.53-1.11,5.4-2.22,7.99-1.44,2.02.61,4.43,2.95,3.21,5.23Z"/>
</svg>