<?xml version="1.0" encoding="UTF-8"?>
<svg id="Layer_1" data-name="Layer 1" xmlns="http://www.w3.org/2000/svg" viewBox="0 0 334.73 354.82">
  <defs>
    <style>
      .cls-1 {
        opacity: .7;
      }

      .cls-2 {
        fill: #fff;
      }

      .cls-3 {
        opacity: .6;
      }

      .cls-4 {
        fill: #23b55e;
      }

      .cls-5 {
        opacity: .2;
      }

      .cls-6 {
        fill: #7cbf3c;
      }

      .cls-7 {
        fill: #c1382b;
      }

      .cls-8 {
        opacity: .15;
      }

      .cls-9 {
        opacity: .45;
      }

      .cls-10 {
        fill: #96dd5e;
      }

      .cls-11 {
        fill: #000072;
      }

      .cls-12 {
        fill: #dd2f22;
      }
    </style>
  </defs>
  <path class="cls-10" d="m180.08,327.56l-64.35-63.37s-30.7-29.92-20.48-79.56c4.15-25.18,23.41-45.62,50.71-70.98l7.43-7.19.73-.74c15.32-15.55,40.01-16.07,55.16-1.16l-.06.06,30.98,30.51c5.46,5.67,33.39,27.21,27.16,79.58-2.83,27.96-25.36,49.96-25.36,49.96l-61.93,62.89Z"/>
  <ellipse class="cls-12" cx="179.23" cy="88.88" rx="34.52" ry="34.87" transform="translate(-9.85 154.22) rotate(-45.44)"/>
  <path class="cls-7" d="m203.99,113.26c2.4-2.43,4.35-5.14,5.87-8.02l-.73-.71.06-.06c-15.15-14.92-39.84-14.4-55.16,1.16l-.73.74-2.38,2.31c1.18,1.65,2.5,3.23,4,4.71,13.72,13.51,35.69,13.46,49.07-.13Z"/>
  <circle class="cls-12" cx="193.83" cy="229.64" r="17.81"/>
  <g class="cls-8">
    <path class="cls-11" d="m209.72,230.3c-1.75,9.68-11.02,16.11-20.7,14.36-4.46-.81-8.23-3.21-10.84-6.52-1.1-2.03-1.82-4.27-2.07-6.62,2.4,2.68,5.67,4.61,9.49,5.3,9.1,1.64,17.81-4.4,19.46-13.5.49-2.72.29-5.41-.47-7.88,1.23.94,2.33,2.03,3.27,3.24,1.86,3.43,2.6,7.49,1.85,11.62Z"/>
  </g>
  <g class="cls-3">
    <path class="cls-2" d="m186.88,222.79c-2.23,1.95-3.68,4.57-5.03,4.65-1.38.2-1.98-4.31,1.9-7.99,3.91-3.64,8.38-2.75,8.09-1.39-.16,1.34-2.87,2.63-4.96,4.73Z"/>
  </g>
  <path class="cls-11" d="m194.13,248.53c-1.21.02-2.44-.08-3.66-.3-4.97-.9-9.29-3.67-12.16-7.82-2.88-4.15-3.97-9.16-3.07-14.13,1.85-10.25,11.7-17.09,21.95-15.23,10.25,1.85,17.09,11.7,15.23,21.95h0c-.9,4.97-3.67,9.29-7.82,12.16-3.13,2.17-6.75,3.32-10.47,3.37Zm-.57-35.63c-3.3.05-6.5,1.07-9.27,2.99-3.67,2.55-6.13,6.37-6.93,10.77-.79,4.4.17,8.84,2.72,12.51,2.55,3.67,6.37,6.13,10.77,6.93,9.08,1.64,17.8-4.41,19.44-13.49h0c1.64-9.08-4.41-17.8-13.49-19.44-1.08-.2-2.17-.28-3.24-.27Zm17.8,19.9h0s0,0,0,0Z"/>
  <circle class="cls-12" cx="164.63" cy="226.56" r="17.81" transform="translate(-111.99 182.77) rotate(-45)"/>
  <g class="cls-8">
    <path class="cls-11" d="m180.52,227.23c-1.75,9.68-11.02,16.11-20.7,14.36-4.46-.81-8.23-3.21-10.84-6.52-1.1-2.03-1.82-4.27-2.07-6.62,2.4,2.68,5.67,4.61,9.49,5.3,9.1,1.64,17.81-4.4,19.46-13.5.49-2.72.29-5.41-.47-7.88,1.23.94,2.33,2.03,3.27,3.24,1.86,3.43,2.6,7.49,1.85,11.62Z"/>
  </g>
  <g class="cls-3">
    <path class="cls-2" d="m157.67,219.72c-2.23,1.95-3.68,4.57-5.03,4.65-1.38.2-1.98-4.31,1.9-7.99,3.91-3.64,8.38-2.75,8.09-1.39-.16,1.34-2.87,2.63-4.96,4.73Z"/>
  </g>
  <path class="cls-11" d="m164.93,245.46c-1.21.02-2.44-.08-3.66-.3-4.97-.9-9.29-3.67-12.16-7.82-2.88-4.15-3.97-9.16-3.07-14.13.9-4.97,3.67-9.29,7.82-12.16,4.15-2.88,9.17-3.97,14.13-3.07,10.25,1.85,17.09,11.7,15.23,21.95h0c-.9,4.97-3.67,9.29-7.82,12.16-3.13,2.17-6.75,3.32-10.47,3.37Zm-.57-35.63c-3.3.05-6.5,1.07-9.27,2.99-3.67,2.55-6.13,6.37-6.93,10.77-.79,4.4.17,8.84,2.72,12.51,2.55,3.67,6.37,6.13,10.77,6.93,4.4.79,8.84-.17,12.51-2.72,3.67-2.55,6.13-6.37,6.93-10.77h0c1.64-9.08-4.41-17.8-13.49-19.44-1.08-.2-2.17-.28-3.24-.27Z"/>
  <g>
    <path class="cls-6" d="m157.6,171.58s17.77,15.33,36.57-.76c.2-.17.4-.35.61-.53.03-.02.06-.05.08-.07,0,0,.01-.01.02-.02,0,0,0,0,0-.02-.03-.06-.14-.23-.32-.51h0c-1.34-1.99-6.67-8.77-17.31-9.27-3.89-.18-7.26.84-10.07,2.33,0,0,0,0,0,0-.45.24-.87.49-1.28.74-5.35,3.32-8.28,8.1-8.28,8.1Z"/>
    <g class="cls-5">
      <path class="cls-11" d="m157.6,171.58s18.15,15.66,37.17-1.29l-.23-.62h0c-.35.19-13.96,8.29-32.82,1.06,0,0,.6-3.96,5.44-7.99-6.17,3.29-9.56,8.84-9.56,8.84Z"/>
    </g>
    <g class="cls-9">
      <path class="cls-2" d="m165.87,163.47c.22-.07.45-.14.69-.22,15.63-5.1,25.74,5.41,27.61,7.56.21.24.31.37.31.37,0,0,.15-.37.38-.97v-.04c-.02-.06-.12-.23-.31-.51h0c-1.34-1.99-6.67-8.77-17.31-9.27-3.89-.18-7.26.84-10.07,2.33,0,0,0,0,0,0-.45.24-.87.49-1.28.74Z"/>
    </g>
    <path class="cls-11" d="m194.47,171.14c-8.93-3.55-19-4.07-28.34-1.83-.28.08-.44-.35-.15-.46,4.62-1.83,9.65-2.58,14.61-2.43,5.04.11,9.96.99,14.7,2.83.53.21.79.81.58,1.34-.22.56-.87.81-1.41.55h0Z"/>
    <g class="cls-1">
      <path class="cls-2" d="m173.5,163.64c4.72-1.82,8.64-.41,10.95.93.43.25.16,1.07-.32.96-4.27-.99-8.14-1.02-10.56-.89-.49.03-.55-.81-.08-1Z"/>
    </g>
    <path class="cls-11" d="m176.24,179.15c-11.07.15-19.2-6.69-19.32-6.8-.38-.33-.47-.89-.21-1.32.31-.5,7.63-12.28,20.56-11.67,12.88.6,18.28,9.92,18.5,10.31.24.42.15.95-.21,1.27-6.76,6.06-13.46,8.11-19.32,8.2Zm-17.26-7.79c3.46,2.61,18.5,12.4,34.54-1.37-1.46-2.09-6.48-8.11-16.35-8.57-9.89-.46-16.39,7.43-18.19,9.94Z"/>
  </g>
  <g>
    <path class="cls-4" d="m196.15,216.09c-1.06.07-1.98-.73-2.05-1.79-1.04-15.47-.38-31.52.04-38.92-17.36,14.04-26.01,37.07-26.1,37.32-.33.89-1.24,1.39-2.15,1.23-.11-.02-.21-.05-.33-.09-.24-.09-.45-.22-.62-.38-.44-.39-.67-.97-.62-1.56,0-.17.04-.35.11-.52.4-1.1,10.05-26.8,30.22-41.2.51-1.15.9-2.58.79-4.16-.03-.42.27-.78.69-.83.22-.03.48-.05.77-.06.43,0,.91.02,1.44.11.43.07.72.48.65.91-.18,1.05-.52,3.11-.74,5.25,0,.03,0,.06,0,.09,0,.05-.09,1.19-.21,3.17,0,.1,0,.21,0,.31h-.01c-.41,6.96-1.15,23.33-.08,39.08.07,1.06-.73,1.97-1.79,2.05Z"/>
    <g class="cls-3">
      <path class="cls-2" d="m195.5,172.31c-17.64,10.59-30.56,41.15-30.56,41.15,0,0-.24-.6-.62-1.56,0-.17.04-.35.11-.52.4-1.1,10.05-26.8,30.22-41.2.51-1.15.9-2.58.79-4.16-.03-.42.27-.78.69-.83.22-.03.48-.05.77-.06.57,1.84-.17,4.79-.57,6.13-.13.45-.43.82-.83,1.06Z"/>
    </g>
    <path class="cls-11" d="m196.05,217.06c-.71,0-1.39-.24-1.93-.71-.58-.51-.93-1.21-.98-1.98-.95-13.99-.51-28.34-.08-36.82-16.02,13.95-24.04,35.27-24.12,35.49-.49,1.32-1.84,2.09-3.22,1.84-.16-.03-.32-.07-.48-.13-1.49-.55-2.26-2.21-1.71-3.7.4-1.1,10.08-26.9,30.34-41.49.48-1.17.69-2.33.61-3.47-.06-.93.61-1.74,1.53-1.85.58-.07,1.47-.11,2.48.06.47.08.87.34,1.14.72.27.38.37.84.29,1.3-.18,1.01-.5,3.02-.72,5.14,0,.04,0,.08,0,.12,0,.08-.09,1.21-.21,3.15v.25c0,.07-.01.14-.03.21-.39,6.54-1.14,23.05-.07,38.79h0c.05.77-.2,1.51-.7,2.09-.51.58-1.21.93-1.98.98-.05,0-.11,0-.16,0Zm-1.92-42.63c.15,0,.31.03.45.11.34.17.54.53.52.91-.46,7.97-1.07,23.61-.04,38.8.02.26.13.49.33.66.19.17.44.25.69.23.26-.02.49-.13.66-.33.17-.19.25-.44.23-.7h0c-1.08-15.98-.3-32.74.08-39.2,0-.04,0-.08.01-.12v-.15c.12-2,.21-3.15.22-3.23v-.05s0-.05,0-.07c.21-2.08.53-4.05.72-5.14-.62-.09-1.19-.08-1.6-.04.07,1.48-.23,2.97-.88,4.45-.07.16-.18.29-.32.39-19.93,14.23-29.48,39.67-29.87,40.75-.18.5.07,1.05.57,1.23.05.02.11.03.16.04.46.08.91-.17,1.07-.61.09-.23,8.83-23.52,26.4-37.73.17-.14.38-.21.59-.21Z"/>
  </g>
</svg>