<?xml version="1.0" encoding="UTF-8"?>
<svg id="Layer_1" data-name="Layer 1" xmlns="http://www.w3.org/2000/svg" viewBox="0 0 334.73 354.82">
  <defs>
    <style>
      .cls-1 {
        fill: #02151d;
      }

      .cls-2 {
        fill: #d2fc98;
      }

      .cls-3 {
        fill: #e4f5be;
      }

      .cls-4 {
        fill: #5ab134;
      }

      .cls-5 {
        fill: #87d934;
      }

      .cls-6 {
        fill: #031c1a;
      }

      .cls-7 {
        fill: #c1382b;
      }

      .cls-8 {
        fill: #126207;
      }

      .cls-9 {
        fill: #04190e;
      }

      .cls-10 {
        fill: #96dd5e;
      }

      .cls-11 {
        fill: #dd2f22;
      }

      .cls-12 {
        fill: #79cd34;
      }

      .cls-13 {
        fill: #489934;
      }

      .cls-14 {
        fill: #a3f03e;
      }
    </style>
  </defs>
  <path class="cls-10" d="m168.4,330.91l-64.35-63.37s-30.7-29.92-20.48-79.56c4.15-25.18,23.41-45.62,50.71-70.98l7.43-7.19.73-.74c15.32-15.55,40.01-16.07,55.16-1.16l-.06.06,30.98,30.51c5.46,5.67,33.39,27.21,27.16,79.58-2.83,27.96-25.36,49.96-25.36,49.96l-61.93,62.89Z"/>
  <ellipse class="cls-11" cx="167.56" cy="92.23" rx="34.52" ry="34.87" transform="translate(-15.72 146.91) rotate(-45.44)"/>
  <path class="cls-7" d="m192.32,116.62c2.4-2.43,4.35-5.14,5.87-8.02l-.73-.71.06-.06c-15.15-14.92-39.84-14.4-55.16,1.16l-.73.74-2.38,2.31c1.18,1.65,2.5,3.23,4,4.71,13.72,13.51,35.69,13.46,49.07-.13Z"/>
  <path class="cls-9" d="m230.81,205.03c-1.02.19-1.88.17-2.88.18-.05,0-.1.04-.1.1,0,0,0,.02,0,.03.79,2.69-4.18,1.71-5.34,1.56-.51-.07-2.16-.09-2.45.48-.09.19-.04.33.15.42,1.22.54,3.98,2.17,3.55,3.84-.23.91-1.25,1.35-2.13,1.23-.04,0-.05,0-.03.04.44.76,1.21,1.62.82,2.58-.23.57-.69.83-1.38.79-.02,0-.04.01-.04.04,0,0,0,.01,0,.02.37,1.07.07,2.31-1.21,2.55-1.04.19-2.56-.55-3.28-1.2-.53-.48-.92-.79-1.16-.94-.91.38-2.63.75-3.53.29-.1-.05-.14-.02-.12.09.2.89-.07,2.17-1.2,2.18-.24,0-.46-.1-.7-.17-.02,0-.04,0-.05.03,0,0,0,.01,0,.02.36,1.88-1.42,3.42-3.21,2.47-.09-.04-.16-.11-.2-.19-.01-.03,0-.06.02-.07,0,0,0,0,0,0h.04s.06-.05.06-.08l.04-.43s.03-.06.06-.05c0,0,0,0,0,0l.15.03c.88.62,1.99.21,2.29-.78.04-.13.05-.41.05-.83,0-.31.03-.62.09-.93l1.07.3c.23.06.41,0,.54-.21.37-.58.09-1.32-.16-1.84-.09-.2-.03-.28.19-.25,1.08.17,2.16.21,3.24.12.04,0,.04-.02.01-.04-.97-.91-1.72-1.59-2.17-2.87-.04-.1-.04-.21,0-.31l.04-.12c.03-.08.06-.08.1,0,.25.42.47.9.72,1.27.44.64,1.56,1.94,2.37,1.43.22-.14.31-.34.26-.6-.03-.14-.19-.87-.13-.94.02-.02.05-.02.07,0,0,0,0,0,.01.01.22.41.39.83.51,1.28.27,1,1.42,1.85,2.28,2.26.5.24,1.45.6,1.92.11.59-.62.27-1.36.04-2.06-.06-.18,0-.26.19-.25,3.46.17.01-2.61-.09-3.57,0-.09.06-.17.15-.18.02,0,.04,0,.06,0,.74.23,1.96.7,2.49-.19.78-1.32-2.61-3.03-3.46-3.51-.2-.11-.29-.29-.26-.52.25-2.08,4.43-1.3,5.72-1.2.67.05,1.46.11,2.04-.31.03-.02.05-.06.06-.1.07-.67-.51-.93-.94-1.28-.02-.02-.03-.05,0-.08,0,0,0,0,0,0,.17-.17,3.42-.14,3.79-.15.68-.03,1.37-.28,1.65-.94.47-1.13-.77-2.09-1.73-2.33-1.77-.44-4.04.26-5.81.89-.04.01-.06,0-.04-.04.12-.32,1.49-.83,1.79-.94.62-.22,1.39-.34,2.09-.48,1.29-.25.87-1.47-.16-1.53-1.55-.08-3.46.79-4.75,1.58-.43.26-.85.4-1.27.42-.03,0-.06-.02-.06-.06,0,0,0,0,0,0,.03-.87,1.32-1.93.96-2.67-.02-.03-.05-.06-.08-.07-.74-.25-2.03.49-2.68.84-.19.1-.38.06-.56-.14-.02-.03-.02-.07,0-.09.47-.59,1.29-1.25,1.41-2-.02-.63-.43-1.37-1.14-1.4-.57-.02-1.13,0-1.69.08-1.75-.1-3.36-.67-5.08-1.27-.26-.09-.46-.22-.59-.4.9.17,1.92.47,3.07.87,1.22.43,2.52.57,3.9.42.46-.05.92-.02,1.16-.49.05-.1.02-.23-.07-.3-1.25-.91-2.47-1.85-3.66-2.83-.12-.1-.23-.09-.33.02l-.02.03s-.03.08.03.09c.1.02.17.06.22.14.04.06.02.08-.05.07-.31-.03-.63-.41-.88-.58-.04-.02-.03-.04,0-.05.04-.01.15,0,.19.02.42.21.84.23,1.27.06.04-.01.07-.01.11,0,.21.13.46.27.66.42,2.17,1.68,4.43,3.19,7.22,3.67.5.09.93.04,1.16-.49.14-.32.18-.66.13-1.01,0-.04-.03-.07-.06-.09-1.13-.82-2.45-1.49-3.67-2.16-.04-.02-.03-.03,0-.03.92.03,2.25.77,3.08,1.17.09.04.12.02.09-.08-.46-1.47-1.11-3.45-3.04-3.37-.82.03-1.38.38-2.12.55,1.18-1.16,3.08-1.46,4.37-.31.03.03.07.04.1.04,1.29.07,2.56-.01,3.82-.26.16-.48-.06-.83-.35-1.17-.47-.55-.96-1.1-1.44-1.65-.07-.08-.13-.2-.2-.39-.38-1.06,1.56-1.22,2.19-1.34.65-.12.75-.6.9-1.14.03-.11.1-.2.19-.26.82-.51,1.85-1.24,2.26-2.12.68-1.48-1.06-2.21-2.24-1.97l-1.19.08c-.18.01-.35-.03-.51-.13-.03-.02-.04-.05-.02-.08,0,0,0,0,.01-.01l.88-.81c.23-.21.2-.38-.07-.51-.76-.37-2.92.43-3.67.77-.66.29-1.16.49-1.51.6-.02,0-.05,0-.05-.03,0,0,0,0,0-.01.02-.78.49-1.72-.46-2.17-.09-.04-.19-.03-.26.03-1.04.85-2.02,1.7-3.05,2.51-.03.02-.03.02,0,0,1.19-1.24,2.21-2.26,3.06-3.04.78-.72.98-1.53.58-2.43-2.11-1.66-5.39,3.4-6.31,4.72l-.08-.06c.4-1.47.88-4.29-.74-5.25-.19-.11-.38-.11-.56.02-.92.63-1.5,2.08-1.83,3.11-.38,1.19-.75,2.6-1.53,3.58-.57.72-1.07,1.48-1.49,2.29-.14,0-.23-.03-.29-.12-.02-.03-.02-.07,0-.11.68-1.67,2.05-4,.62-5.62-.64-.73-1.44-.27-2.08.13-.09.05-.12.03-.09-.07.22-.88.16-1.71-.19-2.48-.54-1.18-1.58-1.85-2.79-1.04-.59.39-1.28,1.86-1.62,2.61-.97,2.16-1.92,4.27-3.27,6.27-.06.1-.18.15-.29.14-.07,0-.11-.05-.13-.12,0-.03,0-.07,0-.1.26-.86.04-1.87-.54-2.52-.52-.58-1.46-.56-2.15-.31-.47.17-1,.6-1.51.87l-.03-.1c.9-1.3,2.01-1.57,3.52-1.41.04,0,.07-.01.1-.04.51-.66,2.12-2.94,1.59-3.82-.15-.26-.42-.34-.79-.24l-.09-.07c.04-.14.09-.24.13-.32.35-.54.62-1.12.81-1.73.14-.46-.02-1.13-.65-.91-.26.09-.51.18-.77.28-.04.01-.08,0-.09-.04v-.03s-.02-.07,0-.09c.97-.97,2.29-1.47,3.3-2.43.89-.85.09-1.37-.77-1.42-1.08-.07-2.08.18-3.01.74-.03.02-.06,0-.08-.02,0,0,0,0,0,0v-.03s-.02-.04,0-.06c.36-.55.52-1.07.47-1.55-.1-1.09-1.24-1.41-2.06-.8-.81.6-1.51,1.92-2.53,2.61-1.03.7-1.65-.24-1.24-1.21.84-2,2.45-4.1,2.31-6.39-.05-.74-.49-1.63-1.27-1.77-.72-.13-.84.49-1,1.11-.16.6-.35,1.19-.6,1.79-.02.04-.07.07-.11.05-.01,0-.02-.01-.03-.02-.02-.03.26-1.17.28-1.3.17-.92.12-1.7-.18-2.55-.02-.04-.06-.07-.11-.05,0,0-.01,0-.02,0-.05.03-.08.07-.11.13l-.15-.04c.28-1.22.54-2.37.24-3.31-.32-1-1.29-1.58-2.32-1.51-1.39.09-1.83,1.4-1.89,2.66,0,.19.02.4.09.63.18.6.25,1.21.21,1.83-.08.64-.22,1.26-.43,1.88-.04.05-.09.08-.15.08-.04,0-.07-.03-.07-.07v-.92c.11-1.01.26-2.3-.71-2.79-1.22-.62-1.47,1.36-1.48,2.08-.01.53-.06,1.07-.14,1.59,0,.04-.02.07-.05.11l-.12.15s-.05.03-.07,0c0,0,0,0,0,0-.04-.04-.05-.09-.05-.15.07-1.03-.26-2.05-1.21-2.58-.17-.1-.39-.13-.64-.11-.6-.06-1.11.14-1.51.62-.66.78-.15,2.25.29,3.08.67,1.24,1.4,2.45,1.97,3.74.62,1.64-.09,3.26-1.36,4.36-.02.02-.06.02-.08,0l-.27-.23s-.03-.06-.01-.09c.26-.4.6-.82.79-1.19.55-1.09.52-2.48-.33-3.41-1.25-1.38-3.36,1.69-3.9,2.44-.12.17-.19.15-.23-.05-.08-.4-.02-.78-.35-1.18-.03-.03-.06-.05-.1-.06-.15-.02-.27.04-.36.19l-.36.36c-.12.12-.22.1-.3-.04-.05-.09-.07-.21-.07-.36.02-.81.26-4.06-1.04-3.98-.28.02-.58.22-.87.33l-.02-.05s-.01-.05,0-.08l.4-1.79c.28-1.35.5-3.27-.97-4.03-2.69-1.08-3.45,2.95-3.51,4.65-.01.45.09.89.18,1.32.05.22-.03.3-.25.25-.18-.04-.36-.12-.55-.24-.07-.14-.17-.21-.28-.21-.16,0-.28.07-.38.19-.43.57-.72,1.14-.9,1.72-.65,2.05-.81,4.39-1.85,6.16-.1.17-.22.2-.35.09.41-1.93.99-4.07.83-6.05.07-1.73-1.72-2.88-2.8-1.02-.08.14-.22.5-.41,1.06-.04.12-.12.19-.24.1-.08-.06-.12-.16-.11-.26.08-.8.21-1.55.4-2.26.18-.67.71-2.31-.24-2.61-.95-.31-1.69,2.32-1.9,2.96-.07.21-.18.38-.29.57h-.06c-.11-1.13-.03-2.65-.65-3.62-.13-.21-.23-.2-.3.05l-.24.88c-.03.1-.07.1-.12.02-.03-.05-.08-.14-.09-.2-.18-1.54-.37-2.88-1.24-4.02-.1-.14-.24-.24-.39-.3-.31-.13-.52-.07-.61.15-.21.5-.27,1.02-.21,1.55.02.17-.01.32-.1.46,0,.02-.03.02-.05.01,0,0-.01,0-.01-.01-.57-.98-1.93-2.19-3.06-2.17-1.83.04-.53,3.76-.12,4.59.02.03.03.07.03.11v.2c-.36.16-1.18-.09-1.1.54-.03.06-.07.1-.12.12-.03.01-.07,0-.09-.03-.16-.32-.39.05-.64-.16-.05-.57.19-.98.72-1.21.03-.01.05-.05.03-.08-.4-1.09-.69-2.25-.49-3.34.47-2.59,2.81-1.36,4.18-.41.02.01.05,0,.06-.01,0,0,0,0,0-.01.1-.29.17-.57.34-.8.79-1.05,1.96.04,2.42.83.35.6.6,1.24.74,1.92,0,.04.03.07.07.08.94.32,1.38.97,1.33,1.95,0,.04.01.05.04.02.58-.56.97-1.63,2-1.37,1.39.35,1.11,2.3.91,3.28-.02.12,0,.14.1.06.34-.31.71-.39,1.16-.26.96.28,1.57.91,1.83,1.91,0,.03.03.04.06.04,0,0,0,0,.01,0,.03-.01.04-.03.05-.06.14-1.01.67-2.23,1.82-2.34.05,0,.09-.05.1-.1.07-.99.23-1.97.5-2.92.43-1.53,1.63-3.07,3.41-2.85.76.1,1.35.47,1.79,1.14.73,1.12.51,3.16.15,4.41-.01.04.01.09.06.1,1.73.56,1.57,2.65,1.68,4.05,0,.02.02.04.04.04,0,0,.01,0,.02,0,.69-.37.76.14,1.11.53.02.02.05.02.07,0,0,0,0,0,0,0,.67-.92,1.87-1.96,3.08-1.91.11,0,.13-.04.07-.13-.92-1.3-2.16-3.63-1.37-5.22.48-.95,1.74-1.48,2.78-1.2.38.1.77.38,1.15.59.02.01.05,0,.06-.02,0,0,0,0,0-.01.2-1.18.94-2.17,2.27-1.81.02,0,.05,0,.06-.03,0,0,0,0,0-.01.04-.96.38-1.8,1.03-2.52,1.09-1.21,2.95-1.07,4.07-.02.82.78,1.05,1.97.86,3.07-.05.29-.31.71-.15,1.06.14.3.28.61.41.91.01.03.05.05.08.05,2.29-.04,2.8,2.43,2.36,4.17-.47,1.86-1.43,3.44-2.31,5.12-.07.13-.07.26-.02.39.08.2.23.22.46.06,1.41-1,2.22-3.8,4.2-3.11.91.32,1.37,1.2,1.32,2.14,0,.02.02.04.04.05,0,0,0,0,.01,0,1.05-.25,2.69-.44,3.46.53,1.07,1.34-1.24,2.7-2.13,3.23-.03.02-.03.05-.02.07,0,0,0,0,0,0,.6.82.17,1.96-.22,2.78-.01.03,0,.07.02.09,1.45,1.06-.7,4.03-1.32,5.01-.02.03-.02.07,0,.1.4.54.47.89.65,1.44.01.04.03.04.05,0,1.01-1.82,1.86-3.77,2.73-5.66.08-.17.31-.56.69-1.16,1.94-3.04,4.91-1.06,5.05,1.81,0,.03.03.06.06.06,0,0,0,0,0,0,1.82-.12,2.22,1.07,2.54,2.5.02.09.06.1.12.03.24-.27.43-1.17.55-1.54.4-1.24,1.72-4.63,3.58-3.57,1.01.57,1.49,2,1.47,3.11,0,.06.02.07.05.02.81-1.13,2.21-2.59,3.59-2.98,1.6-.45,3.01.86,2.36,2.49-.12.31-.28.61-.46.9-.02.03-.01.07.02.09,0,0,0,0,0,0,.56.35.8.85.73,1.49,0,.06.01.07.06.05,1.24-.59,4.92-2.17,5.34.22,0,.03.03.06.07.06,2.01-.09,3.85,1.52,2.67,3.61-.34.61-.99,1.2-1.66,1.69-.41.3-.68.48-1,.95-.58.84-1.69.99-2.59,1.18-.24.05-.28.17-.11.35.59.65,1.94,1.91,2,2.85.09,1.55-2.99,1.43-3.99,1.31-.09-.01-.11.02-.06.1.16.26.36.51.48.78.5,1.12.76,2.25.8,3.4.04,1.01-.65,1.5-1.6,1.55-1.22.06-2.89-.63-3.96-1.19-.28-.15-.52-.1-.57.24,0,.04,0,.08.02.11.54.84,1,1.4.33,2.41-.02.03-.01.05.03.04.14-.04.28-.08.41-.13.68-.28,1.37-.14,1.77.52.27.45-.22,1.29-.54,1.64-.01.01-.01.04,0,.05,0,0,0,0,.01,0h.03s.02.02.03,0c1.29-.84,4.87-2.47,6.18-.78.27.35.38.77.32,1.25,0,.03.02.06.05.07.9.14,1.67.53,2.3,1.16,1.24,1.24.62,2.8-.86,3.4Z"/>
  <path class="cls-5" d="m228.77,189.44l-.2-.52s-.04-.07-.07-.09c-.07-.05-.09-.1-.07-.17.01-.03,0-.07-.02-.1-.51-.49-.73-1.08-1.58-.98-.27.03-.46.05-.55.04-1.38-.08-2.72.07-4.03.46-1.45.43-3.04,1.29-4.45,2.08-.04.02-.05.05-.03.08.01.03.05.05.09.05l2.63-.33c.74-.17,1.3-.51,2.12-.55,1.92-.08,2.58,1.9,3.04,3.37.03.1,0,.13-.09.08-.84-.4-2.17-1.14-3.08-1.17-.04,0-.04,0,0,.03,1.22.67,2.54,1.34,3.67,2.16.03.02.05.06.06.09.05.36,0,.69-.13,1.01-.23.52-.65.57-1.16.49-2.78-.48-5.05-1.99-7.22-3.67-.2-.15-.44-.29-.66-.42-.03-.02-.07-.02-.11,0-.43.17-.85.15-1.27-.06-.04-.02-.15-.03-.19-.02-.04.01-.04.03,0,.05.25.17.57.55.88.58.07,0,.08-.02.05-.07-.05-.07-.12-.12-.22-.14-.06-.01-.07-.04-.03-.09l.02-.03c.1-.12.21-.12.33-.02,1.19.98,2.41,1.93,3.66,2.83.09.07.12.19.07.3-.25.47-.7.44-1.16.49-1.38.15-2.68.01-3.9-.42-1.15-.41-2.17-.7-3.07-.87-.4.03-.79.09-1.16.19-1.13.29-2.08.49-3.32.78-.22.05-.39.15-.51.3-.02.02-.02.06,0,.08l.4.37s.04.08.01.12c-.05.08-.11.11-.16.07-.76-.63-1.59-.89-2.49-.8-2.15.23-4.27.85-6.39,1.87-1.64.71-3.23,1.51-4.76,2.42-.11.03-.23.02-.34,0-.04,0-.08,0-.12.02l-.3.2s-.07.02-.1,0l-.17-.13s-.04-.06-.01-.09c0,0,.01-.01.02-.02l1.33-.84s.07-.03.11-.02c.22.05,1.14-.52,1.35-.66.38-.25,1.24-.68,2.58-1.3.23-.11.42-.29.67-.41.22-.1.38-.19.51-.28.49-.35,1.07-.54,1.53-.84,1.08-.7,2.28-1.24,3.32-1.79.44-.23,1-.58,1.69-1.04,1.44-.97,2.96-1.82,4.54-2.55.03-.02.06-.05.05-.09,0-.06-.04-.11-.12-.14,1.13-.57,1.89-.94,2.28-1.11,3.48-1.5,6.96-2.99,10.43-4.52,1.64-.73,3.32-1.38,5.03-1.95.13-.04.23-.11.35-.18.01.16.04.31.1.46.16.44,1,1.05,1.48.78.57-.33,1.04-.71,1.7-.8.04,0,.07-.02.1-.05.81-.79.77-1.75-.3-2.28-.25-.12-.48-.16-.7-.12-.03,0-.07,0-.1,0l-.37-.05s-.06-.02-.08-.04l-.06-.07c1.17-.24,2.92.49,2.24,1.97-.41.89-1.44,1.62-2.26,2.12-.09.06-.16.15-.19.26-.14.54-.24,1.02-.9,1.14-.63.11-2.57.28-2.19,1.34.06.18.13.31.2.39.49.54.97,1.09,1.44,1.65.29.34.51.7.35,1.17Z"/>
  <path class="cls-5" d="m228.89,179.49c.11.21.04.52-.21.92-.06.1-.09.22-.09.34.01.21-.08.31-.28.29-.25-.02-.4-.05-.44-.08-.09-.06-.18-.06-.27-.02-.02,0-.05,0-.05-.02,0,0,0-.01,0-.02l.02-.35s-.02-.05-.04-.05c0,0-.01,0-.02,0h-.03s-.05,0-.06-.02l-.15-.32s-.05-.06-.09-.05l-1.87.39c-.12.02-.28.1-.48.24-.17.12-.26.29-.26.51,0,.03-.02.06-.05.07-.26.07-.8.03-.92.27-.02.03-.04.05-.08.06-.08.02-.16.06-.22.12-.03.03-.06.04-.1.04-.23-.01-.41.07-.54.26-.02.03-.06.05-.09.04-.27-.04-.84.2-1.08.31-.02,0-.04,0-.06,0l-.04-.02s-.06-.02-.08,0c-.62.31-1.27.34-1.85.55-.87.32-1.72.69-2.56,1.1-.08.04-.18.02-.21-.06-.01-.03-.04-.04-.07-.03,0,0,0,0,0,0l-.59.24s-.07,0-.09-.02c-.14-.14-.3-.21-.49-.22-.04,0-.08-.04-.07-.08,0,0,0,0,0,0,.01-.09-.03-.14-.11-.15-.04,0-.07-.03-.09-.07-.07-.15-.18-.27-.33-.35-.04-.02-.08-.02-.11,0-.07.04-.13.04-.21.01-.07-.03-.06-.05,0-.06.12-.02.22-.08.28-.18.02-.04.02-.09-.01-.12l-.3-.29s-.01-.02,0-.03l.02-.04s0-.03,0-.03l-.03-.02s-.03,0-.04,0c0,0,0,0,0,0-.06.09-.12.18-.21.25-.05.04-.05.04-.01-.01l.09-.11c.07-.09.06-.1-.03-.03-.21.16-.41.34-.6.54-.02.03-.06.04-.09.05-.66.11-.87.18-1.51-.12-.25-.12-.89-.12-.82-.58.43-.81.92-1.58,1.49-2.29.78-.98,1.15-2.39,1.53-3.58.33-1.03.91-2.48,1.83-3.11.18-.13.37-.13.56-.02,1.62.97,1.14,3.79.74,5.25l-2.3,3.18s0,.04.01.06c0,0,0,0,.01,0h.07c.15.07.27.12.43.06.88-.34,1.61-.81,2.22-1.41,1.43-1.41,2.51-2.89,3.71-4.4-.05.08-.08.17-.07.26,0,.03.03.05.06.05,0,0,0,0,0,0l.48-.11c-.05.05-.07.1-.05.15.02.04.06.06.1.04.25-.1.5-.16.76-.17.04,0,.08-.02.11-.04.55-.42,1.17-1.36.69-2.05-.02-.03-.02-.07,0-.1l.15-.18c.39.9.2,1.71-.58,2.43-.85.78-1.87,1.8-3.06,3.04-.03.03-.02.03,0,0,1.03-.81,2.01-1.67,3.05-2.51.07-.06.18-.07.26-.03.95.45.48,1.39.46,2.17,0,.02.02.04.04.05,0,0,0,0,.01,0,.35-.1.85-.3,1.51-.6.75-.34,2.91-1.14,3.67-.77.27.13.3.3.07.51l-.88.81s-.03.06,0,.08c0,0,0,0,.01.01.16.1.33.14.51.13Z"/>
  <path class="cls-12" d="m228.31,181.57c.07-.05.1-.12.09-.19,0-.04-.03-.07-.07-.08-.14-.03-.28-.02-.42.02-1.07.29-2.13.59-3.19.91-.53.08-.92.17-1.17.27-1.69.67-3.39,1.33-5.1,1.98-1.6.61-4.05,1.7-7.36,3.27-.07-.12-.53.08-.66.11-.04,0-.07,0-.1-.03-.07-.07-.15-.1-.25-.1-.04,0-.08-.02-.1-.06-.03-.06-.04-.12-.04-.19,0-.04.02-.07.06-.09.26-.14,1.44-.65,1.53-.81.01-.03,0-.06-.02-.07l-.06-.03s-.07-.02-.1,0c-3.9,1.94-6.43,3.01-9.67,4.5-.74.34-1.71.6-2.91.79-.38.06-.61-.08-.68-.45-.01-.07.01-.15.07-.2,2.15-1.76,4.19-3.56,5.93-5.84.01-.02,0-.04,0-.05,0,0,0,0-.01,0h-.05s-.06,0-.08.02c-.08.12-.18.14-.29.07,2.4-2.79,3.68-6.13,4.22-9.73,0-.03,0-.05,0-.07-.02-.04-.03-.04-.05,0-.17.4-.29.71-.36.94-.87,3-2.17,5.85-4.21,8.24-.95,1.12-2.16,1.94-3.69,1.84-.1-.13-.21-.25-.32-.37-1.09-1.16-.89-3.03-1.3-4.47-.01-.04-.03-.07-.06-.09-.29-.24-1.51-.98-.94-1.5.51-.27,1.05-.7,1.51-.87.68-.25,1.63-.27,2.15.31.58.65.81,1.65.54,2.52-.01.03-.01.07,0,.1.02.08.06.12.13.12.12.01.23-.04.29-.14,1.34-1.99,2.3-4.1,3.27-6.27.34-.75,1.03-2.22,1.62-2.61,1.21-.81,2.26-.14,2.79,1.04.35.77.41,1.6.19,2.48-.03.1,0,.12.09.07.65-.4,1.44-.86,2.08-.13,1.43,1.62.06,3.95-.62,5.62-.01.04-.01.08,0,.11.06.09.15.12.29.12-.07.46.57.47.82.58.64.3.85.23,1.51.12.04,0,.07-.02.09-.05.19-.19.39-.37.6-.54.09-.07.1-.06.03.03l-.09.11c-.04.05-.04.05.01.01.08-.07.15-.16.21-.25,0-.01.03-.02.04-.01,0,0,0,0,0,0l.03.02s.01.02,0,.03l-.02.04s0,.02,0,.03l.3.29s.04.08.01.12c-.06.1-.16.16-.28.18-.07.01-.08.03,0,.06.07.03.14.03.21-.01.03-.02.08-.02.11,0,.15.08.26.19.33.35.02.04.05.06.09.07.09,0,.12.06.11.15,0,.04.03.08.07.09,0,0,0,0,0,0,.19.01.35.09.49.22.02.02.06.03.09.02l.59-.24s.06,0,.07.03c0,0,0,0,0,0,.03.08.14.09.21.06.83-.41,1.69-.77,2.56-1.1.58-.21,1.23-.24,1.85-.55.03-.01.06-.01.08,0l.04.02s.04.01.06,0c.24-.11.81-.35,1.08-.31.03,0,.07-.01.09-.04.13-.19.31-.28.54-.26.04,0,.07-.01.1-.04.06-.06.13-.1.22-.12.03,0,.06-.03.08-.06.12-.23.66-.2.92-.27.03,0,.06-.04.05-.07,0-.22.08-.4.26-.51.2-.14.36-.22.48-.24l1.87-.39s.08.01.09.05l.15.32s.04.03.06.03h.03s.05,0,.06.02c0,0,0,.01,0,.02l-.02.35s.02.04.04.04c0,0,.01,0,.02,0,.09-.04.19-.03.27.02.04.03.19.05.44.08.2.02.29-.08.28-.29,0-.12.02-.24.09-.34.25-.4.32-.71.21-.92l1.19-.08.06.07s.05.04.08.04l.37.05s.07,0,.1,0c.21-.05.44,0,.7.12,1.07.53,1.11,1.49.3,2.28-.03.03-.06.04-.1.05-.65.09-1.13.47-1.7.8-.48.28-1.33-.33-1.48-.78-.05-.15-.09-.31-.1-.46Z"/>
  <path class="cls-12" d="m223.82,174.16l-.15.18s-.03.07,0,.1c.48.69-.14,1.63-.69,2.05-.03.02-.07.04-.11.04-.26.01-.52.07-.76.17-.04.02-.08,0-.1-.04-.02-.05,0-.1.05-.15.8-.33,1.31-.4,1.55-1.35.01-.04,0-.08-.01-.12-.09-.18-.24-.33-.43-.45-.2-.12-.37-.09-.5.11l-1.09,1.61c-1.21,1.51-2.28,2.98-3.71,4.4-.6.6-1.34,1.06-2.22,1.41-.16.06-.28.01-.43-.04.81-1.03,1.58-2.09,2.29-3.19.92-1.31,4.2-6.38,6.31-4.72Z"/>
  <path class="cls-2" d="m222.05,176.52l-.48.11s-.06-.01-.06-.04c0,0,0,0,0,0,0-.09.02-.18.07-.26l1.09-1.61c.13-.19.3-.23.5-.11.19.12.33.27.43.45.02.04.02.08.01.12-.24.95-.75,1.03-1.55,1.35Z"/>
  <path class="cls-12" d="m193.74,158.35c-.61,1.16-1.08,2.37-1.42,3.64,0,.02,0,.05.03.06,0,0,.01,0,.02,0,.04,0,.1-.08.11-.12.36-1.22.83-2.4,1.41-3.53.03-.06.06-.1.11-.13.04-.02.09-.01.12.03,0,0,0,0,0,.01.31.85.36,1.62.18,2.55-.02.13-.3,1.28-.28,1.3.03.04.09.04.12,0,.01,0,.02-.02.02-.03.24-.6.44-1.19.6-1.79.16-.62.28-1.23,1-1.11.79.14,1.23,1.04,1.27,1.77.14,2.29-1.46,4.38-2.31,6.39-.41.97.21,1.91,1.24,1.21,1.03-.69,1.72-2.01,2.53-2.61.82-.61,1.96-.29,2.06.8.05.48-.11,1-.47,1.55-.01.02-.01.04,0,.06v.03s.06.04.09.03c0,0,0,0,0,0,.92-.56,1.93-.81,3.01-.74.85.05,1.66.57.77,1.42-1.01.96-2.33,1.46-3.3,2.43-.02.02-.03.06-.01.09v.03s.07.05.1.04c.26-.1.51-.19.77-.28.63-.22.79.45.65.91-.19.61-.46,1.19-.81,1.73-.05.08-.09.18-.13.32-.49.9-1.05,1.75-1.68,2.57-.02.03-.02.04.02.02.71-.44,1.47-1.67,1.75-2.52.37-.1.64-.02.79.24.53.88-1.08,3.16-1.59,3.82-.02.03-.06.04-.1.04-1.51-.16-2.62.11-3.52,1.41-.06.05-.12.04-.17,0-.03-.03-.04-.07-.04-.1.03-.29.12-.58.13-.87,0-.41.05-.82.12-1.22.19-1.03.87-1.89,1.1-2.94.18-.79.3-1.6-.03-2.33-.02-.04-.05-.07-.09-.08l-.3-.11s-.07,0-.09.03l-3.49,4.59c-.06.08-.18.1-.25.04,0,0-.01-.01-.02-.02-.25-.25.03-1.84.07-2.25.06-.37.02-.86.23-1.16,1.44-1.62,2.81-3.12,3.42-5.1l.16-.4s.04-.04.07-.03c0,0,0,0,0,0,1.07.55,1.06,1.36,1.26,2.38.14.7.4,1.37.61,2.05,0,.02.03.03.05.02,0,0,0,0,.01,0,.19-.16-.46-1.76-.51-1.97-.26-1.1-.22-2.08-1.41-2.64-.09-.04-.19,0-.23.09,0,0,0,.01,0,.02l-.14.46c-.76,1.86-2.25,3.35-3.2,4.66.21-.69.1-2.31-.87-2.37-1.91-.1-3.03,5.42-3.43,6.81-.09-.1-.2-.14-.32-.12-.02,0-.04-.01-.04-.03,0,0,0-.01,0-.02l.11-.4s.01-.07,0-.11c-.01-.09,0-.17.06-.27.02-.03.03-.07.02-.11l-.07-.37s0-.08.02-.11c.08-.15.07-.28-.05-.39-.03-.03-.04-.07-.02-.11.2-.36.31-.73.36-1.13,0-.04.04-.07.08-.07h.04s.05-.02.07-.04c.12-.23.21-.47.26-.72.12-.59.2-.89.32-1.34.03-.12-.02-.2-.1-.28-.02-.02-.03-.06,0-.09,1.18-1.68,2.36-2.82,3.45-4.32.01-.02,0-.04,0-.05l-.03-.02s-.03,0-.04,0c0,0,0,0,0,0-.4.56-.67.92-.82,1.07-.95.98-1.85,2-2.7,3.06-.63.79-1.1,1.63-1.4,2.52-.3.87-1.03,3.15-1.18,3.22-.04.02-.06,0-.05-.04.47-1.89,1.14-3.8,1.67-5.58.55-1.89,1.12-3.6,1.65-5.67.14-.55.37-1.24.69-2.08.03-.07,0-.17-.06-.3-.02-.03-.06-.05-.09-.03,0,0,0,0-.01.01l-.15.15s-.02.01-.02-.01l.06-.33s0-.07-.03-.1c-.09-.09-.16-.08-.25,0-.23.23-.39.56-.48.99-.04.19-.17.57-.4,1.15-.1.26-.32.6-.37.98-.03.19-.27.47-.32.78-.05.32-.17.62-.37.88-.02.03-.03.07-.03.11.01.22-.09.36-.31.4.91-2.19,1.69-4.42,2.35-6.7.2-.69.36-1.39.47-2.09l.55-1.1s0-.07-.03-.08c0,0,0,0,0,0-.25-.1-.81,1.12-1.18,1.16-.02,0-.04-.02-.05-.04,0,0,0,0,0-.01l.03-.1c.12-.29.3-.55.52-.78,1.07-1.11,2.42-2.24,1.92-3.95-.1-.33-.46-.58-.67-.75-.49-.39-.93-.4-1.34-.05-1.17,1.02-1.47,2.52-1.15,3.99.04.16,0,.3-.13.41-.05.05-.12.08-.21.1.04-.63-.03-1.24-.21-1.83-.07-.23-.1-.44-.09-.63.06-1.26.5-2.57,1.89-2.66,1.03-.07,2,.51,2.32,1.51.31.94.04,2.09-.24,3.31Z"/>
  <path class="cls-2" d="m228.31,181.57c-.12.07-.22.14-.35.18-1.71.57-3.38,1.22-5.03,1.95-3.46,1.53-6.95,3.02-10.43,4.52-.39.17-1.15.54-2.28,1.11l-1.69.84c-.05.03-.12,0-.15-.05,0,0,0,0,0,0-.02-.06-.02-.11.02-.15,4.82-2.46,9.57-5.03,14.57-7.11.37-.15.96-.36,1.76-.63,1.06-.32,2.12-.62,3.19-.91.14-.04.28-.04.42-.02.04,0,.06.04.07.08,0,.08-.02.14-.09.19Z"/>
  <path class="cls-6" d="m224.71,182.24c-.8.26-1.39.47-1.76.63-5,2.08-9.75,4.65-14.57,7.11-4.46,2.2-8.84,4.54-13.24,6.85-2.39,1.25-4.75,2.55-7.08,3.89-3.36,1.69-6.76,3.4-9.41,6.16-.17.18-.15.2.06.07,1.98-1.21,4.07-2.24,6.11-3.33.49-.26,1.79-.88,3.92-1.85l4.58-2.1.51-.16c1.04-.26,2.04-.61,3-1.04.08-.03.15-.06.23-.09,2.51-.85,4.95-1.69,7.3-2.51,2.11-.73,2.27,1.69,2.04,2.99-.03.18.03.31.19.39.51.28.96.63,1.35,1.04.03.03.06.04.1.03l2.68-.69c1.85-.48,3.73-.67,5.64-.57.02,0,.04.01.05.03,0,.02,0,.04-.02.05,0,0,0,0-.01,0l-1,.03c-2.43.18-4.57.96-6.92,1.83-.03.01-.05.05-.04.08.04.15.11.28.22.38l.08.1c.25.73.46,1.46.63,2.21,0,.03.04.05.07.05l2.96-.63c2.38-.34,4.82-.21,7.2.1.35.05.68.13,1.01.26.04.01.04.02,0,.02-1.78-.13-3.55-.12-5.32.04-1.89.2-3.79.55-5.7,1.05-.15.04-.25.14-.29.29-.01.05.02.14.08.27l.05.18.17.73c-.41-.08-.09.64.01.93.01.04,0,.05-.03.02l-.05-.04s-.05-.01-.07,0h0c-.08.1-.19.17-.32.18-.04,0-.06.04-.06.08,0,0,0,0,0,0l.07.26s0,.08-.02.11c-.05.08-.13.12-.23.12-.05-.54-.16-1.11-.32-1.69-.03-.1-.13-.17-.23-.16-.29.03-.6.09-.94.18-7.68,2.02-15.2,4.82-22.24,8.51-4.68,2.44-9.13,5.24-13.37,8.38-5.08,3.77-9.28,7.51-13.48,11.57-5.87,5.68-11.08,12-15.09,19.13-1.69,3.09-2.97,6.11-4.39,9.2-.01.03,0,.06.03.07,0,0,0,0,0,0l1.46.38c.21.05.36-.02.45-.22,1.73-3.79,3.66-7.42,5.79-10.88,4.03-6.54,9.19-12.45,14.6-17.68,5.45-5.18,11.36-9.75,17.75-13.71,8.86-5.52,18.51-9.33,28.59-12.02-.06.05-.1.12-.14.19-.01.03-.04.06-.08.07-.78.19-1.55.41-2.32.65-.21.07-.39,0-.58.1-.53.26-1.09.39-1.65.54-.08.02-.12.1-.1.17,0,0,0,.02,0,.03.1.2.31-.02.52.15.03.02.03.04-.01.05-.08.01-.16.03-.23.07-.06.03-.06.04,0,.04l.43-.02s.04.02.05.04c0,0,0,.02,0,.02l-.11.23s-.02.07,0,.1l.03.09c-2.06.64-4.1,1.33-6.12,2.06-1.3.46-2.66,1.07-4,1.61-1.38.56-2.7,1.16-3.95,1.82-.14.07-.13.1.03.08.94-.12,1.86-.31,2.78-.57.1-.03.2.03.23.13,0,.01,0,.03,0,.04.06,1.12-.12,2.34.3,3.33.07.18.21.28.4.3.73.09,1.38-.1,1.94-.58.06-.05.15-.04.2.02.02.02.03.04.03.06.2,1.04.17,2.25,1.44,2.62,1.41.41,2.71-.64,2.99-2.03.06-.32-.31-1.03-.2-1.23.02-.03.05-.05.09-.04.1.02.19.07.26.15.39.42.84.8,1.35,1.14.18.12.35.11.51-.02.88-.71-.14-2.03-.6-2.62-.15-.2-1.17-1.41-1.12-1.55.01-.03.04-.04.07-.03,0,0,0,0,0,0,.73.39,1.56,1.44,2.09,2.03.11.12.15.11.12-.06-.08-.42-.17-2.5.42-2.57.15-.02.26.04.34.17,1.04,1.86,2.03,3.96,3.8,5.25l-.15-.03s-.06.01-.07.04c0,0,0,0,0,0l-.04.43s-.03.06-.06.07h-.04s-.04.05-.04.08c0,0,0,0,0,0,.04.08.11.14.2.19-1.57-.88-2.88-2.91-3.59-4.47,0-.02-.02-.03-.04-.04-.02,0-.04,0-.04.03,0,0,0,.01,0,.02.18.88.16,1.74-.04,2.6-.29,1.19-1.31,1.67-2.4,1.02-.03-.02-.06,0-.08.02,0,0,0,0,0,0-.81,1.47-1.74,2.54-3.53,2.39-1.11-.1-1.85-.66-2.21-1.7-.06-.19-.09-.46-.16-.68-.01-.03-.04-.05-.07-.04,0,0,0,0,0,0-.95.34-2.04.31-2.59-.6-.4-.67-.36-1.85-.3-2.68,0-.02-.01-.03-.03-.03,0,0,0,0,0,0-2.89.52-5.66.98-8.17,2.36-12.31,6.74-23.48,16.35-32.05,27.71-3.52,4.66-6.28,9.78-8.83,15.02-.39.8-.7,1.31-.94,1.52-.92.81-2.16.27-3.21-.05-.18-.05-.37-.07-.57-.05-1.4.17-2.46-.31-2.85-1.74,0-.04-.04-.06-.07-.07-.23-.07-.6-.15-1.09-.24-1.67-.29-2.49-1.88-2.33-3.47,0-.04-.03-.08-.07-.09-.01,0-.03,0-.04,0-.7.28-2.17-.33-2.89-.54-.26-.07-.65-.14-.86-.08-1.67.52-2.05-.92-2.36-2.14,0-.03-.04-.06-.08-.05-.44.02-.85-.03-1.24-.15-1.13-.46-1.8-1.24-2-2.32-.15-.81.07-1.43.41-2.17,1.07-2.29,2.01-4.18,2.84-5.67,2.96-5.31,6.07-9.7,9.88-14.59,6.42-7.92,12.73-14.56,20.16-22.46l3.99-4.22s.02-.06,0-.08c0,0,0,0,0,0-.8-.62-1.68-1.09-2.64-1.42l-2.2-.61c-.29-.08-.56-.18-.83-.31-1.03-.5-1.26-1.22-.7-2.14.35-.47.68-.8,1.01-1,.61-.36,1.1-.73,1.48-1.1.72-.71,1.86-.95,2.93-1.12.09-.01.1-.05.03-.1-1.66-1.28-3.47-1.93-5.49-2.49-.45-.13-.67-.41-.65-.83.07-.13.02-.22-.14-.24-1.34-.16-5.83-.93-4.72-3.26.42-.87,1.1-1.6,2.05-2.18.03-.02.04-.05.02-.08,0,0,0,0,0,0-.32-.49-.74-.95-.82-1.58-.1-.77.14-1.76.35-2.5,0-.02,0-.05-.03-.05,0,0-.01,0-.02,0-1.14.22-2.39-.1-3.17-.97-1.71-1.92-.39-5.3,2.29-5.25.04,0,.07-.02.09-.05.79-.99,1.85-1.06,3.01-.86.03,0,.07-.01.07-.05.09-.34.24-.66.44-.95.02-.03.01-.06-.02-.08,0,0,0,0,0,0-.91-.54-1.61-.97-2.22-1.87-1.14-1.67.6-3.15,2.25-2.52.03.01.07,0,.09-.03.25-.38.58-.66,1-.85.06-.03.08-.09.06-.15,0,0,0-.02-.02-.03-.86-1.05-1.48-2.23-.88-3.52.02-.03.01-.07,0-.1-.6-1.04.1-2.17,1.08-2.62.64-.3,1.27-.4,1.88-.31.07.01.14-.04.15-.11,0-.02,0-.04,0-.07-.17-.48-.28-.94-.32-1.38.25.21.47-.16.64.16.02.03.05.04.09.03.05-.02.09-.06.12-.12.02.67.31,1.37.45,2.03.02.09-.04.19-.13.21-.02,0-.03,0-.05,0-1.08-.08-2.07-.16-2.96.61-1.67,1.44,3.17,2.83,3.87,3.11.3.12,1.07.5,1.03.83,0,.03-.03.05-.06.05,0,0,0,0,0,0l-.08-.02c-.45-.22-.89-.43-1.38-.57-1.21-.34-2.4-.76-3.56-1.24-.04-.02-.08,0-.1.04,0,0,0,0,0,0-.37,1.24.68,2.43,1.41,3.3.12.14.12.37-.08.41-.52.09-.96.3-1.32.62-.11.1-.1.17.05.21.94.27,1.86.6,2.75,1-.7.17-5.02-1.74-5.4-.43-.35,1.22,1.6,2.43,2.52,2.84,1.63.73,3.35,1.16,5.13,1.71.19.06.23.17.11.33-.08.1-.24.14-.5.12-1.63-.33-3.22-.74-4.77-1.25-.08-.02-.16,0-.22.06-.49.55-.08.9.07,1.45-.97-.23-2.73-.63-3.45.32-.12.15-.13.37-.21.56-.01.03-.05.06-.08.06-.29,0-.56-.1-.81-.08-1.13.11-1.87,1.09-1.89,2.2,0,.02.02.04.04.04,0,0,0,0,.01,0,.53-.18,1.04-.27,1.55-.28,2.07-.05,4.15.15,6.24.59.47.1,3.05.79,2.62,1.26-.02.03-.06.04-.1.03-3.45-1.08-6.11-1.21-10.11-1.41-.04,0-.08-.01-.12-.03-.05-.02-.09-.03-.13-.01-.04.02-.06.06-.06.1.13,1.25.95,2.05,2.2,2.14.69.05,1.28-.11,1.94-.18,0,.14-.01.27-.06.39-.27.72-.29,1.6-.46,2.36-.22.98.58,1.57,1.12,2.17.06.07.06.16,0,.23-.83.85-1.75,1.37-2.32,2.27-1.06,1.66,3.22,2.23,4.14,2.32.24.02.48,0,.72-.07.5-.14,1.12-.54,1.62-.19.07.05.07.09-.01.13-.52.23-.98.55-1.39.95-.04.04-.04.12,0,.16.01.01.03.02.04.03l.42.15c1.78.52,3.43,1.32,4.94,2.4.55.39.89.93.64,1.56-.07.17-.19.25-.38.22-.84-.11-1.64.01-2.38.38-.39.19-.72.55-1.06.84-.52.45-1.97,1.13-2.01,1.89-.03.54.76.87,1.22.98,1.97.44,3.57.91,5.2,2.14.03.02.07.02.09,0l2.46-2.67s.06-.09.06-.14c0-1.2.16-2.39.13-3.59.08-1.62.08-3.23-.02-4.84.03-.18.11-.22.25-.13.62.39.71,6.65.45,7.66,0,.02,0,.04.02.06.01.02.04.02.05,0,0,0,0,0,0,0l1.95-2.06c.42-.48.6-1.55.69-2.18.18-1.18.29-2.37.35-3.56.55-7.54-.3-15-3.01-22.05.04,0,.08.01.1.05,2.42,4.6,3.48,9.92,3.89,15.11.2,3.53.2,7.18-.36,10.68-.01.09,0,.1.07.03.42-.51.85-1.02,1.31-1.53,2.83-3.15,5.59-6.37,8.28-9.65.95-1.16,1.99-2.54,3-3.81.08,0,.14-.06.18-.14.01-.03.05-.04.08-.03,0,0,0,0,.01,0l.17.13s.04.07.02.1l-.18.3c-.04.06-.03.07.03.03l.07-.05s.05-.01.07.01c0,0,0,0,0,0,.07.13-.21.92-.26,1.02-.01.03,0,.03.02,0,.05-.06.1-.09.15-.09.03,0,.05.03.05.05,0,0,0,0,0,.01l-.03.1c-5.54,7.06-11.4,13.84-17.59,20.34-3.3,3.47-6.6,6.96-9.88,10.45-4.56,4.86-7.39,7.91-8.49,9.15-5.29,5.97-9.21,10.77-13.3,16.59-2.88,4.1-5.24,8.16-7.23,12.71-.35.81-.6,1.18-.32,1.88.48,1.28,1.46,1.15,2.6,1.3.17.02.3.12.36.28.18.43.3.87.37,1.32.08.47.68,1,1.02.3.29-.59.5-1.1.63-1.51,1.74-3.76,3.71-7.39,5.93-10.89l.15-.15s.04-.02.05.02v.04s.03.06.07.02c.19-.19.42-.26.7-.2.04,0,.07.02.1.05.04.03.09.05.14.04.02,0,.05.01.05.04,0,0,0,0,0,.01v.04s-.02.06-.05.07c-.25.18-.3.38-.14.61l-1.74,2.9c-1.73,2.93-3.26,5.94-4.62,9.01-.02.05,0,.11.05.13,0,0,0,0,.01,0l1.89.57c.09.03.18-.02.22-.1.44-.97.89-1.87,1.32-2.71,2.92-5.57,6.3-10.84,10.14-15.81,1.05-1.36,2.73-3.35,5.04-5.97,2.1-2.33,4.33-4.5,6.47-6.79,8.83-9.45,17.8-18.77,26.9-27.96,3.46-3.5,6.93-7,10.4-10.5.36-.37.78-.82,1.25-1.37.33-.39.35-.75.03-1.17-.43-.54-.9-.98-1.42-1.3l-.37-.27c.11.06.19.05.24-.04.02-.03.05-.04.08-.03.24.07.46-.12.4-.36-.01-.06,0-.07.04-.03l.04.03c.05.04.06.04.02-.02l-.16-.22s-.03-.05.02-.02l.04.03s.04.02.02-.02c0,0-.01-.02-.03-.02l.53.36s.06.01.08-.01h0c1.51-2.21,2.67-4.12,3.49-5.71.71-1.39,1.48-2.75,2.05-4.2,0-.02.03-.03.05-.02,0,0,0,0,.01,0l.03.02s.04.06.03.09c-.12.36-.25.72-.4,1.08-1.17,2.8-2.54,5.49-4.12,8.08l-.64,1.03s-.01.06.02.08c.94.71,1.62,2.03.92,3.16-.03.06-.02.08.05.08,1.2,0,2.27.22,2.73,1.48.27.71.12,1.35-.43,1.91-3.74,3.78-7.5,7.53-11.28,11.26-.06.06-.09.12-.1.18,0,.02.01.04.04.04,0,0,.01,0,.02,0,.38-.16.76-.44,1.04-.59,3.71-2.01,7.44-3.97,11.18-5.9,4.81-2.46,9.64-4.86,14.51-7.2,3.3-1.58,5.76-2.67,7.36-3.27,1.7-.64,3.4-1.3,5.1-1.98.25-.1.64-.19,1.17-.27Z"/>
  <path class="cls-5" d="m191.82,159.85c-.1.23-.23.6-.38,1.1-.17.58-.67,1.92-1.47,4.01-.12-.05-.21-.02-.26.11-.32.71-.57,1.51-.96,2.18-.08-.05-.11-.12-.12-.21,0-.04-.04-.08-.08-.08h-.12s-.08.03-.09.07c-.08.33-.25.61-.51.83-.03.03-.05.06-.07.1-.04.13-.1.26-.17.38-.02.03-.05.06-.09.07-.27.07-.44.24-.52.5-.01.04-.04.06-.07.07-.4.13-.38.52-.78.69-.04.02-.06.05-.08.08-.04.11-.12.16-.25.16-.1,0-.2.04-.27.12-.22.28-.48.22-.72.35-.24.12-.48.23-.72.34-.03.02-.07.01-.1,0l-.2-.1s-.04-.04-.04-.07c0-.13.34-.39.43-.54.02-.03,0-.07-.02-.09h0s-.06-.01-.09.01c-.77.66-1.53,1.21-2.29,1.63,0,0,0,0,0,0v-.03s-.02-.04,0-.05c.98-1.22,1.94-2.35,2.73-3.72.17-.3.45-.47.39-.93-.02-.16-.07-.17-.14-.02-.4.78-.81,1.56-1.32,2.27-.43.6-.89,1.2-1.38,1.81-.11.13-.18.12-.21-.06-.04-.26.06-.45.3-.57.04-.02.07-.04.09-.08.16-.26.4-.55.72-.88.34-.35.66-.82.97-1.42.02-.04.02-.08,0-.12l-.12-.35s-.04-.04-.07-.03c0,0,0,0,0,0l-.13.06s-.05,0-.06-.02c0,0,0,0,0-.01v-.09s-.01-.07,0-.11c.02-.08,0-.16-.05-.23-.02-.03-.05-.03-.08-.01,0,0,0,0,0,0-.04.04-.09.04-.13,0-.07-.07-.18-.08-.26-.03-.38.22-.62.45-.7.68-.05.14-.18.28-.38.42-.43.32-1.2.33-1.71.29-.08,0-.15.05-.15.13-.04.45-.06,1.26-.52,1.47-.11.05-.19.03-.23-.07-.02-.04-.02-.08,0-.11.27-.84.46-1.75.57-2.7,0-.04.01-.09.02-.13.08-.5-.05-.75-.4-.75.09-.15.21-.21.36-.19.04,0,.07.03.1.06.33.39.28.78.35,1.18.04.2.11.22.23.05.54-.76,2.65-3.82,3.9-2.44.85.93.88,2.32.33,3.41-.19.37-.53.79-.79,1.19-.02.03-.01.07.01.09l.27.23s.06.02.08,0c1.27-1.1,1.98-2.72,1.36-4.36.14-.14.15-.3.02-.47-.03-.2-.06-.41-.13-.6-.8-2.14-1.84-4.1-.71-6.28l.07-.1c.25-.03.46,0,.64.11.96.53,1.28,1.54,1.21,2.58,0,.06.02.11.05.15.02.02.05.02.07,0,0,0,0,0,0,0l.12-.15s.04-.07.05-.11c.09-.53.13-1.06.14-1.59.01-.72.26-2.7,1.48-2.08.98.5.82,1.78.71,2.79-.17.09-.24.22-.22.4-.44,1.55-.94,3.07-1.49,4.57-.1.13-.16.28-.17.44,0,.04.02.07.05.09.35.16,1.59-1.93,1.83-2.41,0,.03.01.05.04.08.03.02.07.02.09,0,0,0,0,0,0,0l.63-.9s.03-.07.04-.1c.02-.34.13-.65.32-.92.26-.38.34-.78.58-1.16l-.03.1s0,.05.03.05c0,0,0,0,.01,0,.37-.04.93-1.26,1.18-1.16.03.01.05.05.03.08,0,0,0,0,0,0l-.55,1.1Z"/>
  <path class="cls-4" d="m217.43,178.82l.08.06c-.71,1.1-1.48,2.16-2.29,3.19h-.07s-.04-.04-.03-.06c0,0,0,0,0-.01l2.3-3.18Z"/>
  <path class="cls-1" d="m189.01,168.64c-1.11,2.69-2.33,5.33-3.65,7.93-.11.21-.22.41-.36.6-.04.05-.03.12.01.17.5.51.91,1.08,1.23,1.72.08.16.2.26.37.3.58.16,1.17.27,1.77.31.1,0,.21-.03.28-.11.54-.59.94-1.26,1.22-2,.39-1.39,1.52-6.91,3.43-6.81.97.05,1.08,1.67.87,2.37l-.08.46c-.22.3-.17.79-.23,1.16-.06,0-.1-.02-.13-.06-.03-.03-.04-.07-.03-.11.2-.92.18-1.84-.07-2.75-.13-.48-.49-.49-.8-.15-1.39,1.55-1.67,3.92-2.16,5.86-.22.88-.7,1.71-1.43,2.49-.01.02-.01.04,0,.05,0,0,0,0,.01,0,.94.31,2.05,1.03,1.75,2.2,0,.04,0,.07.03.1l.26.19s.02.01.03.02c.02.04.01.05-.02.02l-.04-.03s-.05-.03-.02.02l.16.22c.04.06.04.06-.02.02l-.04-.03s-.06-.03-.04.03c.06.24-.16.43-.4.36-.03,0-.06,0-.08.03-.05.09-.13.1-.24.04-.13-.16-.24-.19-.33-.09-4.95,5.82-10.33,11.55-14.23,15.59-11.61,12.05-24.12,23.93-34.8,37.2-1.98,2.46-4.05,5.34-6.2,8.64-.16-.22-.11-.43.14-.61.02-.02.04-.04.04-.07v-.04s0-.04-.03-.05c0,0,0,0-.01,0-.05,0-.1,0-.14-.04-.03-.02-.06-.04-.1-.05-.28-.06-.51.01-.7.2-.03.03-.05.03-.06-.02v-.04s-.03-.04-.05-.02l-.15.15c4.46-6.89,9.63-13.09,15.18-19.18,4.92-5.38,9.96-10.65,15.12-15.8,4.5-4.49,8.92-9.08,13.34-13.65,4.26-4.41,8.34-8.93,12.25-13.56.13-.16.11-.29-.06-.41-1.19-.74-2.29-.89-3.64-1.1-.23-.04-.39-.15-.51-.36-.46-.85-1.17-2-2.07-2.5-.16-.09-.29-.06-.39.09-1.06,1.55-2.17,3.06-3.34,4.54l.03-.1s0-.05-.03-.06c0,0,0,0-.01,0-.04,0-.09.03-.15.09-.02.02-.03.02-.02,0,.04-.11.33-.89.26-1.02-.01-.02-.04-.03-.07-.02,0,0,0,0,0,0l-.07.05c-.06.04-.07.03-.03-.03l.18-.3s.01-.08-.02-.1l-.17-.13s-.06-.01-.08.01c0,0,0,0,0,.01-.04.09-.1.14-.18.14l1.18-1.64c.46-.63.93-1.24,1.42-1.85.4-.5.87-.75,1.42-.74l.86.38s.06,0,.07-.03c.16-.33.49-.95.98-1.86,1.66-3.08,3.18-6.39,4.56-9.91.81-2.1,1.3-3.44,1.47-4.01.15-.5.28-.87.38-1.1-.11.71-.27,1.4-.47,2.09-.66,2.28-1.44,4.51-2.35,6.7Z"/>
  <path class="cls-12" d="m228.77,189.44c-1.26.24-2.54.33-3.82.26-.04,0-.08-.02-.1-.04-1.29-1.15-3.19-.85-4.37.31l-2.63.33s-.07-.02-.09-.05c-.01-.03,0-.06.03-.08,1.41-.79,3-1.65,4.45-2.08,1.31-.39,2.65-.54,4.03-.46.1,0,.28,0,.55-.04.85-.1,1.07.49,1.58.98.03.02.04.06.02.1-.02.07,0,.13.07.17.03.02.06.05.07.09l.2.52Z"/>
  <path class="cls-4" d="m197.51,168.46l-.14-.02.14-.46c.03-.09.13-.15.22-.12,0,0,.01,0,.02,0,1.19.55,1.15,1.54,1.41,2.64.05.21.69,1.81.51,1.97-.02.01-.04.01-.05,0,0,0,0,0,0-.01-.22-.68-.47-1.35-.61-2.05-.21-1.02-.19-1.82-1.26-2.38-.03-.01-.06,0-.07.02,0,0,0,0,0,0l-.16.4Z"/>
  <path class="cls-9" d="m203.64,185.3c-1.06,1.14-2.44,2.1-4.07,1.85-.25-.04-.44-.2-.37-.46,0-.04.04-.07.08-.08l.29-.08c1.53.1,2.74-.72,3.69-1.84,2.04-2.4,3.34-5.24,4.21-8.24.07-.23.19-.54.36-.94.02-.04.03-.04.05,0,0,.02,0,.04,0,.07-.54,3.6-1.82,6.95-4.22,9.73Z"/>
  <path class="cls-4" d="m189.87,177.55c-.28.74-.69,1.41-1.22,2-.07.08-.17.12-.28.11-.6-.04-1.19-.14-1.77-.31-.17-.05-.29-.15-.37-.3-.32-.64-.73-1.21-1.23-1.72-.04-.05-.05-.11-.01-.17.13-.19.25-.39.36-.6,1.32-2.59,2.54-5.24,3.65-7.93.21-.04.32-.18.31-.4,0-.04,0-.08.03-.11.19-.27.32-.56.37-.88.05-.31.3-.59.32-.78.05-.38.27-.72.37-.98.23-.58.36-.96.4-1.15.08-.44.24-.77.48-.99.09-.09.16-.09.25,0,.02.03.04.06.03.1l-.06.33s0,.03.02.01l.15-.15s.07-.02.1,0c0,0,0,0,.01.01.07.13.09.23.06.3-.32.84-.55,1.53-.69,2.08-.53,2.08-1.1,3.78-1.65,5.67-.52,1.78-1.19,3.69-1.67,5.58-.01.05,0,.06.05.04.15-.07.88-2.34,1.18-3.22.31-.89.78-1.73,1.4-2.52.85-1.07,1.75-2.09,2.7-3.06.15-.16.42-.51.82-1.07,0-.01.03-.02.04,0,0,0,0,0,0,0l.03.02s.02.04,0,.05c-1.1,1.5-2.28,2.65-3.45,4.32-.02.03-.02.06,0,.09.08.08.14.15.1.28-.12.45-.2.75-.32,1.34-.05.25-.14.49-.26.72-.01.02-.04.04-.07.04h-.04s-.07.03-.08.07c-.04.4-.16.78-.36,1.13-.02.04-.01.08.02.11.11.11.13.24.05.39-.02.03-.03.07-.02.11l.07.37s0,.08-.02.11c-.05.09-.07.18-.06.27,0,.04,0,.07,0,.11l-.11.4s0,.04.03.05c0,0,.01,0,.02,0,.13-.02.23.02.32.12Z"/>
  <path class="cls-9" d="m197.51,168.46c-.61,1.99-1.98,3.48-3.42,5.1l.08-.46c.95-1.31,2.44-2.8,3.2-4.66l.14.02Z"/>
  <path class="cls-2" d="m189.97,164.97c-1.38,3.52-2.91,6.82-4.56,9.91-.49.91-.81,1.53-.98,1.86-.01.03-.05.04-.07.03l-.86-.38c1.21-1.9,2.35-3.84,3.44-5.81.42-.77,1.29-2.16,1.81-3.32.39-.67.64-1.47.96-2.18.06-.12.14-.16.26-.11Z"/>
  <path class="cls-8" d="m201.23,174.42l.09.07c-.28.84-1.04,2.08-1.75,2.52-.03.02-.04.02-.02-.02.63-.81,1.19-1.67,1.68-2.57Z"/>
  <path class="cls-4" d="m196.9,179.99l.03.1c-.57.53.64,1.26.94,1.5.03.02.05.06.06.09.41,1.44.21,3.31,1.3,4.47.11.12.22.24.32.37l-.29.08s-.07.04-.08.08c-.07.26.12.42.37.46,1.63.25,3.02-.7,4.07-1.85.11.07.21.05.29-.07.02-.03.05-.04.08-.03h.05s.03.04.03.05c0,0,0,0,0,.01-1.74,2.28-3.78,4.08-5.93,5.84-.06.05-.09.12-.07.2.07.38.3.51.68.45,1.21-.19,2.18-.45,2.91-.79,3.24-1.49,5.77-2.56,9.67-4.5.03-.02.07-.02.1,0l.06.03s.03.05.02.07c-.09.16-1.27.67-1.53.81-.03.02-.06.05-.06.09,0,.07,0,.13.04.19.02.04.06.06.1.06.09,0,.18.04.25.1.03.03.07.04.1.03.13-.03.59-.22.66-.11-4.87,2.34-9.71,4.74-14.51,7.2-.22.02-.44.02-.66,0-.41-.02-.79-.37-1.14-.59-.03-.02-.03-.05-.02-.08,0,0,0,0,0,0,.84-1.27,1.38-2.11,1.62-2.5.3-.48.49-1.02.58-1.62.22-1.37-.07-2.62-.85-3.77-.79-1.73-1.43-3.17-3.07-4.19,1.58-2.59,2.96-5.28,4.12-8.08.15-.35.28-.71.4-1.08.01-.03,0-.07-.03-.09l-.03-.02s-.04-.01-.06,0c0,0,0,0,0,.01-.57,1.46-1.33,2.82-2.05,4.2-.82,1.6-1.98,3.5-3.49,5.71-.02.03-.05.03-.08.01h0s-.53-.36-.53-.36l-.26-.19s-.04-.06-.03-.1c.3-1.17-.81-1.89-1.75-2.2-.02,0-.03-.03-.02-.05,0,0,0-.01,0-.01.73-.78,1.21-1.61,1.43-2.49.5-1.94.77-4.31,2.16-5.86.31-.34.67-.33.8.15.24.91.27,1.83.07,2.75,0,.04,0,.08.03.11.03.03.07.05.13.06-.04.41-.32,2-.07,2.25.07.07.18.07.26,0,0,0,.01-.01.02-.02l3.49-4.59s.06-.04.09-.03l.3.11s.07.04.09.08c.34.73.21,1.54.03,2.33-.23,1.05-.91,1.91-1.1,2.94-.07.4-.11.81-.12,1.22,0,.29-.1.57-.13.87,0,.04,0,.08.04.1.05.05.11.05.17,0Z"/>
  <path class="cls-12" d="m176.27,156.54l-.21.25s-.06.05-.09.05c-1.77.17-1.87,1.83-2.2,3.41-.06.3-.09.54-.07.71,0,.04.02.08.05.1.51.59.97,1.15,1.22,1.9.51,2.35-.55,5.05-1.9,6.91-1.82,2.5-2.74,5.69-2.82,8.76,0,.33.03.67.11,1.01,0,.03.03.04.06.04,0,0,.01,0,.02,0l.39-.3s.05-.06.05-.1c-.02-.35.28-.91.71-.9.03,0,.07-.02.08-.05.12-.3.31-.4.58-.28l-.09,1.03s.02.08.07.09l.35.08s.09-.02.1-.06c0,0,0,0,0,0,.46-4.26,2.19-7.77,4.08-11.46.11-.22.17-.45.17-.69,0-.04-.03-.06-.06-.07-.11,0-.17.04-.21.16l-.18.23s-.03.03-.01,0c.12-.3.29-.57.31-.9.07-1.19.06-2.39,0-3.59,0-.04,0-.08.02-.11l.08-.23c.29-.11.6-.31.87-.33,1.3-.08,1.06,3.16,1.04,3.98,0,.16.02.28.07.36.08.15.18.16.3.04l.36-.36c.35,0,.48.26.4.75,0,.04-.01.09-.02.13-.1.96-.29,1.86-.57,2.7-.01.04-.01.08,0,.11.04.1.12.12.23.07.46-.2.48-1.01.52-1.47,0-.08.08-.13.15-.13.52.05,1.28.03,1.71-.29.2-.15.33-.29.38-.42.09-.23.32-.46.7-.68.08-.05.19-.04.26.03.04.04.08.04.13,0,.02-.02.06-.02.08,0,0,0,0,0,0,0,.05.07.07.14.05.23,0,.04,0,.07,0,.11v.09s.04.04.06.04c0,0,0,0,.01,0l.13-.06s.06,0,.07.02c0,0,0,0,0,0l.12.35s0,.08,0,.12c-.31.6-.63,1.07-.97,1.42-.32.33-.56.62-.72.88-.02.03-.05.06-.09.08-.24.12-.34.31-.3.57.03.17.1.19.21.06.49-.6.96-1.21,1.38-1.81.51-.71.92-1.5,1.32-2.27.07-.14.12-.13.14.02.06.46-.22.63-.39.93-.79,1.37-1.76,2.49-2.73,3.72-.01.01-.01.03,0,.05v.03s.02,0,.02,0c.75-.43,1.52-.97,2.29-1.63.03-.03.06-.03.09-.01.03.02.04.06.03.09,0,0,0,0,0,0-.09.16-.44.41-.43.54,0,.03.02.06.04.07l.2.1s.07.02.1,0c.24-.11.48-.23.72-.34.24-.12.51-.07.72-.35.06-.08.16-.13.27-.12.12,0,.21-.04.25-.16.01-.04.04-.07.08-.08.4-.17.38-.56.78-.69.03-.01.06-.04.07-.07.08-.26.26-.43.52-.5.04,0,.07-.04.09-.07.07-.12.12-.25.17-.38.01-.04.04-.07.07-.1.26-.22.43-.49.51-.83,0-.04.04-.07.09-.07h.12s.08.03.08.07c0,.09.04.16.12.21-.52,1.16-1.38,2.55-1.81,3.32-1.09,1.97-2.24,3.91-3.44,5.81-.55,0-1.02.24-1.42.74-.48.61-.96,1.22-1.42,1.85-.06.06-.13.06-.2,0-.05-.05-.06-.13-.02-.19l.11-.17s.02-.09-.02-.11l-.12-.09s-.08-.02-.1.02h0c-1.49,2.13-3.25,4.03-5.06,5.89-.2.21-.43.39-.68.55-.07.04-.1.02-.1-.06-.08-1.99.47-3.73,1.24-5.55.01-.03.01-.06,0-.09-.03-.07-.02-.14.05-.19.09-.08.08-.1-.03-.06-.07.03-.12.07-.15.14-.02.04-.02.03-.03,0v-.03c-.01-.11-.03-.11-.07,0-.14.39-.38.78-.49,1.18-.09.36-.26.71-.33,1.04-.11.48-.22.96-.35,1.44-.11.41-.07.84-.15,1.27,0,.04-.03.07-.07.08-.31.13-.32-.39-.25-.56.01-.03.02-.07.01-.11-.08-.47.16-1.06.22-1.55,0-.04,0-.08-.02-.12l-.04-.09s-.01-.08,0-.12c.07-.12.12-.24.14-.38.02-.13,0-.13-.03,0-.07.21-.22.31-.43.31-.03,0-.06-.03-.06-.06,0,0,0-.02,0-.03l.23-.43s0-.04-.01-.05l-.04-.03s-.08-.02-.11,0l-.28.23s-.06.03-.09.03c-.25-.03-.75.17-.9-.1-.02-.03-.02-.07,0-.1.04-.09-.09-.23-.36-.4-.05-.03-.06-.02-.05.04l.03.14c.02.07,0,.09-.07.06l-.09-.03c-.25-.09-.33-.26-.22-.51.14-.32.23-.66.26-1,0-.01,0-.03-.02-.03,0,0,0,0-.01,0l-.03.02s-.06.05-.08.09c-.08.27-.12.45-.14.54-.31,1.84-1.19,7.65-2.75,8.1-.25.07-.38-.02-.4-.28-.07-.99-.11-1.97-.13-2.95-.03-1.31-.17-2.44-.37-3.66-.22-1.33-.67-2.78-1.01-4.17-.05-.19-.14-.36-.27-.51-.03-.03-.05-.07-.05-.11-.02-.13-.08-.23-.2-.31-.03-.02-.06,0-.08.02,0,0,0,0,0,0-.24.43-.05,1.17-.02,1.56,0,.04.02.07.05.1.21.19.32.46.19.73-.01.03-.01.06,0,.09.15.27.19.56.13.86,0,.04,0,.08.02.12.21.39.2.65.3,1.01.1.34.09.5,0,.8,0,.03,0,.06.03.08l.03.03s.04.05.03.08c-.04.12-.03.24.04.35.02.04.04.08.04.13,0,.27.04.53.1.8,0,.04.01.08,0,.12-.02.14-.02.29,0,.43.04.23.05.39.05.5-.02.31-.02.66-.02,1.07,0,.03-.02.05-.05.05,0,0,0,0,0,0-.05,0-.1.02-.17.07-.42-5.19-1.48-10.51-3.89-15.11-.02-.04-.05-.06-.1-.05-1.11-2.69-2.51-5.23-4.19-7.61-.03-.12-.09-.22-.18-.31-.01-.01-.02-.04,0-.05,0,0,.01,0,.02-.01.29-.09.63.27.73.48.11.22.24.34.34.54.02.03.04.06.08.08.28.17.19.44.29.65.19.41.54.63.73.99.59,1.1,1.28,2.21,1.74,3.35.17.43.34.87.5,1.33.06.16.16.2.3.1.08-.06.12-.13.11-.23,0-.04,0-.08.03-.11.06-.09.14-.11.24-.06.04.02.06.05.06.09v.36s.02.06.05.08c.18.11.24.28.17.51-.01.05.01.09.06.11,0,0,0,0,0,0l.18.04c.21.05.31-.03.32-.24.06-1.23.24-2.43.54-3.62,0-.03.04-.05.07-.04,0,0,.01,0,.02,0l.08.06c.08.06.12.17.08.26-.4,1.08-.36,2.22-.58,3.34,0,.04.01.09.05.11.06.03.13.04.21.01.03,0,.06-.03.07-.06.03-.05.07-.07.11-.05.04.01.09,0,.1-.05,0,0,0,0,0,0,.47-2.19.8-3.75.98-4.69.03-.15,0-.29-.1-.44-.02-.03-.03-.07-.02-.11.04-.15.05-.3.03-.45-.06-.57.24-.68.6-1.02.04-.03.06-.03.06.02.04.38,0,.76-.09,1.13,0,.02,0,.05.03.06,0,0,.01,0,.02,0h.05s.03,0,.03.02c0,0,0,0,0,0l-.06.48c-.11.28-.1.59-.18.84-.6,1.84-.99,3.21-1.19,4.09-.02.11,0,.26.05.47.13.45.16.93.19,1.4,0,.08.08.15.16.14,0,0,.02,0,.02,0l.3-.07s.08,0,.12.01c.08.04.12.1.1.18,0,.04,0,.09.01.13.05.15.15.26.3.32.03.02.05.05.04.09-.2.9-.03,1.85-.41,2.55-.08.14-.04.28.12.42.03.03.07.03.1.02.33-.15.42-1.45.5-1.81.19-.92-.02-1.87.11-2.46.15-.67.32-1.34.49-2.01.04-.16.19-.26.22-.36.1-.42.39-1,.38-1.17,0-.04,0-.07.02-.11.06-.11.13-.2.22-.28.08-.07.11-.05.09.05-.14.74-.16,1.46-.47,2.08-.02.03-.02.07-.02.11.07.42-.12.59-.14.97,0,.04.01.08.04.1.05.05.1.05.15.01.13.11.25.08.35-.09,1.04-1.76,1.2-4.11,1.85-6.16.03,0,.06-.03.09-.06.02-.01.04-.01.05,0,0,0,0,0,0,.01.02.05.05.08.08.08.03,0,.06.01.09.04.35.42-.01.71.02,1.17,0,.04,0,.08,0,.11-.02.09-.04.24-.05.45-.05,1.06-.22,2.34-.52,3.83-.04.19-.43,1.1-.05,1.09.04,0,.08.02.1.05l.08.09s.07.04.1.02c.11-.06.17-.19.18-.37.1-1.41.74-2.81,1.03-4.1.31-1.35.42-2.73.35-4.12.19.12.38.2.55.24.22.05.3-.04.25-.25-.1-.43-.2-.87-.18-1.32.05-1.7.82-5.73,3.51-4.65Z"/>
  <path class="cls-5" d="m177.24,160.57l-.4,1.79s0,.05,0,.08l.02.05-.08.23s-.02.07-.02.11c.07,1.2.07,2.39,0,3.59-.02.33-.18.6-.31.9-.02.04-.01.04.01,0l.18-.23c-2.18,3.31-3.98,7-4.41,10.94-.27-.11-.46-.02-.58.28-.01.03-.04.05-.08.05-.44,0-.73.55-.71.9,0,.04-.02.08-.05.1l-.39.3s-.05.01-.07,0c0,0,0-.01,0-.02-.08-.34-.11-.67-.11-1.01.09-3.07,1-6.26,2.82-8.76,1.35-1.86,2.41-4.56,1.9-6.91.05.03.1.04.15.02.04-.01.07-.05.06-.09-.02-.14.04-.24.18-.29.01,0,.03,0,.04.01.01.01.03.02.06.02.17-.02.34,0,.5.06.18.07.31.01.37-.17.16-.47.36-1.61.66-1.93.02-.02.06-.03.09,0,.06.04.11.03.16-.02Z"/>
  <path class="cls-12" d="m209.15,218.29c-.14-.97-.43-1.91-.89-2.81-.08-.15-.03-.25.14-.28.45-.09.85-.32,1.2-.69.12-.12.22-.27.32-.47.57-1.2,1.26-2.44,2.06-3.71.47-.75.71-1.55.72-2.42h.16s.08.02.11.04c2.3,1.4,3.95,3.34,4.94,5.82.03.07.14.17.2.16.03,0,.06-.03.05-.07,0,0,0,0,0,0-.71-2.82-2.94-5.23-5.53-6.46-.37-.77-.64-1.57-.81-2.4-.01-.06-.08-.11-.14-.09-.01,0-.02,0-.03.01-.2.12-.35.09-.44-.09,1.36-.16,2.7-.44,4.02-.83.24-.04,1.52-.13,1.6-.3.05-.1.02-.14-.09-.12-.38.06-.76.1-1.14.17-.22.04-.44.02-.66-.06-.04-.01-.03-.02,0-.02.12,0,.23-.04.34-.09,1.77-.16,3.55-.17,5.32-.04.04,0,.04,0,0-.02-.33-.13-.67-.21-1.01-.26-2.38-.31-4.82-.43-7.2-.1-.01-.08-.02-.12-.1-.16-.92-.42-1.26-1.32-1.54-2.19,1.53-.59,3.1-1.06,4.71-1.39.06-.01.06-.04.02-.08l-.05-.05c.04-.06.02-.11-.04-.14l1-.03s.03-.02.03-.04c0,0,0,0,0-.01,0-.02-.02-.03-.05-.03-1.91-.1-3.79.09-5.64.57-.1-.05-.17-.05-.22-.01-.07.05-.17.05-.24,0-.67-.5-1.26-.97-1.79-1.42-.55-.46-.86-.7-.98-1.33-.06-.33-.12-.68-.17-1.05.05.03.11,0,.16-.07.02-.04.02-.09-.01-.12l-.4-.37s-.02-.05,0-.08c.12-.15.29-.25.51-.3,1.24-.3,2.2-.5,3.32-.78.38-.1.76-.16,1.16-.19.13.17.33.31.59.4,1.73.6,3.33,1.17,5.08,1.27-.13.14-.27.27-.42.39-.24.18-.39.3-.44.36-.27.3-.39.6-.36.93.02.21.13.32.35.31,1.31-.06,2.55-.28,3.71-.66-.12.76-.95,1.41-1.41,2-.02.03-.02.07,0,.09.18.2.37.25.56.14.65-.35,1.94-1.09,2.68-.84.04.01.07.04.08.07.36.74-.93,1.8-.96,2.67,0,.03.02.06.06.06,0,0,0,0,0,0,.42-.01.84-.15,1.27-.42,1.28-.79,3.2-1.66,4.75-1.58,1.03.06,1.45,1.28.16,1.53-.7.13-1.47.26-2.09.48-.29.1-1.67.62-1.79.94-.01.04,0,.06.04.04,1.77-.63,4.04-1.33,5.81-.89.96.24,2.2,1.21,1.73,2.33-.28.66-.96.91-1.65.94-.36.02-3.62-.02-3.79.15-.02.02-.02.06,0,.08,0,0,0,0,0,0,.43.35,1.02.62.94,1.28,0,.04-.02.07-.06.1-.58.42-1.36.37-2.04.31-1.29-.1-5.46-.88-5.72,1.2-.03.23.06.4.26.52.85.47,4.24,2.19,3.46,3.51-.53.89-1.75.42-2.49.19-.09-.03-.18.02-.2.11,0,.02,0,.04,0,.06.1.96,3.55,3.74.09,3.57-.19,0-.25.07-.19.25.23.69.54,1.43-.04,2.06-.47.49-1.42.13-1.92-.11-.86-.41-2.02-1.26-2.28-2.26-.12-.45-.29-.87-.51-1.28-.01-.02-.04-.03-.06-.02,0,0,0,0-.01.01-.05.07.11.79.13.94.05.26-.04.46-.26.6-.82.52-1.93-.79-2.37-1.43-.26-.37-.48-.85-.72-1.27-.04-.07-.08-.07-.1,0l-.04.12c-.03.1-.03.21,0,.31.45,1.28,1.21,1.97,2.17,2.87.03.03.02.04-.01.04-1.09.09-2.17.04-3.24-.12-.22-.03-.28.05-.19.25.24.53.52,1.27.16,1.84-.13.2-.31.27-.54.21l-1.07-.3Z"/>
  <path class="cls-2" d="m217.45,194.56c-.38.03-.62.22-1.05.05-.04-.02-.08-.02-.12,0-.16.04-.33.02-.49-.04-.04-.02-.07-.05-.08-.1-.05-.34.01-.66.2-.97.09-.15.22-.2.39-.17.85.18,1.63.53,2.34,1.04.02.01.02.04,0,.05,0,0,0,0-.01.01-.26.16-.51.05-.75.08-.15.02-.29.03-.44.04Z"/>
  <path class="cls-14" d="m220.57,196.9c-1.16.38-2.4.6-3.71.66-.21.01-.33-.09-.35-.31-.03-.32.1-.63.36-.93.05-.06.2-.18.44-.36.16-.12.3-.25.42-.39.56-.07,1.12-.1,1.69-.08.71.02,1.12.77,1.14,1.4Z"/>
  <path class="cls-12" d="m210.21,189.34c.08.03.12.07.12.14,0,.04-.02.07-.05.09-1.58.73-3.09,1.58-4.54,2.55-.69.46-1.25.81-1.69,1.04-1.04.55-2.24,1.08-3.32,1.79-.46.3-1.04.5-1.53.84-.12.09-.29.18-.51.28-.25.11-.44.3-.67.41-1.34.62-2.2,1.05-2.58,1.3-.21.14-1.13.71-1.35.66-.04,0-.08,0-.11.02l-1.33.84s-.04.06-.02.09c0,0,.01.01.02.02l.17.13s.07.02.1,0l.3-.2s.08-.03.12-.02c.12.03.23.03.34,0l-.37.35-4.58,2.1c-.08-.38.07-.65.47-.81.07-.03,1.67-.68,1.71-.95.01-.08-.02-.1-.09-.07-.77.31-1.53.63-2.28.98-.22.1-.38.04-.48-.19,2.34-1.34,4.7-2.64,7.08-3.89,4.4-2.31,8.78-4.65,13.24-6.85-.03.04-.04.09-.02.15.02.06.09.08.14.06,0,0,0,0,0,0l1.69-.84Z"/>
  <path class="cls-14" d="m172.15,162.52c.07,1.4-.04,2.77-.35,4.12-.29,1.29-.93,2.69-1.03,4.1-.01.18-.07.31-.18.37-.03.02-.08.01-.1-.02l-.08-.09s-.06-.05-.1-.05c-.38,0,.02-.9.05-1.09.29-1.5.47-2.77.52-3.83.01-.21.03-.36.05-.45,0-.04.01-.08,0-.11-.04-.46.33-.75-.02-1.17-.02-.03-.05-.04-.09-.04-.03,0-.06-.03-.08-.08,0-.02-.03-.03-.05-.02,0,0,0,0-.01,0-.03.03-.06.05-.09.06.17-.58.47-1.15.9-1.72.09-.13.22-.19.38-.19.12,0,.21.07.28.21Z"/>
  <path class="cls-9" d="m172.25,178.03c.43-3.94,2.23-7.63,4.41-10.94.03-.12.1-.17.21-.16.04,0,.06.03.06.07,0,.24-.06.47-.17.69-1.9,3.7-3.62,7.2-4.08,11.46,0,.05-.05.08-.09.07,0,0,0,0,0,0l-.35-.08s-.07-.05-.07-.09l.09-1.03Z"/>
  <path class="cls-14" d="m169.22,164.41c-.05.02-.11.03-.16,0-.04-.01-.06-.04-.08-.07-.21-.61-.79-.47-1.27-.22-.03.02-.06.05-.07.09-.06.33-.21.62-.45.87-.02.02-.04.02-.06,0,0,0,0,0,0-.01-.05-.1-.07-.2-.07-.32l.06-.48s0-.03-.02-.03c0,0,0,0,0,0h-.05s-.05,0-.05-.03c0,0,0-.01,0-.02.1-.37.13-.75.09-1.13,0-.05-.03-.06-.06-.02-.36.34-.65.45-.6,1.02.01.15,0,.3-.03.45,0,.04,0,.08.02.11.09.15.13.3.1.44-.18.94-.51,2.51-.98,4.69,0,.04-.05.07-.1.06,0,0,0,0,0,0-.05-.02-.08,0-.11.05-.02.03-.04.05-.07.06-.08.02-.15.02-.21-.01-.04-.02-.06-.06-.05-.11.22-1.12.18-2.26.58-3.34.04-.1,0-.2-.08-.26l-.08-.06s-.07-.01-.08.02c0,0,0,.01,0,.02-.3,1.19-.48,2.4-.54,3.62-.01.21-.12.29-.32.24l-.18-.04s-.08-.06-.06-.1c0,0,0,0,0,0,.07-.22.01-.39-.17-.51-.03-.02-.05-.05-.05-.08v-.36s-.03-.08-.06-.09c-.1-.05-.18-.03-.24.06-.02.03-.03.07-.03.11.01.1-.02.17-.11.23-.14.1-.24.07-.3-.1-.16-.46-.33-.9-.5-1.33-.46-1.15-1.15-2.26-1.74-3.35-.19-.36-.54-.58-.73-.99-.1-.21,0-.48-.29-.65-.03-.02-.06-.05-.08-.08-.1-.2-.23-.32-.34-.54-.1-.21-.44-.57-.73-.48-.02,0-.03.03-.02.04,0,0,0,.01.01.02.09.09.15.19.18.31-.45-.63-.96-1.27-1.54-1.93-.05-.05-.12-.06-.18-.02-.01,0-.02.04-.01.09l-.39-.22s-.05-.01-.05.03v.23s-.02.06-.06.07c0,0,0,0-.01,0h-.07s-.05,0-.05.02c0,0,0,0,0,0,0,.11-.07.19-.18.23v-.2s-.02-.08-.04-.11c-.41-.83-1.72-4.55.12-4.59,1.12-.03,2.48,1.18,3.06,2.17,0,.02.03.02.05.01,0,0,.01,0,.01-.01.08-.14.12-.3.1-.46-.07-.54,0-1.05.21-1.55.09-.23.3-.28.61-.15.16.06.29.16.39.3.88,1.14,1.07,2.48,1.24,4.02,0,.06.06.16.09.2.05.08.09.08.12-.02l.24-.88c.06-.24.16-.26.3-.05.62.97.54,2.49.65,3.62,0,.18-.04.33-.01.51.15.91.21,1.87.18,2.89,0,.22-.05.42-.12.59-.02.04-.03.04-.03,0-.18-1.82-.21-3.66-.37-5.48,0-.1-.04-.16-.1-.19-.02-.01-.05,0-.06.02,0,0,0,.01,0,.02-.03.19-.03.37-.01.52.26,1.92.14,3.79.51,5.71.02.1.02.26,0,.47,0,.01,0,.03.02.04l.03.03s.04.01.04-.02c.06-.68.26-1.39.3-1.99.06-1.04-.04-2.07-.29-3.09.11-.18.23-.36.29-.57.21-.64.94-3.27,1.9-2.96.95.31.43,1.95.24,2.61-.19.71-.33,1.46-.4,2.26,0,.1.03.2.11.26.12.09.2.02.24-.1.19-.56.33-.91.41-1.06,1.09-1.85,2.87-.71,2.8,1.02Z"/>
  <path class="cls-8" d="m190.69,180.52c-.25-.24-.6-.42-1.05-.53-.03,0-.05-.04-.04-.07,0,0,0-.02.01-.02l.15-.18s.08-.04.11,0c.75.64,1.52,1.19,2.23,1.87.02.02.02.06,0,.09,0,0,0,0,0,0-.14.13-1.05-.81-1.41-1.16Z"/>
  <path class="cls-13" d="m196.1,186.42s-.06-.01-.1,0c-.03,0-.05.03-.04.06,0,0,0,0,0,.01.2.44.44.8.53,1.27.16.79.41,1.47.27,2.34,0,.03.02.06.05.07l.13.03c-.09.6-.28,1.14-.58,1.62-.24.39-.78,1.22-1.62,2.5-.02.03-.01.06.02.08,0,0,0,0,0,0,.35.22.73.57,1.14.59.22.01.44,0,.66,0-3.75,1.93-7.47,3.9-11.18,5.9-.28.15-.66.43-1.04.59-.02,0-.04,0-.05-.02,0,0,0-.01,0-.02,0-.06.04-.12.1-.18,3.78-3.73,7.54-7.48,11.28-11.26.55-.56.7-1.2.43-1.91-.47-1.25-1.54-1.49-2.73-1.48-.07,0-.08-.03-.05-.08.7-1.13.03-2.45-.92-3.16-.03-.02-.03-.06-.02-.08l.64-1.03c1.64,1.02,2.28,2.46,3.07,4.19Z"/>
  <path class="cls-5" d="m169.22,164.41c.16,1.98-.42,4.12-.83,6.05-.05.04-.1.03-.15-.01-.03-.03-.04-.06-.04-.1.02-.39.21-.56.14-.97,0-.04,0-.08.02-.11.31-.62.33-1.33.47-2.08.02-.11-.01-.13-.09-.05-.09.08-.16.17-.22.28-.02.03-.02.07-.02.11.02.17-.28.75-.38,1.17-.02.1-.18.2-.22.36-.17.67-.33,1.34-.49,2.01-.14.59.08,1.55-.11,2.46-.08.35-.17,1.66-.5,1.81-.03.02-.07,0-.1-.02-.15-.14-.19-.28-.12-.42.37-.7.2-1.65.41-2.55,0-.04-.01-.07-.04-.09-.15-.07-.24-.18-.3-.32-.01-.04-.02-.08-.01-.13.01-.08-.02-.14-.1-.18-.04-.02-.08-.02-.12-.01l-.3.07c-.08.02-.16-.03-.18-.11,0,0,0-.02,0-.02-.03-.47-.07-.94-.19-1.4-.06-.21-.08-.36-.05-.47.19-.89.59-2.25,1.19-4.09.08-.25.07-.56.18-.84,0,.11.02.22.07.32.01.02.04.03.06.02,0,0,0,0,.01,0,.23-.25.38-.54.45-.87,0-.04.03-.07.07-.09.47-.25,1.05-.39,1.27.22.01.04.04.06.08.07.06.02.11.01.16,0Z"/>
  <path class="cls-4" d="m215.38,199.16c.06.04.08.08.04.14-2.32.35-4.26,1.1-6.56,2.01-.08.03-.15.08-.22.13-.11-.1-.19-.23-.22-.38,0-.03.01-.07.04-.08,2.35-.87,4.49-1.65,6.92-1.83Z"/>
  <path class="cls-8" d="m215.43,199.3l.05.05s.03.07-.02.08c-1.61.33-3.18.8-4.71,1.39-.61.16-1.2.39-1.77.67-.04.02-.13.04-.25.04l-.08-.1c.07-.06.14-.1.22-.13,2.3-.9,4.24-1.65,6.56-2.01Z"/>
  <path class="cls-12" d="m163.56,162.93h.06c.25,1.03.35,2.06.29,3.1-.03.6-.23,1.32-.3,1.99,0,.03-.02.04-.04.02l-.03-.03s-.02-.02-.02-.04c.03-.21.03-.37,0-.47-.36-1.92-.25-3.79-.51-5.71-.02-.15-.02-.33.01-.52,0-.03.03-.04.05-.04,0,0,.01,0,.02,0,.06.03.09.09.1.19.16,1.83.19,3.66.37,5.48,0,.04.01.04.03,0,.08-.17.12-.37.12-.59.03-1.01-.03-1.98-.18-2.89-.03-.18,0-.33.01-.51Z"/>
  <path class="cls-11" d="m133.96,244.02c-2.22,3.5-4.19,7.13-5.93,10.89-.02.05-.05.08-.09.1-.04.02-.08.02-.11,0-.67-.37-1.27-.8-2.01-1.03-.61-.19-1.25-.36-1.79-.69-.27-.17-.56-.36-.86-.57-.09-.06-.12-.04-.1.06l.08.37s-.02.07-.05.08c-.02,0-.05,0-.06-.01-.28-.7-.04-1.08.32-1.88,2-4.55,4.35-8.61,7.23-12.71,4.09-5.82,8.01-10.61,13.3-16.59,1.1-1.24,3.93-4.29,8.49-9.15,3.28-3.49,6.57-6.98,9.88-10.45,6.18-6.5,12.05-13.28,17.59-20.34,1.17-1.48,2.29-2.99,3.34-4.54.1-.15.23-.18.39-.09.9.5,1.61,1.65,2.07,2.5.11.2.28.32.51.36,1.34.21,2.45.36,3.64,1.1.18.11.2.25.06.41-3.9,4.63-7.99,9.15-12.25,13.56-4.42,4.58-8.83,9.16-13.34,13.65-5.16,5.15-10.2,10.42-15.12,15.8-5.56,6.08-10.72,12.29-15.18,19.18Z"/>
  <path class="cls-8" d="m196.1,186.42c.79,1.15,1.07,2.4.85,3.77l-.13-.03s-.05-.04-.05-.07c.14-.86-.11-1.55-.27-2.34-.1-.47-.34-.84-.53-1.27-.01-.02,0-.05.02-.07,0,0,0,0,.01,0,.03,0,.06,0,.1,0Z"/>
  <path class="cls-11" d="m147.34,232.62c.06-.14.03-.25-.07-.35-.03-.02-.07-.03-.09,0l-.43.39s-.05.02-.07,0c0,0,0,0,0,0-.1-.15.1-.29-.01-.45-.02-.02-.05-.03-.07-.01,0,0,0,0,0,0-.33.34-.51.8-.76,1.12-.31.38-.63.75-.97,1.1-.18.19-.3.49-.63.65-.03.02-.06.04-.07.08-.2.54-.61.72-.95,1.16-.68.87-1.35,1.75-2,2.64-.04.06-.06.05-.06-.02,0-.1.03-.2.08-.28.02-.03.02-.06,0-.09l-.17-.43s-.04-.04-.06-.03c0,0,0,0,0,0l-.03.02c-.12.06-.13.04-.03-.05.09-.08.1-.18.04-.27-.01-.02-.05-.03-.07-.02l-.19.1s-.06.04-.08.07c-.62.83-1.26,1.64-1.93,2.44-.79.94-1.47,1.98-2.24,2.96-.27.35-.88,1.35-1.82,2.99-.03.05-.1.12-.23.2-.03.02-.07.02-.1,0-.06-.05-.1-.11-.1-.19.05-.12.15-.3.29-.51,1.1-1.66,2.01-2.87,3.37-4.67,3.89-5.13,7.94-9.78,12.44-14.48,5.23-5.45,10.51-10.85,15.87-16.18.59-.59,1.15-1.16,1.67-1.7,5.46-5.67,9.8-10.31,13.03-13.9,1-1.12,1.78-1.98,2.34-2.58.47-.51.96-1.12,1.46-1.66,1.42-1.54,2.76-3.15,4.18-4.69.36-.4,1.07-1.21,2.13-2.44.52.32.99.75,1.42,1.3.33.42.31.78-.03,1.17-.47.55-.88,1.01-1.25,1.37-3.47,3.5-6.94,7-10.4,10.5-9.1,9.19-18.06,18.51-26.9,27.96-2.14,2.29-4.37,4.46-6.47,6.79Z"/>
  <path class="cls-13" d="m207.32,195.82c.05.37.11.72.17,1.05.11.62.43.87.98,1.33.53.44,1.13.92,1.79,1.42.07.05.17.05.24,0,.05-.04.13-.04.22.01l-2.68.69s-.07,0-.1-.03c-.4-.41-.85-.76-1.35-1.04-.15-.09-.22-.22-.19-.39.23-1.29.07-3.72-2.04-2.99-2.36.82-4.79,1.65-7.3,2.51-.08.03-.15.06-.23.09-.96.44-1.96.78-3,1.04.03-.14.11-.24.24-.29.49-.18.95-.47,1.41-.71.96-.52,2.02-.94,3.01-1.45.04-.02.05-.06.03-.1,0-.01-.01-.02-.02-.03l-.05-.03c2.11-1.01,4.24-1.63,6.39-1.87.9-.1,1.72.17,2.49.8Z"/>
  <path class="cls-11" d="m190.59,183.25l.37.27c-1.05,1.23-1.76,2.05-2.13,2.44-1.41,1.55-2.75,3.16-4.18,4.69-.5.54-.99,1.15-1.46,1.66-.56.6-1.34,1.46-2.34,2.58-3.23,3.6-7.58,8.23-13.03,13.9-.52.54-1.08,1.11-1.67,1.7-5.35,5.33-10.64,10.72-15.87,16.18-4.5,4.7-8.55,9.35-12.44,14.48-1.36,1.8-2.27,3.01-3.37,4.67-.15.22-.24.39-.29.51l-.71,1.18s-.05.04-.08.02l-.11-.05,1.74-2.9c2.15-3.3,4.22-6.18,6.2-8.64,10.68-13.27,23.19-25.15,34.8-37.2,3.9-4.05,9.27-9.77,14.23-15.59.09-.11.2-.08.33.09Z"/>
  <path class="cls-4" d="m215.21,204.01c-.35-.08-.71-.06-1.08.07-.16.05-2,.62-2.07.39,0-.03-.04-.05-.07-.05l-.25-.02s-.06.02-.06.05v.06s-.05.07-.09.08c-.75.16-1.49.37-2.22.62-.07-.13-.1-.22-.08-.27.04-.15.13-.25.29-.29,1.91-.5,3.81-.85,5.7-1.05-.1.05-.22.08-.34.09-.04,0-.04,0,0,.02.22.08.44.1.66.06.38-.06.76-.1,1.14-.17.11-.02.14.02.09.12-.09.17-1.37.26-1.6.3Z"/>
  <path class="cls-10" d="m186.21,180.82c.12.44-3.69,4.94-4.23,5.58-6.05,7.13-11.68,13.19-17.8,19.51-1.33,1.37-2.18,2.23-2.56,2.59-.02.02-.06.04-.11.07-.04.02-.04.01-.01-.02,4.67-4.91,7.88-8.33,9.63-10.27,5.51-6.1,9.66-11.01,14.04-16.63.24-.3.5-.6.8-.9.12-.12.2-.1.24.07Z"/>
  <path class="cls-12" d="m183.35,179.02c-1.22,1.52-2.34,3.11-3.58,4.61l-.06-.07s-.02-.06,0-.08l3.45-4.67s.08-.04.11-.02c0,0,.01.01.02.02.06.09.08.15.05.21Z"/>
  <path class="cls-11" d="m145.58,222.14v-.04s-.01-.03-.03,0l-.03.04s-.03.02-.04,0c-.01-.07-.05-.11-.12-.11-.03,0-.05-.03-.05-.06v-.17c.57-.69,1.08-1.27,1.52-1.75,1.5-1.63,4.06-4.4,7.68-8.32.53-.58,1.08-1.15,1.64-1.73,5.89-6.11,9.54-9.94,10.93-11.5,1.53-1.72,3.07-3.43,4.6-5.15,2.81-3.15,5.46-6.41,8.09-9.7,1.24-1.5,2.36-3.09,3.58-4.61.27.05.47.19.61.43.02.03.02.07,0,.1-5.23,6.83-10.68,12.91-16.55,19.21-7.27,7.79-14.19,14.99-21.82,23.38Z"/>
  <path class="cls-11" d="m194.76,188.01l-.12.04s-.07.04-.09.07c-.19.34-.44.66-.75.97-2.64,2.59-5.13,4.98-7.48,7.15-1.49,1.38-3.78,3.63-5.87,5.5-1.85,1.65-3.61,3.38-5.44,5.04-1.56,1.42-3.1,2.87-4.61,4.35-.27.27-.61.72-.99,1.04-.38.32-.76.64-1.14.96-.18.16-.27.33-.05.5-1.72,1.28-3.4,2.61-5.04,4-.08.07-.17.12-.26.15-.04.02-.05,0-.01-.02,3.74-3.59,6.81-6.98,11.2-11.47,5.83-5.97,11.69-11.91,17.58-17.81.29-.29.57-.59.85-.89.03-.03.06-.05.1-.05.65-.09,1.62-.07,2.12.49Z"/>
  <path class="cls-11" d="m194.76,188.01c.41.36.42.75.01,1.16-4.92,4.99-9.43,9.49-13.52,13.52-2.05,2.02-4.03,4.07-6.15,6.03-.44.41-.87.8-1.39,1.14-1.86,1.21-3.69,2.47-5.5,3.76-.22-.17-.13-.35.05-.5.38-.32.76-.64,1.14-.96.37-.31.72-.77.99-1.04,1.51-1.48,3.05-2.93,4.61-4.35,1.83-1.66,3.59-3.39,5.44-5.04,2.1-1.87,4.38-4.12,5.87-5.5,2.35-2.18,4.84-4.56,7.48-7.15.31-.31.56-.63.75-.97.02-.03.05-.06.09-.07l.12-.04Z"/>
  <path class="cls-2" d="m158.98,162.13c1.68,2.38,3.08,4.91,4.19,7.61,2.71,7.05,3.55,14.51,3.01,22.05-.02.04-.04.05-.07.05-.06,0-.1-.05-.1-.11.04-1.03,0-2.06-.11-3.08l-.05-.72c.09-.33.1-.67.05-1.01,0-.04,0-.08.02-.11.36-.55.07-.8.1-1.34.04-.69-.03-1.37-.22-2.04-.12-.42-.17-.85-.16-1.28,0-.04-.01-.08-.04-.11-.11-.16-.15-.34-.1-.53.01-.04,0-.08,0-.12-.17-.49-.17-1.01-.28-1.48-.07-.29-.11-.58-.13-.88-.04-.51-.3-.91-.31-1.46,0-.04-.01-.08-.03-.12-.15-.27-.2-.56-.15-.87,0-.04,0-.08-.03-.11l-.22-.26c-.12-.62-1.38-6.5-1.67-6.49-.04,0-.07.03-.07.07,0,0,0,.01,0,.02.38,1.32.73,2.64,1.03,3.97.39,1.71.6,3.19.91,5.04.33,1.93.63,4.3.89,7.11-.05.06-.1.08-.17.07-.04,0-.07-.04-.07-.07-.92-6.53-2.07-12.11-4.08-17.91-.95-2.75-2.15-5.49-3.88-7.74,0-.05,0-.08.01-.09.05-.04.13-.03.18.02.58.65,1.1,1.3,1.54,1.93Z"/>
  <path class="cls-5" d="m157.25,160.27c1.74,2.25,2.93,4.99,3.88,7.74,2.01,5.8,3.16,11.38,4.08,17.91,0,.04.03.07.07.07.06,0,.12-.01.17-.07l.08.43c.12,1.61.2,3.3-.09,4.9-.03.14-.03.28-.02.43.02.2.01.4-.03.59-.08.38-.12.59-.12.63-.1.89-.23,1.78-.39,2.66l-.7-3.23.22-.19s.04-.06.04-.1c-.11-1.59-.57-2.81-.97-4.22-.5-1.77-.75-3.63-1.06-5.46-.24-1.41-.39-2.84-.45-4.28-.01-.26-.06-.52-.16-.76-.09-.23-.11-.53-.06-.91.02-.19.15-.35.17-.55.02-.22.04-.35.06-.41.07-.23.28-.57,0-.74-.03-.02-.06,0-.08.02,0,0,0,0,0,.01l-.03.08c-.02.07-.05.07-.1.02l-.1-.14s-.03-.08-.02-.12l.21-.52c.02-.06,0-.13-.06-.15,0,0-.01,0-.02,0-.34-.06-.5-.18-.46-.34,0-.03,0-.07-.04-.08-.08-.04-.11-.1-.1-.19,0-.06-.04-.1-.09-.11,0,0,0,0,0,0h-.22s-.05-.04-.06-.07c-.05-.3,0-.66-.13-1-.01-.04-.06-.06-.1-.04,0,0,0,0,0,0-.07.03-.1,0-.09-.08.01-.1,0-.1-.06-.02-.06.09-.11.18-.14.29-.04.13-.06.13-.07,0l-.02-.56s-.03-.08-.07-.09l-.07-.02s-.08,0-.1.04c-.08.13-.1.27-.04.4.02.04,0,.09-.02.13l-.15.15s-.07.03-.11.01c-.08-.05-.13-.03-.14.05-.04.3-.06.6-.05.92,0,.16-.06.29-.19.38l-.43.32s-.04.07-.01.1c0,0,0,0,0,0,.2.2.19.4-.02.61-.03.03-.05.06-.05.1l-.18.73s-.03.07-.05.09c-.2.19-.3.43-.29.71,0,.05,0,.09-.03.13-.16.31-.23.62-.2.92.01.15,0,.28-.05.39-.16.38-.26.73-.27,1.15,0,.31-.07.62-.19.91-.01.03,0,.06.02.09.04.04.04.08,0,.12-.03.03-.03.07-.02.1.08.19,0,.31-.19.4-.14.07-.46.46-.58.32-.02-.02-.04-.02-.06,0,0,0,0,0,0,.01l-.02.05s0,.07.02.09c.06.04.08.1.07.17,0,.02,0,.02,0,0,.04-.07.1-.11.17-.11.04,0,.05.02.03.05-.32.43-.56.84-1.03.76-.03,0-.06-.02-.08-.05-.08-.1-.17-.14-.28-.13-.04,0-.08,0-.13,0l-.45-.06s-.08,0-.11.04c-.08.09-.18.1-.28.03-.03-.02-.07-.03-.11-.03-.54.05-1.07.04-1.61-.03-.02,0-.04.01-.04.03,0,0,0,0,0,0v.05s.02.02.03.02h.03c.06-.02.06,0,0,.04-.01,0-.01.02,0,.03.05.03.04.04-.02.02l-1.12-.3s-.02-.01-.01-.02c0,0,0,0,0,0l.02-.03s.02-.05-.03-.04c-.49.09-.95.25-1.39.49-.05.03-.12.03-.18.01-.21-.07-.36-.08-.44,0-.66.07-1.25.22-1.94.18-1.24-.09-2.07-.89-2.2-2.14,0-.04.02-.08.06-.1.04-.02.08-.01.13.01.04.02.08.03.12.03,4.01.2,6.66.33,10.11,1.41.03.01.07,0,.1-.03.43-.47-2.14-1.16-2.62-1.26-2.09-.44-4.17-.64-6.24-.59-.5.01-1.02.11-1.55.28-.02,0-.05,0-.05-.03,0,0,0,0,0-.01.01-1.11.75-2.09,1.89-2.2.26-.02.53.08.81.08.04,0,.07-.02.08-.06.08-.19.1-.41.21-.56.72-.95,2.48-.56,3.45-.32,1.11.59,2.17.75,3.4.49.33-.07,1.83-.24,1.87-.56,0-.03-.01-.05-.04-.06,0,0,0,0,0,0-.13,0-.23-.04-.3-.14.26.03.42-.01.5-.12.12-.16.08-.27-.11-.33-1.77-.55-3.49-.98-5.13-1.71-.92-.41-2.87-1.62-2.52-2.84.38-1.31,4.7.6,5.4.43.04.12.12.15.22.09.04-.02.06-.07.04-.12-.04-.11-.12-.18-.23-.19-.19-.02-.33-.12-.41-.29-.21-.44-.36-.91-.44-1.4-.03-.21-.04-.43-.03-.64,0-.12,0-.24-.03-.35-.02-.1.01-.13.11-.09.09.04.18.02.26-.05.03-.02.06-.04.1-.05l.25-.04s.09,0,.12.03c.15.1.31.15.48.15.03,0,.06-.01.08-.04l.09-.11s.06-.03.09-.01c0,0,0,0,.01.01.04.06.09.06.13.03.03-.02.07-.02.09.01,0,0,0,.01.01.02.03.09.08.12.15.07.02-.01.02-.03,0-.05,0,0,0,0,0,0,0,0-.01-.01-.02-.02-.03-.05-.01-.07.04-.06l.22.02s.08.03.11.06c.11.15.19.31.26.48.04.11.12.25.23.42.1.16.16.33.17.52,0,.04.01.07.04.11l.23.32s.04.07.04.1l.13.85s.02.04.05.11c.02.04.01.09-.02.14-.02.03-.02.07-.01.1.09.26.13.53.12.81,0,.03.03.09.05.1.03.02.07,0,.09-.02.06-.08.13-.11.21-.08.03.01.06,0,.07-.03,0,0,0,0,0,0l.17-.6s.08.03.11.01c.03-.01.05-.05.05-.09-.2-1.04-.28-2.45-.96-3.65,0-.02-.03-.02-.05-.02-.01,0-.02.01-.02.03l-.16-.38.08.02s.06,0,.07-.04c0,0,0,0,0,0,.03-.33-.73-.7-1.03-.83-.7-.29-5.53-1.67-3.87-3.11.89-.77,1.88-.69,2.96-.61.1,0,.18-.07.19-.16,0-.02,0-.03,0-.05-.14-.66-.43-1.36-.45-2.03-.08-.63.74-.38,1.11-.54.11-.04.17-.12.18-.23,0-.02.02-.04.05-.04,0,0,0,0,0,0h.07s.07,0,.08-.04c0,0,0,0,0-.01v-.23s.01-.05.05-.03l.39.22Z"/>
  <path class="cls-8" d="m215.21,204.01c-1.32.39-2.66.67-4.02.83l-1.77.53-.05-.18c.73-.25,1.47-.45,2.22-.62.04,0,.07-.04.08-.08v-.06s.04-.05.07-.05l.25.02s.06.02.07.05c.07.23,1.91-.34,2.07-.39.37-.12.73-.15,1.08-.07Z"/>
  <path class="cls-4" d="m210.75,200.82c.28.87.62,1.77,1.54,2.19.08.04.09.07.1.16l-2.96.63s-.06-.01-.07-.05c-.17-.75-.38-1.49-.63-2.21.13,0,.21-.02.25-.04.57-.28,1.16-.51,1.77-.67Z"/>
  <path class="cls-11" d="m138.82,259.86c-.42.5-1.02.65-1.64.67,1.31-5.1,4.17-10.1,7.12-14.31,1.61-2.31,2.75-3.74,4.2-5.57,0,0,0-.01,0-.02l-.02-.03s-.02-.01-.03,0c0,0,0,0,0,0-4.43,5.33-8.22,10.66-11.02,16.75-.42.92-.74,1.88-.94,2.87l-1.04-.6s-.03-.04-.02-.06c0-.02,0-.04,0-.05,1.23-4.04,3.16-7.76,5.26-11.37,0,0,0,0,0,0l-.03-.02s-.03,0-.04,0c0,0,0,0,0,0-2.4,3.82-4.29,7.04-5.89,11.08-.8-.19-1.59-.44-2.36-.72.07-.57.24-1.18.51-1.85,2.63-6.51,6.51-12.46,10.73-17.72,5.24-6.53,11.03-12.51,17.38-17.96,1.83-1.57,4.38-3.53,5.65-4.51,8.89-6.84,19.09-12.39,29.53-16.35,2.94-1.11,5.92-2.13,8.89-3.2.1-.04.2.01.24.11.22.6.09,1.81.06,2.14-.03.37.02.6.39.79.68.36,1.27.66,1.67,1.35.51.88.83,1.83.96,2.85.02.18.08.34.14.51,0,.03,0,.05-.03.06,0,0,0,0,0,0-.15.02-.31.01-.46.04-5.96,1.45-11.45,3.26-16.46,5.44-13.81,6-25.98,15.14-36.44,25.87-5.65,5.8-10.74,12.4-14.32,19.68-.48.98-1.13,2.35-1.96,4.11Z"/>
  <path class="cls-4" d="m180.65,178.97l-1.18,1.64c-1.01,1.26-2.05,2.64-3,3.81-2.69,3.28-5.44,6.5-8.28,9.65-.46.51-.89,1.02-1.31,1.53-.06.07-.08.06-.07-.03.55-3.49.55-7.15.36-10.68.07-.04.12-.07.17-.07.03,0,.05-.02.05-.05,0,0,0,0,0,0,0-.41,0-.76.02-1.07,0-.1-.01-.27-.05-.5-.02-.14-.02-.28,0-.43,0-.04,0-.08,0-.12-.06-.26-.09-.53-.1-.8,0-.04-.01-.09-.04-.13-.07-.11-.09-.23-.04-.35,0-.03,0-.06-.03-.08l-.03-.03s-.03-.05-.03-.08c.08-.31.09-.46,0-.8-.1-.36-.09-.62-.3-1.01-.02-.04-.03-.08-.02-.12.06-.3.02-.59-.13-.86-.02-.03-.02-.06,0-.09.13-.27.02-.54-.19-.73-.03-.02-.05-.06-.05-.1-.03-.39-.21-1.12.02-1.56.02-.03.05-.04.08-.02,0,0,0,0,0,0,.11.07.18.17.2.31,0,.04.02.08.05.11.13.15.22.31.27.51.34,1.39.79,2.84,1.01,4.17.2,1.22.34,2.34.37,3.66.02.98.07,1.96.13,2.95.02.26.15.35.4.28,1.56-.45,2.43-6.27,2.75-8.1.01-.08.06-.26.14-.54.01-.04.04-.07.08-.09l.03-.02s.03,0,.03.01c0,0,0,0,0,.01-.03.34-.12.68-.26,1-.11.25-.04.42.22.51l.09.03c.06.02.09,0,.07-.06l-.03-.14c-.01-.05,0-.07.05-.04.28.18.4.31.36.4-.01.03-.01.07,0,.1.15.27.65.07.9.1.03,0,.07,0,.09-.03l.28-.23s.07-.03.11,0l.04.03s.02.03.01.05l-.23.43s0,.07.02.08c0,0,.02,0,.03,0,.21,0,.35-.1.43-.31.04-.13.06-.12.03,0-.02.14-.07.27-.14.38-.02.04-.03.08,0,.12l.04.09s.02.08.02.12c-.06.49-.3,1.08-.22,1.55,0,.04,0,.08-.01.11-.07.17-.06.69.25.56.03-.01.06-.05.07-.08.08-.43.05-.86.15-1.27.12-.48.24-.96.35-1.44.07-.33.24-.68.33-1.04.1-.4.34-.79.49-1.18.04-.1.06-.1.07,0v.03s.01.04.03,0c.03-.07.08-.12.15-.14.12-.04.13-.03.03.06-.06.05-.08.12-.05.19.01.03.01.06,0,.09-.76,1.82-1.31,3.55-1.24,5.55,0,.08.04.1.1.06.25-.16.48-.34.68-.55,1.81-1.86,3.56-3.76,5.06-5.89.02-.03.07-.04.1-.02h0s.12.09.12.09c.04.02.05.07.02.11l-.11.17c-.04.06-.03.14.02.19.07.07.14.07.2,0Z"/>
  <path class="cls-3" d="m150.48,232.88c-.08,0-.12-.04-.13-.09,0-.04,0-.08.04-.1.08-.07.14-.16.19-.26.3-.32.51-.61.88-.94.2-.18.34-.42.52-.59.55-.54.98-1.21,1.51-1.71,1.9-1.81,3.79-4.01,5.48-5.45,2.24-1.91,4.5-3.78,6.78-5.63.63-.51,1.24-1.06,1.89-1.53,3.61-2.61,7.36-5.02,11.24-7.21.6-.34,1.29-.73,2.06-1.19,3.78-2.19,7.69-4.11,11.74-5.74,1.38-.56,2.84-1.03,4.26-1.57,2.18-.82,4.24-1.51,6.36-2.23.24-.08.45-.22.69-.34.15-.08.24-.04.27.13.05.27-.24.44-.48.52-4.04,1.31-7.74,2.65-11.11,4.01-8.09,3.29-15.98,7.86-23.24,12.91-2.62,1.82-5.04,3.87-7.52,5.88-1.16.94-2.6,2.2-4.32,3.77-1.62,1.49-3.14,3.13-4.7,4.7-.38.39-1.19,1.28-2.4,2.67Z"/>
  <path class="cls-10" d="m204.92,200.66c-5.18,1.47-10.26,3.47-15.13,5.77-.65.31-1.36.66-2.13,1.06-4.03,2.08-8.08,4.16-11.75,6.85-.05,0-.09,0-.13-.03-.02,0-.03-.03-.02-.05,0,0,0-.01.01-.01.43-.3.86-.67,1.26-.95,6.31-4.33,13.11-8.05,20.31-10.68,2.39-.87,4.77-1.71,7.21-2.41.26-.07.53-.13.81-.17.19-.03.22.03.09.17-.08.08-.16.13-.26.15-.04,0-.07.03-.09.07-.04.09-.1.17-.18.24Z"/>
  <path class="cls-4" d="m212.62,207.4l.07.5c0,.87-.25,1.68-.72,2.42-.8,1.27-1.49,2.51-2.06,3.71-.1.2-.2.36-.32.47v-.03s-.03-.03-.05-.02c-.14.03-.25.09-.33.19-.02.03-.06.05-.1.04l-.46-.04c-.16-.01-.29.05-.38.18-.09.13-.21.18-.36.15-.04-.01-.08-.01-.13-.01h-.13c-.16.02-.31,0-.46-.03-.58-.16-1.12-.4-1.64-.7-.06-.04-.13-.04-.2-.02-.54.19-1.06.4-1.57.67-.19.1-.39.16-.6.17-.04,0-.08,0-.11-.03-.25-.17-.51-.2-.79-.11-.04.01-.08.01-.12,0-.53-.24-1.1-.54-1.41-.04-.17.26-.29.35-.56.42-.04.01-.08,0-.1-.03-.01-.02-.03-.03-.05-.03-.03,0-.05-.04-.05-.07,0,0,0,0,0-.01l.05-.11s.03-.05.05-.07l.28-.25s.05-.08.04-.13c-.03-.12-.1-.17-.22-.15-.19.03-.19,0,0-.08l.34-.15s.03-.02.03-.02c0,0,0,0,0,0l-.02-.03s0-.04,0-.05c.29-.21.5-.47.83-.6.34-.14.68-.27,1.02-.39.31-.11.69-.36,1.08-.4.38-.04,1.64-.16,1.75-.28.02-.03.06-.04.1-.05.61-.05,1.42-.39,1.95-.62.04-.02.04-.04,0-.06l-.03-.02s-.03,0-.04,0l-1.03.25s-.01,0-.02,0c-.07.06-.46.03-.57.04-.04,0-.04,0,0-.02.43-.2.87-.32,1.34-.37.04,0,.07-.02.09-.06.14-.22.36-.19.51-.28.21-.11.35-.22.61-.38.21-.13.35-.36.41-.71,0-.04.05-.07.09-.07.05,0,.09-.01.13-.05.03-.04.03-.06-.02-.07l-.47-.08c2.13-.46,1.93-2.23,1.3-3.82l-.17-.73,1.77-.53c.09.18.24.2.44.09.06-.03.13-.01.16.04,0,.01.01.02.01.03.18.82.45,1.62.81,2.4Z"/>
  <path class="cls-11" d="m175.91,214.34c3.67-2.68,7.72-4.76,11.75-6.85.77-.4,1.48-.75,2.13-1.06,4.87-2.3,9.94-4.3,15.13-5.77.31.2.53.48.68.83.06.14.02.23-.13.27-4.92,1.38-9.86,3.24-14.36,5.27-.78.35-1.75.84-2.92,1.47-.02.01-.05.02-.08.01-.04,0-.08,0-.11.02-.61.37-1.25.69-1.92.96-.03.01-.13.07-.28.16-.14.09-.35.13-.5.22-2.76,1.5-4.79,2.64-8.16,4.69-.02.01-.13.06-.32.13-.17.07-.26.21-.38.3-.39.3-.7.55-1.17.86-1.05.71-1.87,1.42-3.16,2.25-3.55,2.28-6.72,5.04-9.95,7.74-2.44,2.04-4.16,3.56-5.17,4.57-1.17,1.17-2.36,2.32-3.57,3.45-.11.11-.24.19-.38.25-.04.02-.04,0-.02-.02,2.35-2.37,4.88-5.12,7.4-7.35,1.88-1.67,3.28-2.95,4.99-4.33,2.85-2.3,5.75-4.53,8.71-6.7.56-.41,1.16-.94,1.76-1.39Z"/>
  <path class="cls-4" d="m164.35,176.21c.05.47.2.92.25,1.38.09.8.3,1.56.37,2.35.05.55.25,1.15.3,1.75.14,1.53.26,3.07.38,4.6l-.13.05-.08-.43c-.26-2.81-.56-5.18-.89-7.11-.32-1.85-.52-3.33-.91-5.04-.31-1.33-.65-2.65-1.03-3.97-.01-.04.01-.08.05-.09,0,0,.01,0,.02,0,.29,0,1.55,5.87,1.67,6.49Z"/>
  <path class="cls-2" d="m212.7,207.91l-.07-.5c2.59,1.23,4.82,3.63,5.53,6.46,0,.03-.01.06-.04.07,0,0,0,0,0,0-.06,0-.18-.09-.2-.16-.99-2.48-2.63-4.42-4.94-5.82-.03-.02-.07-.03-.11-.03h-.16Z"/>
  <path class="cls-8" d="m198.45,196.89l.05.03s.04.07.02.1c0,0-.02.02-.03.02-.99.52-2.05.93-3.01,1.45-.46.25-.92.54-1.41.71-.13.05-.21.14-.24.29l-.51.16.37-.35c1.54-.9,3.13-1.71,4.76-2.42Z"/>
  <path class="cls-1" d="m209.59,206.1c.62,1.59.82,3.35-1.3,3.82-1.67.43-3.33.91-4.97,1.42l-.03-.09s0-.07,0-.1l.11-.23s0-.05-.02-.06c0,0-.01,0-.02,0l-.43.02c-.07,0-.07,0,0-.04.08-.04.16-.06.23-.07.04,0,.04-.02.01-.05-.21-.17-.42.05-.52-.15-.03-.07,0-.15.06-.19,0,0,.02,0,.03,0,.57-.14,1.12-.28,1.65-.54.19-.09.37-.03.58-.1.77-.24,1.54-.46,2.32-.65.04,0,.07-.03.08-.07.03-.08.08-.14.14-.19.46-.09.89-.26,1.3-.49.03-.02.05-.05.06-.09l.02-.47c.1,0,.18-.03.23-.12.02-.03.03-.07.02-.11l-.07-.26s.01-.07.05-.08c0,0,0,0,0,0,.13-.02.24-.08.32-.18.02-.02.05-.02.07,0h0s.05.04.05.04c.04.03.05.02.03-.02-.1-.29-.42-1.01-.01-.93Z"/>
  <path class="cls-9" d="m215.23,210.89c-.1-.08-.2-.17-.29-.26-.01-.01-.01-.04,0-.05,0,0,0,0,.02,0,.32-.09.6,0,.83.26,1.1,1.25,1.69,3,2.35,4.51.01.03,0,.06-.03.07,0,0,0,0,0,0-.15.05-.63-.7-.66-.77-.49-1.06-1.05-2.84-2.21-3.76Z"/>
  <path class="cls-11" d="m208.9,207.77l-.02.47s-.02.07-.06.09c-.41.23-.84.39-1.3.49-10.08,2.69-19.73,6.5-28.59,12.02-.06-.03-.12-.02-.18,0-.02,0-.04,0-.04-.01,0,0,0,0,0,0l-.04-.26,2.43-1.34c.14-.08.28-.16.41-.24.43-.28.88-.53,1.34-.76,1.03-.51,2.05-1.03,3.07-1.57.03-.01.04-.05.03-.08,0,0,0,0,0,0l-.04-.05s-.07-.05-.11-.03c-3.48,1.62-6.78,3.62-10.09,5.56-1.29.76-2.62,1.68-3.99,2.54-1.07.68-2.16,1.45-3.28,2.33l.13-.19s.01-.05,0-.07c-.09-.1-.2-.14-.33-.14-.08,0-.09-.02-.02-.07l.94-.7s.05-.05.06-.08c.07-.19.2-.29.4-.32.04,0,.08-.02.11-.04.25-.17.45-.38.62-.63.02-.03.05-.06.09-.07.5-.22.95-.27,1.23-.85.02-.04.05-.07.09-.08.22-.09.41-.21.59-.37.03-.03.07-.05.11-.05.18-.01.32-.06.42-.16.14-.13.29-.26.44-.39.09-.08.19-.15.3-.22.89-.58,1.78-1.16,2.66-1.76.07-.04.14-.12.22-.23.02-.03.06-.05.09-.06.74-.22,1.51-.65,1.81-1.4.01-.04.04-.07.07-.09.33-.25.69-.43,1.09-.54.41-.11.7-.41,1.05-.62.22-.13.33-.34.58-.45.04-.02.07-.04.09-.07.38-.46.97-.15,1.4-.78.02-.03.05-.05.09-.06.62-.13.85-.49,1.36-.77.19-.1.37-.23.53-.39.16-.15.31-.18.5-.27.03-.01.04-.05.03-.08-.04-.11-.05-.22-.02-.32,7.04-3.69,14.56-6.49,22.24-8.51.34-.09.65-.15.94-.18.11-.01.2.06.23.16.17.59.27,1.15.32,1.69Z"/>
  <path class="cls-14" d="m157.38,167.99l.16.38c.49,1.23.7,2.41.87,3.71l-.17.6s-.04.05-.07.04c0,0,0,0,0,0-.08-.03-.15,0-.21.08-.02.03-.06.04-.09.02-.02-.01-.06-.07-.05-.1.01-.28-.03-.55-.12-.81-.01-.03,0-.07.01-.1.03-.05.04-.1.02-.14-.03-.07-.05-.11-.05-.11l-.13-.85s-.02-.07-.04-.1l-.23-.32s-.03-.07-.04-.11c-.01-.19-.07-.36-.17-.52-.11-.17-.19-.31-.23-.42-.07-.17-.15-.33-.26-.48-.02-.04-.06-.06-.11-.06l-.22-.02c-.05,0-.07.02-.04.06,0,0,.01.02.02.02.01.01.02.03,0,.05,0,0,0,0,0,0-.07.05-.12.03-.15-.07-.01-.03-.05-.05-.08-.04,0,0-.02,0-.02.01-.05.04-.09.03-.13-.03-.02-.03-.06-.04-.09-.02,0,0,0,0-.01.01l-.09.11s-.05.04-.08.04c-.17,0-.33-.06-.48-.15-.04-.02-.08-.03-.12-.03l-.25.04s-.07.02-.1.05c-.08.07-.17.09-.26.05-.09-.04-.13,0-.11.09.03.12.03.23.03.35-.02.21,0,.43.03.64.08.49.23.96.44,1.4.08.17.22.27.41.29.11.01.18.08.23.19.02.04,0,.1-.04.12-.11.06-.18.03-.22-.09-.89-.4-1.81-.73-2.75-1-.15-.04-.16-.11-.05-.21.36-.32.8-.52,1.32-.62.2-.04.2-.27.08-.41-.74-.87-1.79-2.06-1.41-3.3.01-.04.05-.06.1-.05,0,0,0,0,0,0,1.17.48,2.36.9,3.56,1.24.5.14.94.35,1.38.57Z"/>
  <path class="cls-13" d="m158.41,172.09c-.17-1.3-.39-2.48-.87-3.71,0-.01.01-.02.02-.03.02,0,.04,0,.05.02.68,1.2.76,2.61.96,3.65,0,.04-.01.07-.05.09-.04.02-.07.01-.11-.01Z"/>
  <path class="cls-12" d="m164.18,192.33c-.23-.38-.77-1.26-1.22-1.25-.02,0-.04-.01-.05-.03l-.02-.04s-.04-.05-.07-.05c-.17,0-.26.1-.26.26,0,.02-.02.04-.04.04,0,0,0,0-.01,0-.14-.06-.24-.01-.3.13-.03.09-.05.09-.05,0,0-.06.02-.12.06-.17.02-.03.03-.07.01-.1-.13-.25-.45-.4-.66-.57-.04-.03-.04-.02-.01.01.16.23.54.37.41.7-.01.04-.01.08,0,.11l.17.42s.04.07.07.09l.2.12c.1,1.61.1,3.22.02,4.84-.69-.17-1.17-1.39-1.37-1.92,0-.02,0-.05.03-.06,0,0,.01,0,.02,0,.17,0,.71.47.94.58.03.02.07.01.1-.01l.04-.03s.03-.06.01-.08c0,0,0,0-.01-.01-.62-.43-1.19-.73-1.73-1.09-1.85-1.2-3.73-1.87-5.94-1.99-.03,0-.16-.03-.4-.09-.26-.06-.51.06-.74.36-.02.03-.02.07.01.09,0,0,.01,0,.02,0l.34.13c.09.04.09.06,0,.08l-.21.03-.42-.15c-.06-.02-.09-.09-.07-.15,0-.02.02-.03.03-.04.41-.4.87-.72,1.39-.95.08-.04.08-.08.01-.13-.5-.35-1.12.05-1.62.19-.24.07-.48.09-.72.07-.92-.09-5.19-.67-4.14-2.32.57-.89,1.49-1.42,2.32-2.27.06-.06.06-.16,0-.23-.54-.6-1.34-1.19-1.12-2.17.17-.76.19-1.65.46-2.36.05-.13.07-.26.06-.39.08-.07.23-.07.44,0,.06.02.12.02.18-.01.44-.23.9-.4,1.39-.49.04,0,.05,0,.03.04l-.02.03s0,.02,0,.03c0,0,0,0,0,0l1.12.3c.06.02.07,0,.02-.02-.02-.01-.02-.02,0-.03.06-.04.05-.05,0-.04h-.03s-.02,0-.02-.01v-.05s0-.04.02-.04c0,0,0,0,0,0,.54.07,1.07.08,1.61.03.04,0,.08,0,.11.03.1.07.19.06.28-.03.03-.03.07-.04.11-.04l.45.06s.08,0,.13,0c.11-.02.2.03.28.13.02.03.05.04.08.05.47.08.71-.33,1.03-.76.03-.04.02-.05-.03-.05-.07,0-.13.04-.17.11,0,.01-.01.01,0,0,.01-.07,0-.13-.07-.17-.03-.02-.04-.06-.02-.09l.02-.05s.03-.03.05-.02c0,0,0,0,.01,0,.12.13.43-.25.58-.32.18-.09.27-.22.19-.4-.02-.03,0-.07.02-.1.04-.04.04-.08,0-.12-.02-.02-.03-.06-.02-.09.12-.29.19-.6.19-.91.01-.42.11-.77.27-1.15.05-.11.06-.24.05-.39-.03-.3.04-.6.2-.92.02-.04.03-.08.03-.13-.01-.28.08-.51.29-.71.03-.03.05-.06.05-.09l.18-.73s.03-.07.05-.1c.21-.21.22-.41.02-.61-.03-.03-.03-.07,0-.1,0,0,0,0,0,0l.43-.32c.13-.1.19-.22.19-.38,0-.32.01-.63.05-.92.01-.08.06-.09.14-.05.03.02.08.01.11-.01l.15-.15s.04-.08.02-.13c-.06-.13-.04-.27.04-.4.02-.03.06-.05.1-.04l.07.02s.07.05.07.09l.02.56c0,.13.03.14.07,0,.03-.1.08-.2.14-.29.05-.08.08-.07.06.02-.01.08.02.11.09.08.04-.02.08,0,.1.04,0,0,0,0,0,0,.13.34.08.7.13,1,0,.03.03.05.06.05h.22c.06.02.1.07.09.12,0,0,0,0,0,0,0,.09.03.16.1.19.03.01.05.05.04.08-.04.16.11.27.46.34.06.01.1.07.09.13,0,0,0,.02,0,.02l-.21.52s-.01.09.02.12l.1.14c.04.06.07.05.1-.02l.03-.08s.04-.04.07-.04c0,0,0,0,.01,0,.27.17.06.51,0,.74-.02.06-.04.2-.06.41-.02.2-.15.36-.17.55-.05.38-.03.68.06.91.09.24.15.5.16.76.06,1.44.21,2.87.45,4.28.31,1.83.56,3.69,1.06,5.46.4,1.41.86,2.63.97,4.22,0,.04-.01.08-.04.1l-.22.19Z"/>
  <path class="cls-14" d="m164.35,176.21l.22.26s.04.07.03.11c-.05.3,0,.59.15.87.02.04.03.08.03.12.01.55.28.96.31,1.46.02.3.06.59.13.88.1.47.11,1,.28,1.48.01.04.01.08,0,.12-.05.19-.02.37.1.53.02.03.04.07.04.11,0,.44.05.86.16,1.28.19.67.26,1.35.22,2.04-.03.54.26.79-.1,1.34-.02.03-.03.07-.02.11.06.34.04.68-.05,1.01l-.21-1.64c-.12-1.54-.25-3.07-.38-4.6-.05-.6-.24-1.19-.3-1.75-.08-.8-.28-1.55-.37-2.35-.05-.46-.2-.91-.25-1.38Z"/>
  <path class="cls-13" d="m209.6,214.52c-.35.37-.75.6-1.2.69-.17.03-.21.13-.14.28.46.9.75,1.84.89,2.81-.07.31-.1.62-.09.93,0,.43,0,.7-.05.83-.3.99-1.41,1.4-2.29.78-1.77-1.29-2.76-3.4-3.8-5.25-.07-.13-.19-.19-.34-.17-.59.07-.5,2.15-.42,2.57.03.16,0,.18-.12.06-.53-.6-1.37-1.64-2.09-2.03-.03-.01-.06,0-.08.02,0,0,0,0,0,0-.05.15.96,1.36,1.12,1.55.45.59,1.48,1.91.6,2.62-.16.13-.34.14-.51.02-.51-.34-.96-.72-1.35-1.14-.07-.08-.16-.13-.26-.15-.04,0-.07,0-.09.04-.1.2.27.92.2,1.23-.28,1.39-1.58,2.44-2.99,2.03-1.27-.37-1.24-1.58-1.44-2.62-.01-.08-.09-.13-.17-.11-.02,0-.05.02-.06.03-.56.48-1.21.67-1.94.58-.19-.02-.32-.12-.4-.3-.42-.99-.23-2.21-.3-3.33,0-.1-.09-.18-.2-.18-.01,0-.03,0-.04,0-.91.26-1.84.45-2.78.57-.16.02-.17,0-.03-.08,1.25-.65,2.57-1.26,3.95-1.82,1.33-.54,2.7-1.14,4-1.61,2.03-.73,4.07-1.41,6.12-2.06,1.65-.51,3.3-.99,4.97-1.42l.47.08s.06.03.02.07c-.03.04-.08.05-.13.05-.04,0-.09.03-.09.07-.07.35-.21.58-.41.71-.26.16-.4.27-.61.38-.15.08-.37.05-.51.28-.02.03-.05.05-.09.06-.47.05-.91.17-1.34.37-.04.02-.03.02,0,.02.12,0,.51.02.57-.04,0,0,.01,0,.02,0l1.03-.25s.03,0,.04,0l.03.02s.04.04,0,.06c-.53.23-1.35.57-1.95.62-.04,0-.07.02-.1.05-.11.12-1.37.24-1.75.28-.39.04-.78.3-1.08.4-.34.12-.68.25-1.02.39-.33.14-.54.4-.83.6-.02.01-.02.03,0,.05l.02.03s-.01,0-.03.02c0,0,0,0,0,0l-.34.15c-.18.08-.18.11,0,.08.12-.02.19.03.22.15.01.05,0,.09-.04.13l-.28.25s-.04.04-.05.07l-.05.11s0,.06.03.08c0,0,0,0,.01,0,.02,0,.04.01.05.03.02.03.06.05.1.03.27-.08.39-.16.56-.42.32-.5.89-.2,1.41.04.04.02.08.02.12,0,.28-.1.54-.06.79.11.03.02.07.03.11.03.22-.01.42-.07.6-.17.51-.27,1.03-.48,1.57-.67.07-.02.14-.02.2.02.52.31,1.06.54,1.64.7.15.04.31.06.46.05h.13s.08-.01.13,0c.15.04.27-.01.36-.15.09-.13.21-.19.38-.18l.46.04s.08-.01.1-.04c.08-.1.19-.17.33-.19.02,0,.03,0,.04.02v.03Z"/>
  <path class="cls-13" d="m188.74,201.76c-2.12.97-3.43,1.59-3.92,1.85-2.04,1.1-4.14,2.12-6.11,3.33-.21.13-.23.1-.06-.07,2.66-2.76,6.06-4.46,9.41-6.16.1.22.26.29.48.19.75-.35,1.51-.67,2.28-.98.07-.03.1,0,.09.07-.04.27-1.64.92-1.71.95-.39.16-.55.43-.47.81Z"/>
  <path class="cls-12" d="m152.07,176.61c-.15-.55-.56-.91-.07-1.45.05-.06.14-.08.22-.06,1.55.5,3.14.92,4.77,1.25.07.1.17.15.3.14.03,0,.05.02.05.05,0,0,0,0,0,0-.04.32-1.55.49-1.87.56-1.23.26-2.29.1-3.4-.49Z"/>
  <path class="cls-8" d="m205.07,214.96s.02-.05.06-.07c1.57-.71,3.07,4.23,2.62,5.27-.02.04-.02.04-.02,0,.06-1.04-.29-2.11-.68-3.14-.34-.9-.89-1.78-1.91-1.98-.04,0-.06-.04-.07-.07Z"/>
  <path class="cls-8" d="m201.11,212.19c.09-.04.16-.02.21.04.02.02.02.05,0,.07,0,0,0,0-.01,0l-8.94,3.65s-.07,0-.09-.04c0,0,0,0,0-.01v-.04c-.02-.05.01-.11.06-.13.67-.27,1.29-.53,1.86-.78,2.54-1.11,5.33-2.12,6.91-2.76Z"/>
  <path class="cls-12" d="m165.65,186.3l.21,1.64.05.72c-.06,1.44-.11,2.34-.15,2.7-.18,1.59-.28,3.09-.59,4.75-.01.09-.07.14-.12.2-.15-.25-.21-.5-.18-.75.16-.88.29-1.77.39-2.66,0-.04.04-.24.12-.63.04-.19.05-.39.03-.59-.01-.14,0-.29.02-.43.29-1.6.21-3.29.09-4.9l.13-.05Z"/>
  <path class="cls-14" d="m165.92,188.66c.11,1.02.14,2.04.11,3.08,0,.05.04.1.1.11.03,0,.05-.02.07-.05-.06,1.19-.18,2.38-.35,3.56-.09.63-.27,1.7-.69,2.18l-.08-1.22c.05-.06.11-.11.12-.2.3-1.66.41-3.16.59-4.75.04-.36.09-1.26.15-2.7Z"/>
  <path class="cls-6" d="m162.46,189.09c-1.52-3.63-5.52-3.9-8.84-4.45-.03,0-.04-.03-.04-.05,0,0,0-.02.01-.02.02-.03.06-.05.1-.05,2.41-.3,4.64.1,6.7,1.18,1.57.83,2.86,2.74,2.97,4.53.02.3-.15.54-.46.46-.04,0-.06-.04-.07-.07-.12-.72-.25-1.23-.37-1.53Z"/>
  <path class="cls-10" d="m189.47,209.45c-1.29.68-2.59,1.34-3.9,1.99-4.59,2.27-8.92,5-13.17,7.87-3.62,2.44-6.8,5.05-10.08,7.98-.03.02-.09.05-.12.05-.05.01-.06,0-.02-.04,2.76-2.53,5.85-5.28,8.71-7.23.94-.64,1.88-1.29,2.81-1.95,1.45-1.01,2.93-1.89,4.42-2.8,3.64-2.23,7.42-4.19,11.34-5.87.04-.02.04-.01,0,0Z"/>
  <path class="cls-4" d="m153.96,185.14c.38.08,1.76.18,1.98.5.07.11.05.14-.08.11-1.81-.44-3.64-.74-5.49-.9-.15-.01-.3-.05-.44-.11-.09-.04-.09-.06.01-.07.52-.05,1.11-.09,1.57.19.03.02.07.03.11.03.79,0,1.57.08,2.34.25Z"/>
  <path class="cls-4" d="m164.18,192.33l.7,3.23c-.03.25.03.5.18.75l.08,1.22-1.95,2.06s-.04.02-.05,0c0,0,0,0,0,0-.02-.02-.02-.04-.02-.06.27-1.01.17-7.26-.45-7.66-.14-.09-.22-.04-.25.13l-.2-.12s-.06-.05-.07-.09l-.17-.42s-.02-.08,0-.11c.12-.33-.26-.47-.41-.7-.03-.04-.02-.04.01-.01.21.17.52.32.66.57.02.03.01.07-.01.1-.04.05-.07.11-.06.17,0,.09.02.1.05,0,.05-.14.15-.19.3-.13.02,0,.04,0,.05-.02,0,0,0,0,0-.01,0-.17.09-.26.26-.26.03,0,.06.02.07.05l.02.04s.03.03.05.03c.45-.01.99.87,1.22,1.25Z"/>
  <path class="cls-9" d="m195.16,216.88c-.12-.15-.09-.24.1-.28.5-.09,2.15,2.19,1.66,2.82-.02.02-.05.03-.07,0,0,0-.01,0-.01-.02-.47-.9-1.03-1.75-1.67-2.54Z"/>
  <path class="cls-4" d="m159.82,193.25c-.21-.93-.72-1.59-1.6-2.07-.03-.02-.05-.06-.03-.1,0,0,0,0,0,0l.04-.06s.04-.03.06-.01c1.04.63,1.65,1.53,1.82,2.7,0,.05,0,.06-.04.02-.13-.14-.22-.3-.26-.48Z"/>
  <path class="cls-9" d="m157.46,190.42s.92.66.46.64c-.09,0-.17-.02-.24-.07-2.33-1.25-4.8-1.68-7.42-1.31-.04,0-.04,0-.02-.03,1.37-1.33,5.81-.07,7.22.77Z"/>
  <path class="cls-13" d="m162.44,196.84c.03,1.2-.14,2.39-.13,3.59,0,.05-.02.1-.06.14l-2.46,2.67s-.06.03-.09,0c-1.63-1.23-3.23-1.71-5.2-2.14-.46-.1-1.25-.44-1.22-.98.04-.77,1.49-1.44,2.01-1.89.34-.29.67-.65,1.06-.84.74-.36,1.54-.49,2.38-.38.18.02.31-.05.38-.22.25-.64-.1-1.17-.64-1.56-1.51-1.08-3.15-1.88-4.94-2.4l.21-.03c.1-.02.1-.04,0-.08l-.34-.13s-.05-.05-.04-.09c0,0,0-.01,0-.02.23-.3.47-.42.74-.36.24.06.37.08.4.09,2.21.12,4.09.79,5.94,1.99.54.35,1.11.66,1.73,1.09.03.02.03.06.02.08,0,0,0,0-.01.01l-.04.03s-.07.03-.1.01c-.22-.11-.77-.58-.94-.58-.02,0-.04.02-.04.04,0,0,0,.01,0,.02.2.54.68,1.76,1.37,1.92Z"/>
  <path class="cls-11" d="m185.16,214.61c-.02.1-.02.21.02.32.01.03,0,.07-.03.08-.19.09-.34.11-.5.27-.16.15-.34.28-.53.39-.51.28-.74.64-1.36.77-.04,0-.07.03-.09.06-.43.63-1.02.32-1.4.78-.03.03-.06.05-.09.07-.25.11-.37.32-.58.45-.36.21-.65.51-1.05.62-.4.11-.76.29-1.09.54-.03.02-.05.06-.07.09-.3.75-1.06,1.18-1.81,1.4-.04.01-.07.03-.09.06-.08.11-.16.18-.22.23-.88.59-1.77,1.18-2.66,1.76-.1.07-.2.14-.3.22-.15.13-.3.26-.44.39-.1.1-.24.15-.42.16-.04,0-.08.02-.11.05-.17.16-.37.28-.59.37-.04.02-.07.05-.09.08-.28.58-.73.64-1.23.85-.03.01-.06.04-.09.07-.17.25-.38.46-.62.63-.03.02-.07.04-.11.04-.19.02-.33.13-.4.32-.01.03-.03.06-.06.08l-.94.7c-.07.05-.06.07.02.07.13,0,.24.05.33.14.02.02.02.05,0,.07l-.13.19c-2.07,1.62-4.11,3.28-6.12,4.97-1.89,1.6-3.65,3.4-5.43,5.12-1.9,1.83-4.11,4.23-6.65,7.21-.31.37-.63.74-.95,1.1-1.83,2.11-3.48,4.5-4.93,6.77-.26.41-.56.93-.89,1.56-.06.12-.15.13-.24.03,4.01-7.13,9.22-13.45,15.09-19.13,4.2-4.06,8.39-7.79,13.48-11.57,4.24-3.14,8.69-5.94,13.37-8.38Z"/>
  <path class="cls-11" d="m178.66,220.56c-2.22,1.23-3.73,2.18-5.49,3.38-.86.58-1.83,1.17-2.93,1.95-.44.31-.96.8-1.49,1.14-.14.08-.17.21-.32.29-.34.2-.58.5-.87.7-.81.55-1.62,1.22-2.43,1.98-.07.07-.06.09.04.08h.05s.04,0,.02.02c-.12.11-.26.19-.41.22-.04,0-.07.03-.1.06-.29.37-.59.73-.9,1.08-.34.38-.78.49-1.11.76-.43.36-.82.77-1.15,1.23-.23.32-.57.46-.78.83-.02.03,0,.07.02.09.11.09.24.14.37.16-5.41,5.24-10.57,11.14-14.6,17.68-2.13,3.46-4.06,7.09-5.79,10.88-.09.2-.24.27-.45.22l-1.46-.38s-.05-.04-.04-.06c0,0,0,0,0,0,1.42-3.09,2.7-6.11,4.39-9.2.09.11.17.09.24-.03.33-.63.62-1.15.89-1.56,1.45-2.27,3.1-4.67,4.93-6.77.32-.37.63-.73.95-1.1,2.54-2.98,4.75-5.38,6.65-7.21,1.78-1.72,3.54-3.52,5.43-5.12,2.01-1.7,4.05-3.35,6.12-4.97,1.12-.88,2.21-1.65,3.28-2.33,1.38-.87,2.7-1.78,3.99-2.54,3.31-1.94,6.6-3.94,10.09-5.56.04-.02.08,0,.11.03l.04.05s.01.06-.01.08c0,0,0,0,0,0-1.02.53-2.04,1.05-3.07,1.57-.46.23-.9.48-1.34.76-.13.09-.27.17-.41.24l-2.43,1.34Z"/>
  <path class="cls-4" d="m148.34,189.4s-.05-.08-.03-.12c.04-.08.17-.05.23,0,.34.24.72.4,1.15.48.13.02.14.07.03.15-.3.2-1.15-.31-1.38-.5Z"/>
  <path class="cls-10" d="m157.6,227.32c.14-.08.24-.19.29-.35,1.88-1.82,3.33-3.15,4.35-4,3.59-2.98,7.1-5.8,10.97-8.27.04-.03.06-.02.05.03,0,.03-.03.06-.06.08-6.41,4.31-12.27,9.77-17.74,15.04-1.15,1.11-2.28,2.36-3.4,3.55,0,0,0,0,0,0l-.03-.02s0-.01,0-.02c0,0,0,0,0,0,1.71-2.12,3.7-4.02,5.57-6.07Z"/>
  <path class="cls-11" d="m178.66,220.56l.04.26s.02.03.04.03c0,0,0,0,0,0,.05-.03.11-.04.18,0-6.39,3.96-12.3,8.53-17.75,13.71-.13-.02-.26-.07-.37-.16-.03-.02-.04-.06-.02-.09.21-.37.55-.51.78-.83.33-.46.72-.86,1.15-1.23.33-.27.77-.39,1.11-.76.31-.35.61-.71.9-1.08.02-.03.06-.05.1-.06.16-.03.3-.11.41-.22.03-.03.02-.04-.02-.03h-.05c-.1.02-.11,0-.04-.08.8-.77,1.61-1.43,2.43-1.98.3-.2.53-.51.87-.7.14-.09.18-.21.32-.29.54-.34,1.05-.83,1.49-1.14,1.09-.78,2.07-1.36,2.93-1.95,1.76-1.19,3.27-2.14,5.49-3.38Z"/>
  <path class="cls-10" d="m136.89,235.64v.03s.01.03.03.01c.24-.24.43-.52.56-.83,2.52-3.09,4.3-5.23,5.35-6.39,2.92-3.24,6.03-6.56,9.33-9.98,1.39-1.43,2.66-2.71,3.83-3.83.04-.04.12-.1.25-.18.03-.02.04-.02,0,0-4.47,4.56-8.74,9.15-12.81,13.78-.91,1.03-1.91,2.21-3,3.52-2.97,3.57-5.77,7.26-8.4,11.08-1.29,1.87-2.42,3.8-3.48,5.79-.02.04-.04.07-.06.07-.07,0-.09-.02-.06-.09.24-.54.5-1.05.78-1.54,2.34-4.13,4.79-7.66,7.68-11.46Z"/>
  <path class="cls-4" d="m157.89,226.97c-.05.16-.15.27-.29.35l.29-.35Z"/>
  <path class="cls-11" d="m145.3,221.79v.17s.03.05.06.06c.06,0,.1.05.12.11,0,.03.02.03.04,0l.03-.04s.02-.02.03,0v.04c-3.73,4.29-6.09,7.04-7.07,8.23-2.8,3.43-5.58,7.04-7.93,10.72-.16.25-.31.45-.44.59-.01.01-.03.01-.04,0,0,0,0,0,0,0l-.02-.03s0-.02,0-.03c.13-.27.23-.46.31-.59,1.79-2.84,3.73-5.58,5.83-8.21,1.25-1.58,2.46-3.26,3.7-4.78,1.73-2.12,3.48-4.32,5.39-6.27Z"/>
</svg>