<?xml version="1.0" encoding="UTF-8"?>
<svg id="Layer_1" data-name="Layer 1" xmlns="http://www.w3.org/2000/svg" viewBox="0 0 334.73 354.82">
  <defs>
    <style>
      .cls-1 {
        fill: #fff;
      }

      .cls-2 {
        opacity: .6;
      }

      .cls-3 {
        fill: #7cbf3c;
      }

      .cls-4 {
        fill: #c1382b;
      }

      .cls-5 {
        opacity: .15;
      }

      .cls-6 {
        opacity: .45;
      }

      .cls-7 {
        fill: #96dd5e;
      }

      .cls-8 {
        fill: #000072;
      }

      .cls-9 {
        fill: #dd2f22;
      }

      .cls-10 {
        fill: #abe47e;
      }

      .cls-11 {
        fill: #b76e51;
      }
    </style>
  </defs>
  <path class="cls-7" d="m166.73,326.14l-64.35-63.37s-30.7-29.92-20.48-79.56c4.15-25.18,23.41-45.62,50.71-70.98l7.43-7.19.73-.74c15.32-15.55,40.01-16.07,55.16-1.16l-.06.06,30.98,30.51c5.46,5.67,33.39,27.21,27.16,79.58-2.83,27.96-25.36,49.96-25.36,49.96l-61.93,62.89Z"/>
  <ellipse class="cls-9" cx="165.88" cy="87.46" rx="34.52" ry="34.87" transform="translate(-12.83 144.29) rotate(-45.44)"/>
  <path class="cls-4" d="m190.64,111.84c2.4-2.43,4.35-5.14,5.87-8.02l-.73-.71.06-.06c-15.15-14.92-39.84-14.4-55.16,1.16l-.73.74-2.38,2.31c1.18,1.65,2.5,3.23,4,4.71,13.72,13.51,35.69,13.46,49.07-.13Z"/>
  <g>
    <path class="cls-3" d="m193.3,158.66s-.03.05-.07.13c-.82,1.44-8.59,13.82-28.79,2.06,0,0,1.36-2.5,4.59-4.77h0c2.22-1.57,5.34-3.02,9.5-3.45,10.2-1.08,14.77,6.03,14.77,6.03Z"/>
    <g class="cls-5">
      <path class="cls-8" d="m193.23,158.79c-.82,1.44-8.59,13.82-28.79,2.06,0,0,1.36-2.5,4.59-4.77h0s5.67,10.3,24.2,2.71Z"/>
    </g>
    <g class="cls-2">
      <path class="cls-1" d="m177.36,155.61s3.7-.32,7.13.65c.23.06.38-.22.2-.37-1.2-.97-3.85-2.44-7.33-.28Z"/>
    </g>
    <path class="cls-8" d="m163.67,159.75c6.38-3.6,14.27-4.26,21.22-2.18.12.03.09.22-.04.21-3.47-.16-6.97-.16-10.37.53-3.26.68-6.58,1.84-9.34,3.68-1.5,1.02-3.02-1.26-1.48-2.24h0Z"/>
    <path class="cls-8" d="m184.12,166.78c-5.82,1.31-12.66-.29-20.36-4.77-.63-.36-.85-1.16-.5-1.8.17-.32,4.35-7.77,15.13-8.91,10.91-1.15,15.84,6.32,16.04,6.64.26.4.28.91.07,1.33-.11.22-2.76,5.3-9.29,7.23-.36.1-.72.2-1.08.28Zm-17.76-6.38c6.96,3.8,13.02,5,18.03,3.54,4.1-1.19,6.4-3.93,7.29-5.21-1.35-1.61-5.48-5.57-13.01-4.77-7.06.74-10.83,4.53-12.31,6.43Z"/>
  </g>
  <g>
    <path class="cls-11" d="m162.13,169.51s.27-8.86-2.84-17.22c-.44-1.17.32-2.46,1.57-2.57.98-.09,2.17.04,3.34.71.49.28.83.76.93,1.31.43,2.36,1.53,9.76-.09,17.63,0,0-1.78,2.6-2.91.14Z"/>
    <g class="cls-2">
      <path class="cls-1" d="m160.69,156.35c-.44-1.17.32-2.46,1.57-2.57.96-.09,2.12.03,3.28.68-.14-1.18-.29-2.11-.4-2.71-.1-.55-.45-1.03-.93-1.31-1.17-.68-2.36-.8-3.34-.71-1.25.11-2,1.4-1.57,2.57,3.12,8.36,2.84,17.22,2.84,17.22.4.87.88,1.1,1.33,1.04-.18-3.31-.78-8.86-2.78-14.21Z"/>
    </g>
    <path class="cls-8" d="m163.86,171.85c-.23.05-.47.07-.72.05-.66-.06-1.58-.42-2.23-1.83-.09-.19-.13-.39-.12-.6,0-.09.22-8.71-2.76-16.71-.36-.97-.25-2.03.3-2.9.54-.85,1.42-1.39,2.41-1.47,1.49-.13,2.88.17,4.13.89.83.48,1.41,1.3,1.58,2.23.52,2.8,1.54,10.18-.09,18.14-.04.18-.11.34-.21.49-.19.27-1.05,1.44-2.28,1.72Zm-2.96-20.79c-.16.04-.25.14-.31.22-.05.08-.15.28-.05.53,2.81,7.54,2.95,15.34,2.93,17.28.1-.08.21-.19.31-.3,1.49-7.6.4-14.77.02-16.81-.03-.16-.13-.31-.29-.4-.76-.44-1.62-.62-2.55-.54-.02,0-.05,0-.07.01Z"/>
  </g>
  <g>
    <path class="cls-11" d="m167.09,239.18l7.57-.36s.73,4.12-1.1,5.15c-1.83,1.03-3.39-.74-3.39-.74,0,0-.22,2.72-2.76,2.84-2.53.12-3.01-2.57-3.01-2.57,0,0-1.38,1.91-3.3,1.06-1.92-.85-1.58-5.02-1.58-5.02l7.57-.36Z"/>
    <path class="cls-8" d="m168.28,247.31c-.25.06-.52.09-.8.11-1.76.08-2.9-.77-3.59-1.76-.9.48-2.06.7-3.33.14-2.66-1.17-2.44-5.5-2.37-6.36.05-.67.59-1.2,1.27-1.23l15.14-.72c.67-.03,1.27.44,1.38,1.11.15.85.77,5.13-1.76,6.55-1.21.68-2.39.57-3.33.18-.49.88-1.32,1.69-2.61,1.99Zm-4.17-5.1c.2-.04.4-.05.61,0,.52.12.92.54,1.01,1.06.07.35.4,1.52,1.63,1.46,1.23-.06,1.45-1.26,1.48-1.63.05-.53.42-.99.92-1.15.5-.16,1.06-.02,1.42.38.08.09.89.93,1.73.46.42-.23.6-1.39.55-2.58l-6.3.3h0l-6.3.3c.07,1.19.36,2.32.79,2.51.88.39,1.6-.53,1.68-.63.2-.26.48-.43.78-.5Z"/>
  </g>
  <path class="cls-3" d="m197.78,212.17c.71,15-12.99,27.84-30.61,28.68-17.62.84-32.49-10.65-33.2-25.65-.06-1.32-.01-2.62.14-3.91.72-9,8.86-29.27,15.37-39.1,6.5-9.83,14.25-3.76,14.25-3.76,0,0,7.13-6.78,14.54,2.39,7.41,9.17,17.43,28.57,19,37.47.27,1.26.45,2.55.51,3.88Z"/>
  <path class="cls-10" d="m194.04,212.71c.61,12.94-9.49,24.26-23.57,27.67-1.07.26-2.17.41-3.28.46h-.02c-11.81.56-22.38-4.42-28.28-12.28,4.41,1.66,9.35,2.49,14.53,2.24,17.62-.84,31.32-13.68,30.61-28.68-.06-1.32-.24-2.61-.51-3.88-1.19-6.69-7.15-19.34-13.19-29.1,0,0,.02,0,.02,0,1.53,0,2.96.75,3.94,1.92.08.1.16.19.24.29,7.41,9.17,17.43,28.57,19,37.47.27,1.26.45,2.55.51,3.88Z"/>
  <g class="cls-2">
    <path class="cls-1" d="m145.92,195.97c1.29-5.4,4.18-14.88,9.46-20.06,1.74-1.71,4.66-.09,4.13,2.29-1.16,5.3-4.02,13.42-11,19.33-1.18,1-2.95-.06-2.59-1.56Z"/>
  </g>
  <g class="cls-6">
    <path class="cls-1" d="m136.08,218.26c-.06-1.32-.01-2.62.14-3.91.72-9,8.86-29.27,15.37-39.1,5.04-7.62,10.83-5.69,13.17-4.43.66.35,1.46.31,2.08-.1,2.22-1.47,7.79-3.94,13.53,3.16.64.79,1.29,1.65,1.96,2.58-1.4-2.12-2.77-4.04-4.07-5.64-7.41-9.17-14.54-2.39-14.54-2.39,0,0-7.74-6.07-14.25,3.76-6.51,9.83-14.65,30.1-15.37,39.1-.15,1.28-.2,2.58-.14,3.91.25,5.22,2.22,10.02,5.41,14.02-1.94-3.3-3.12-7.01-3.31-10.96Z"/>
  </g>
  <path class="cls-8" d="m173.91,241.29c-2.15.48-4.38.79-6.68.9-8.84.42-17.3-2.12-23.82-7.16-6.59-5.09-10.41-12.11-10.78-19.76-.06-1.37-.01-2.76.15-4.13.71-8.9,8.73-29.33,15.58-39.68,2.34-3.53,5.11-5.58,8.26-6.09,3.1-.5,5.71.66,7.03,1.42,1.23-.88,3.72-2.29,6.85-2.08,3.18.21,6.14,1.99,8.81,5.28,7.8,9.65,17.71,29.22,19.28,38.08.28,1.3.47,2.68.53,4.05l-1.34.06,1.34-.06c.65,13.75-10.21,25.8-25.21,29.18Zm-17.26-73.2c-2.22.5-4.25,2.13-6.05,4.85-6.54,9.88-14.47,30.01-15.15,38.47-.15,1.28-.2,2.52-.14,3.74.33,6.86,3.78,13.17,9.74,17.77,6.02,4.65,13.85,7,22.06,6.61,16.85-.8,30.01-13.04,29.34-27.28-.06-1.22-.22-2.45-.48-3.65-1.49-8.41-11.29-27.7-18.73-36.91-2.17-2.69-4.49-4.13-6.9-4.29-3.28-.21-5.65,2.01-5.68,2.03-.48.46-1.23.49-1.75.08-.02-.02-2.66-2.01-5.88-1.48-.13.02-.25.05-.38.07Z"/>
</svg>