<?xml version="1.0" encoding="UTF-8"?>
<svg id="Layer_1" data-name="Layer 1" xmlns="http://www.w3.org/2000/svg" viewBox="0 0 334.73 354.82">
  <defs>
    <style>
      .cls-1 {
        fill: #fff;
      }

      .cls-2 {
        opacity: .6;
      }

      .cls-3 {
        fill: #7cbf3c;
      }

      .cls-4 {
        fill: #c1382b;
      }

      .cls-5 {
        opacity: .15;
      }

      .cls-6 {
        opacity: .45;
      }

      .cls-7 {
        fill: #96dd5e;
      }

      .cls-8 {
        fill: #000072;
      }

      .cls-9 {
        fill: #dd2f22;
      }

      .cls-10 {
        fill: #b76e51;
      }
    </style>
  </defs>
  <path class="cls-7" d="m170.69,330.61l-64.35-63.37s-30.7-29.92-20.48-79.56c4.15-25.18,23.41-45.62,50.71-70.98l7.43-7.19.73-.74c15.32-15.55,40.01-16.07,55.16-1.16l-.06.06,30.98,30.51c5.46,5.67,33.39,27.21,27.16,79.58-2.83,27.96-25.36,49.96-25.36,49.96l-61.93,62.89Z"/>
  <ellipse class="cls-9" cx="169.85" cy="91.93" rx="34.52" ry="34.87" transform="translate(-14.83 148.45) rotate(-45.44)"/>
  <path class="cls-4" d="m194.61,116.32c2.4-2.43,4.35-5.14,5.87-8.02l-.73-.71.06-.06c-15.15-14.92-39.84-14.4-55.16,1.16l-.73.74-2.38,2.31c1.18,1.65,2.5,3.23,4,4.71,13.72,13.51,35.69,13.46,49.07-.13Z"/>
  <path class="cls-9" d="m180.44,249.72c-3.66.89-7.49.54-10.97-.9-1.44-.6-3.09-1.36-4.75-2.27-.69-.38-1.48-.51-2.26-.39-1.87.3-3.68.47-5.24.57-3.76.21-7.5-.73-10.65-2.78-7.17-4.65-11.93-12.17-14.35-20.44-1.27-4.35-1.9-8.92-1.88-13.38.01-8.35,2.27-16.35,6.67-21.98,12.31-15.73,25.01-11.62,29.63-8.61,3.54,2.31,5.75,3.43,6.83,3.91.52.23,1.07.33,1.64.28.32-.03.73-.07,1.25-.14,1.38-.19,3.5-.56,6.49-1.29,3.77-.92,11.52-1.03,18,5.61,2.72,2.78,5.21,6.74,7.1,12.33,5.85,17.25-6.63,44.43-27.5,49.48Z"/>
  <g class="cls-5">
    <path class="cls-8" d="m178.57,246.13c-3.39.83-6.94.51-10.16-.84-1.33-.55-2.86-1.26-4.4-2.1-.64-.35-1.38-.48-2.1-.36-1.73.29-3.41.44-4.85.52-3.48.2-6.94-.67-9.86-2.58-5.51-3.58-9.48-8.98-11.95-15.09,8.76,5.86,22.03,11.03,38.44,5.63,20.07-6.61,24.57-32.57,25.48-40.45,1.85,2.39,3.52,5.47,4.87,9.45,5.41,15.97-6.14,41.14-25.46,45.81Z"/>
  </g>
  <g class="cls-6">
    <path class="cls-1" d="m137.43,215.41c-1.93-11.57,3.65-25.86,14.6-31.11,4.17-1.98,8.15,2.95,5.42,6.6-1.55,2.08-3.43,3.85-5.06,5.85-4.98,5.66-8.83,12.22-12.45,18.95-.52,1.16-2.28.97-2.51-.28h0Z"/>
  </g>
  <g class="cls-6">
    <path class="cls-1" d="m176.24,183.98c-1.58,1.39-5.11.69-11.13-1.91-1.23-.53-2.38-.94-3.43-1.26-4.8-1.44-9.93-.8-14.27,1.7-13.23,7.61-16.91,27.01-17.07,27.62.01-8.35,2.27-16.35,6.67-21.98,12.31-15.73,25.01-11.62,29.63-8.61,3.54,2.31,5.75,3.43,6.83,3.91.52.23,1.07.33,1.64.28.32-.03.73-.07,1.25-.14.04.16.01.29-.1.38Z"/>
  </g>
  <path class="cls-8" d="m176.45,251.51c-2.53.01-5.07-.49-7.49-1.49-1.73-.72-3.37-1.5-4.88-2.33h0c-.43-.24-.94-.32-1.42-.24-1.7.28-3.5.47-5.38.58-4.1.24-8.06-.8-11.44-2.99-8.33-5.4-14.22-15.13-16.16-26.71-1.95-11.67.45-23.55,6.28-31,14.79-18.89,29.72-9.97,31.38-8.89,3.51,2.29,5.67,3.38,6.65,3.82.31.14.64.2.99.17,1.06-.09,3.46-.4,7.54-1.4,1.92-.47,18.97-3.94,26.66,18.78,3.03,8.96,1.37,20.96-4.34,31.33-5.66,10.28-14.44,17.52-24.09,19.85-1.42.34-2.86.52-4.3.53Zm-13.47-6.71c.82,0,1.63.2,2.35.59h0c1.43.78,2.99,1.52,4.63,2.21,3.28,1.37,6.8,1.66,10.16.84,8.94-2.16,17.11-8.93,22.42-18.57,5.37-9.74,6.96-20.94,4.15-29.22-6.95-20.51-21.88-17.49-23.56-17.08-4.25,1.04-6.79,1.37-7.93,1.47-.79.07-1.58-.07-2.3-.39-1.04-.47-3.34-1.62-7-4.01-1.45-.94-14.54-8.74-27.89,8.31-5.39,6.89-7.6,17.98-5.76,28.95,1.82,10.85,7.28,19.94,15,24.95,2.91,1.88,6.32,2.77,9.87,2.57,1.78-.1,3.5-.29,5.1-.55.25-.04.5-.06.75-.06Z"/>
  <g>
    <path class="cls-3" d="m175.48,176.52c9.7-1.83,11.3,4.67,19.89,2.39,5.96-1.58,7.36-8.42,7.65-12.46.13-1.78.05-3.02.05-3.02-4.14,3.82-6.57,2.66-16.06,2.81-7.73.12-10.52,6.88-11.29,9.38-.18.56-.24.91-.24.91Z"/>
    <g class="cls-5">
      <path class="cls-8" d="m175.48,176.52c9.7-1.83,11.3,4.67,19.89,2.39,5.96-1.58,7.36-8.42,7.65-12.46-.16-.33-.25-.53-.25-.53,0,0-2.36,10.84-13.12,8.17-10.33-2.56-11.22-.48-13.93,1.53-.18.56-.24.91-.24.91Z"/>
    </g>
    <g class="cls-2">
      <path class="cls-1" d="m198.57,168.08c-1.86.3-3.81.43-5.71.35l-1.98-.09c-.24-.02-.45.17-.46.41,0,.19.11.35.27.42,1.97.76,4.15,1,6.23.62.56-.16,2.73-.52,2.25-1.45-.13-.22-.38-.3-.61-.25h0Z"/>
    </g>
    <path class="cls-8" d="m174.75,175.63c5.72-4.19,13.23-5.48,20.05-3.88.14.03.12.25-.03.24-3.36.08-6.66.45-9.87,1.34-3.08.87-6.23,2.3-8.78,4.13-1.21.86-2.55-.91-1.38-1.84h0Z"/>
    <path class="cls-8" d="m191.94,180.55c-2.63.01-4.61-.8-6.54-1.6-2.67-1.1-5.19-2.15-9.71-1.3-.38.07-.76-.05-1.03-.32-.27-.27-.39-.66-.31-1.04.02-.11,2.34-11.06,12.64-11.22,2.14-.03,3.89,0,5.44.03,5.23.1,6.99.13,9.86-2.53.33-.3.8-.39,1.21-.22.41.16.69.55.72.99.04.58.85,14.19-8.55,16.68-1.39.37-2.62.52-3.73.53Zm-13.25-5.51c3.24-.02,5.52.92,7.59,1.78,2.62,1.08,4.88,2.02,8.8.98,5.54-1.47,6.64-8.34,6.83-12-2.7,1.74-5.25,1.69-9.52,1.61-1.53-.03-3.26-.06-5.36-.03-6.3.1-8.96,5.08-9.94,7.74.56-.05,1.09-.08,1.6-.08Z"/>
  </g>
  <g>
    <path class="cls-10" d="m174.28,182.13s-1.66-11.92-4.89-19.98c0,0,1.14-2.33,2.96-1.79.64.19,1.13.72,1.34,1.36.86,2.55,3.46,11.38,1.86,20.42h-1.27Z"/>
    <g class="cls-2">
      <path class="cls-1" d="m171.19,166.16s1.14-2.33,2.96-1.79c.13.04.25.09.37.16-.32-1.24-.62-2.2-.83-2.81-.21-.64-.7-1.17-1.34-1.36-1.83-.54-2.96,1.79-2.96,1.79,3.24,8.05,4.89,19.98,4.89,19.98h1.14c-.76-4.18-2.18-10.86-4.23-15.97Z"/>
    </g>
    <path class="cls-8" d="m175.55,183.29s0,0-.01,0h-1.27c-.57-.01-1.06-.43-1.13-1-.02-.12-1.68-11.88-4.82-19.71-.12-.3-.11-.64.03-.93.58-1.19,2.15-3.04,4.33-2.39.98.29,1.76,1.07,2.11,2.1.86,2.57,3.55,11.68,1.9,20.99-.1.55-.57.95-1.13.95Zm-4.89-21.03c2.06,5.34,3.45,12.05,4.17,16.1.47-7.44-1.53-14.17-2.24-16.28-.1-.31-.32-.55-.58-.62-.55-.16-1.07.39-1.36.8Z"/>
  </g>
</svg>