<?xml version="1.0" encoding="UTF-8"?>
<svg id="Layer_1" data-name="Layer 1" xmlns="http://www.w3.org/2000/svg" viewBox="0 0 334.73 354.82">
  <defs>
    <style>
      .cls-1, .cls-2 {
        fill: #6ca82c;
      }

      .cls-3 {
        fill: #5e9321;
      }

      .cls-4 {
        fill: #7cbf3c;
      }

      .cls-5 {
        fill: #c1382b;
      }

      .cls-6 {
        fill: #d5d400;
      }

      .cls-7 {
        fill: #66af2c;
      }

      .cls-7, .cls-2 {
        opacity: .5;
      }

      .cls-8 {
        fill: #a0470a;
      }

      .cls-9 {
        fill: #96dd5e;
      }

      .cls-10 {
        fill: #dd2f22;
      }
    </style>
  </defs>
  <path class="cls-9" d="m163.8,332.82l-64.35-63.37s-30.7-29.92-20.48-79.56c4.15-25.18,23.41-45.62,50.71-70.98l7.43-7.19.73-.74c15.32-15.55,40.01-16.07,55.16-1.16l-.06.06,30.98,30.51c5.46,5.67,33.39,27.21,27.16,79.58-2.83,27.96-25.36,49.96-25.36,49.96l-61.93,62.89Z"/>
  <ellipse class="cls-10" cx="162.95" cy="94.14" rx="34.52" ry="34.87" transform="translate(-18.46 144.19) rotate(-45.44)"/>
  <path class="cls-5" d="m187.71,118.52c2.4-2.43,4.35-5.14,5.87-8.02l-.73-.71.06-.06c-15.15-14.92-39.84-14.4-55.16,1.16l-.73.74-2.38,2.31c1.18,1.65,2.5,3.23,4,4.71,13.72,13.51,35.69,13.46,49.07-.13Z"/>
  <path class="cls-8" d="m119.17,249.85l-1.46-31.48c0-.57-.92-1.03-2.05-1.03h-.28c-1.13,0-2.05.46-2.05,1.03l-1.46,31.48h7.31Z"/>
  <g>
    <path class="cls-8" d="m125.71,217.83c-.94-.74-2.31-.58-3.05.37l-6.52,8.31,1.37,5.29,8.56-10.92c.74-.94.58-2.31-.37-3.05Z"/>
    <path class="cls-8" d="m105.32,217.83c.94-.74,2.31-.58,3.05.37l6.52,8.31-1.37,5.29-8.56-10.92c-.74-.94-.58-2.31.37-3.05Z"/>
  </g>
  <g>
    <path class="cls-1" d="m131.17,204.17h-9.57c-.41-7.31-6.29-12.74-13.49-12.74s-13.52,6.04-13.52,13.5c0,.22,0,.44.02.66-2.25,1.52-3.73,4.17-3.73,7.09,0,4.68,3.8,8.55,8.48,8.55h31.8c4.68,0,8.48-3.85,8.48-8.53s-3.8-8.53-8.48-8.53Z"/>
    <path class="cls-2" d="m138.13,215.53c-3.42.36-6.85.71-10.29.9-3.39.19-6.85.34-10.24,0-2.43-.25-5.03-.39-7.4-1.07-2.84-.82-5.11-2.19-7.45-4.01-3.99-3.1-4.15-9.85-1.79-13.87.31-.54.66-1.02,1.02-1.47,1.64-2.29,4.1-3.97,6.93-4.56-.27-.02-.54-.03-.81-.03-7.46,0-13.52,6.05-13.52,13.52,0,.22,0,.44.02.66-2.25,1.52-3.73,4.1-3.73,7.02,0,4.68,3.8,8.48,8.48,8.48h31.8c3.69,0,6.82-2.36,7.99-5.66-.34.03-.69.06-1.03.1Z"/>
  </g>
  <path class="cls-4" d="m104.4,187.59h.03c.41-6.83,6.29-12.63,13.49-12.63s13.52,6.1,13.52,13.56c0,.22,0,.47-.02.69,2.25,1.52,3.73,4.07,3.73,6.99,0,4.68-3.8,8.45-8.48,8.45h-22.26c-4.68,0-8.48-3.85-8.48-8.53s3.8-8.53,8.48-8.53Z"/>
  <path class="cls-7" d="m97.44,199.19c3.42.36,16.02.5,18.39-.18,2.84-.82,5.11-2.19,7.45-4.01,4-3.1,4.15-9.85,1.79-13.87-.31-.54-.66-1.02-1.02-1.47-1.64-2.29-4.1-3.97-6.93-4.56.27-.02.54-.03.81-.03,7.46,0,13.52,6.05,13.52,13.52,0,.22,0,.44-.02.66,2.25,1.52,3.73,4.1,3.73,7.02,0,4.68-3.8,8.48-8.48,8.48h-22.26c-3.69,0-6.82-2.36-7.99-5.66.34.03.69.06,1.03.1Z"/>
  <path class="cls-8" d="m175.2,203.77c-.94-.74-2.31-.58-3.05.37l-9.14,11.5-.37-11.31c0-.57-.92-1-2.05-1h-.28c-1.13,0-2.05.43-2.05,1l-.33,10.04-10.15-12.17c-.74-.94-1.13-1.6-2.08-.86-.94.74,1.33,2.1,2.07,5.49l9.91,15.37-.88,26.97h7.31l-.88-26.97,9.91-15.33c.74-.94,3.01-2.35,2.07-3.09Z"/>
  <path class="cls-4" d="m171.04,191.43c-4.35,0-8.17,1.91-10.39,4.81-2.22-2.9-6.05-4.81-10.39-4.81-6.87,0-12.44,4.77-12.44,10.66s5.57,10.66,12.44,10.66c4.35,0,8.17-1.91,10.39-4.81,2.22,2.9,6.05,4.81,10.39,4.81,6.87,0,12.44-4.77,12.44-10.66s-5.57-10.66-12.44-10.66Z"/>
  <path class="cls-9" d="m172.26,195.75c0,5.89-5.57,10.66-12.44,10.66s-12.44-4.77-12.44-10.66,5.57-10.66,12.44-10.66,12.44,4.77,12.44,10.66Z"/>
  <path class="cls-4" d="m190.79,194.29c0,5.89-5.57,10.66-12.44,10.66s-12.44-4.77-12.44-10.66,5.57-10.66,12.44-10.66,12.44,4.77,12.44,10.66Z"/>
  <path class="cls-1" d="m153.73,194.29c0,5.89-5.57,10.66-12.44,10.66s-12.44-4.77-12.44-10.66,5.57-10.66,12.44-10.66,12.44,4.77,12.44,10.66Z"/>
  <path class="cls-4" d="m172.26,183.56c0,5.89-5.57,10.66-12.44,10.66s-12.44-4.77-12.44-10.66,5.57-10.66,12.44-10.66,12.44,4.77,12.44,10.66Z"/>
  <path class="cls-7" d="m159.92,177.62c4.79,0,9.17,2.03,12.32,5.27-.41-5.57-5.81-9.98-12.41-9.98s-12.13,4.52-12.42,10.19c3.16-3.35,7.63-5.48,12.51-5.48Z"/>
  <path class="cls-7" d="m180.3,203.88c-3.24,3.24-7.68,5.16-12.25,5.08-4.29-.08-6.58-.83-7.28-.87,2.24,2.81,6,4.67,10.28,4.67,6.87,0,12.44-4.77,12.44-10.66,0-.73-.09-1.43-.26-2.12-.78,1.41-1.75,2.72-2.92,3.9Z"/>
  <path class="cls-4" d="m140.98,203.88c3.24,3.24,7.85,5.35,12.42,5.6,4.33.24,6.42-1.36,7.12-1.4-2.24,2.81-6,4.67-10.28,4.67-6.87,0-12.44-4.77-12.44-10.66,0-.73.09-1.43.26-2.12.78,1.41,1.75,2.72,2.92,3.9Z"/>
  <path class="cls-7" d="m145.57,190.43c3.07,1.65,5.7,4.04,7.63,6.92.34-.97.53-1.99.53-3.05,0-5.89-5.57-10.66-12.44-10.66-3.9,0-7.38,1.54-9.66,3.95,1.26-.3,2.56-.46,3.9-.46,3.72,0,7.2,1.24,10.04,3.31Z"/>
  <path class="cls-7" d="m167.77,193.3c3.25-3.25,7.7-5.09,12.3-5.09.02,0,.05,0,.07,0,3.71.35,5.56.47,8.81,2.38.49.29.96.6,1.41.93-1.42-4.54-6.26-7.89-12.01-7.89-6.87,0-12.44,4.77-12.44,10.66,0,.38.02.75.07,1.12.54-.74,1.13-1.45,1.79-2.1Z"/>
  <g>
    <path class="cls-8" d="m208,248.2l-1.46-31.48c0-.57-.92-1.03-2.05-1.03h-.28c-1.13,0-2.05.46-2.05,1.03l-1.46,31.48h7.31Z"/>
    <g>
      <path class="cls-8" d="m214.53,216.18c-.94-.74-2.31-.58-3.05.37l-6.52,8.31,1.37,5.29,8.56-10.92c.74-.94.58-2.31-.37-3.05Z"/>
      <path class="cls-8" d="m194.15,216.18c.94-.74,2.31-.58,3.05.37l6.52,8.31-1.37,5.29-8.56-10.92c-.74-.94-.58-2.31.37-3.05Z"/>
    </g>
  </g>
  <path class="cls-6" d="m205.07,210.46c-2.93,0-2.93,4.29,0,4.29,2.44,0,2.44-4.29,0-4.29Z"/>
  <path class="cls-4" d="m224.99,210.62c-.23-.34-.44-.64-.66-.93.89-1.34,1.38-2.93,1.38-4.56,0-2.18-.87-4.29-2.41-5.82-1.54-1.54-3.65-2.41-5.82-2.41s-4.29.87-5.82,2.41c-.88.88-1.53,1.95-1.94,3.11-.86-.27-1.76-.41-2.69-.42-1.62,0-3.13.41-4.53,1.23-.08.05-.16.1-.24.15-1.32.78-2.38,1.84-3.16,3.16-.8,1.37-1.2,2.85-1.2,4.44,0,1.59.41,3.07,1.2,4.44.78,1.32,1.84,2.38,3.16,3.16.08.05.16.1.24.15,1.4.81,2.91,1.22,4.53,1.23.82,0,1.61-.11,2.38-.32.01.02.02.05.04.07.28.36.55.72.83,1.08,0,0,0,0,0,.01.19.25.38.49.57.74.72.71,1.52,1.28,2.4,1.72,1.23.63,2.59.91,3.98.94,1.28.02,3.48-.45,4.54-1.24l1.82-1.41c1.12-1.12,1.89-2.45,2.32-3.98l.32-2.39c0-1.63-.41-3.14-1.23-4.55Z"/>
  <path class="cls-4" d="m203.12,209.69c-.47,0-.89.06-1.28.17.93-1.33,1.45-2.93,1.45-4.57h0c0-2.11-.85-4.15-2.34-5.64-1.49-1.49-3.53-2.34-5.64-2.34s-4.15.85-5.64,2.34c-1.49,1.49-2.34,3.53-2.34,5.64h0c0,.17.01.34.03.51-1.92.85-3.37,2.46-4.11,4.44-.43,1-.65,2.05-.66,3.17,0,1.44.37,2.79,1.09,4.04.02.03.04.05.06.08.71,1.19,1.66,2.14,2.85,2.85,1.24.72,2.58,1.08,4.01,1.08,1.43,0,2.77-.37,4.01-1.08.54-.41,1.07-.83,1.61-1.24.98-.99,1.67-2.16,2.04-3.51.01-.03.02-.06.03-.09.27-.99.34-1.98.24-2.96.24-.1.46-.22.69-.35-1.05,2.59.24,6.23,3.88,6.23,5.65,0,5.65-8.76,0-8.76Z"/>
  <path class="cls-1" d="m192,218.07c-4.11.2-7.72-2.61-9.23-6.26-.11.52-.16,1.05-.16,1.6,0,1.44.37,2.79,1.09,4.04.02.03.04.05.06.08.71,1.19,1.66,2.14,2.85,2.85,1.24.72,2.58,1.08,4.01,1.08,1.43,0,2.77-.37,4.01-1.08.54-.41,1.07-.83,1.61-1.24.68-.68,1.21-1.45,1.6-2.3-1.83.7-3.76,1.15-5.84,1.25Z"/>
  <path class="cls-3" d="m225.25,193.63c-.79-2.87-2.71-5.36-5.28-6.87-1.38-.81-2.91-1.3-4.48-1.48.11-1.27,0-2.54-.34-3.81-.18-.99-.56-1.87-1.14-2.64-.56-.72-1.11-1.44-1.67-2.16-1.33-1.32-2.9-2.24-4.71-2.75-3.7-1.02-7.67.17-10.39,2.84-2.57,2.52-3.55,5.77-3.09,9.67h0c-2.91,0-5.74,1.07-7.8,3.13-2.06,2.06-3.23,4.84-3.23,7.75s1.17,5.71,3.23,7.77c2.06,2.06,4.88,3.22,7.8,3.22s5.74-1.18,7.8-3.24c.26-.26.5-.53.73-.81.72-.29,1.39-.66,2-1.13.95,1.4,2.19,2.6,3.68,3.47,2.65,1.56,5.89,1.97,8.86,1.16,2.87-.79,5.36-2.71,6.87-5.28,1.55-2.65,1.97-5.89,1.16-8.86Z"/>
  <path class="cls-7" d="m225.25,193.63c-.79-2.87-2.71-5.36-5.28-6.87-1.24-.73-2.61-1.2-4.02-1.42-.39,2.31-1.37,4.54-2.83,6.31.08,0,.16,0,.24,0,1.46,0,2.85.26,4.18.76,1.73.58,3.25,1.52,4.56,2.82,1.43,1.43,2.42,3.12,2.97,5.06.7-2.14.77-4.47.17-6.66Z"/>
  <path class="cls-7" d="m199.37,183.12c1.07-3.88,3.66-7.24,7.13-9.27.07-.04.15-.08.23-.12-3.43-.61-6.98.58-9.49,3.04-2.57,2.52-3.55,5.77-3.09,9.67h0c-2.91,0-5.74,1.07-7.8,3.13-2.06,2.06-3.23,4.84-3.23,7.75,0,1.35.26,2.66.73,3.9,1.64-6.49,7.61-11.42,14.55-11.42.25,0,.51,0,.76.02-.44-2.12-.46-4.27.21-6.7Z"/>
  <path class="cls-1" d="m225.05,214.39c-.72,3.6-4.93,5.61-8.27,4.7-2.33-.64-3.75-2.21-4.39-4.14-.93.27-1.91.41-2.93.41-5.09,0-9.45-3.64-10.59-8.41-.65,1.26-.97,2.6-.98,4.03,0,1.59.41,3.07,1.2,4.44.78,1.32,1.84,2.38,3.16,3.16.08.05.16.1.24.15,1.4.81,2.91,1.22,4.53,1.23.82,0,1.61-.11,2.38-.32.01.02.02.05.04.07.28.36.55.72.83,1.08,0,0,0,0,0,.01.19.25.38.49.57.74.72.71,1.52,1.28,2.4,1.72,1.23.63,2.59.91,3.98.94,1.28.02,3.48-.45,4.54-1.24l1.82-1.41c1.12-1.12,1.89-2.45,2.32-3.98l.32-2.39c0-1.18-.22-2.3-.65-3.37-.17.87-.35,1.73-.52,2.6Z"/>
</svg>